<?xml version="1.0" encoding="UTF-8"?>
<svg width="444px" height="100px" viewBox="0 0 444 100" version="1.1" xmlns="http://www.w3.org/2000/svg" xmlns:xlink="http://www.w3.org/1999/xlink">
    <title>MarcusAschenbrenner&amp;AljazPrimozictheLiftNestGbRFranklinstr.2501069,Dresden,DeutschlandE-Mail-Adresse:kontakt@theliftnest.com</title>
    <g id="lg---1400" stroke="none" stroke-width="1" fill="none" fill-rule="evenodd">
        <g id="Artboard" transform="translate(-1017.000000, -216.000000)" fill="#37374C" fill-rule="nonzero">
            <path d="M1020.384,228.83 L1020.384,221.782999 L1020.267,219.820999 L1020.717,222.070999 L1022.733,227.885 L1025.334,227.885 L1027.359,222.070999 L1027.818,219.820999 L1027.701,221.782999 L1027.701,228.83 L1030.347,228.83 L1030.347,216.949998 L1026.621,216.949998 L1024.2,224.923999 L1024.038,225.851 L1023.876,224.923999 L1021.464,216.949998 L1017.738,216.949998 L1017.738,228.83 L1020.384,228.83 Z M1035.693,229.046 C1037.151,229.046 1038.078,228.011 1038.24,227.624 L1038.24,228.83 L1040.895,228.83 L1040.895,221.440999 L1038.213,221.440999 L1038.213,222.529999 C1037.97,222.034999 1037.097,221.224999 1035.693,221.224999 C1033.542,221.224999 1032.093,222.970999 1032.093,225.139999 C1032.093,227.309 1033.542,229.046 1035.693,229.046 Z M1036.485,226.931 C1035.531,226.931 1034.739,226.184 1034.739,225.139999 C1034.739,224.104999 1035.531,223.339999 1036.485,223.339999 C1037.493,223.339999 1038.204,224.122999 1038.204,225.139999 C1038.204,226.166 1037.493,226.931 1036.485,226.931 Z M1045.116,228.83 L1045.116,225.112999 C1045.116,224.392999 1045.602,223.393999 1046.718,223.393999 C1047.357,223.393999 1047.798,223.672999 1047.96,223.879999 L1049.004,221.683999 C1048.743,221.485999 1048.122,221.224999 1047.438,221.224999 C1046.088,221.224999 1045.341,222.034999 1045.116,222.484999 L1045.116,221.440999 L1042.425,221.440999 L1042.425,228.83 L1045.116,228.83 Z M1053.72,229.046 C1055.061,229.046 1056.006,228.533 1056.294,228.299 L1055.052,226.463 C1054.899,226.607 1054.44,226.931 1053.747,226.931 C1052.847,226.931 1052.046,226.175 1052.046,225.130999 C1052.046,224.086999 1052.847,223.339999 1053.747,223.339999 C1054.467,223.339999 1054.908,223.708999 1055.034,223.825999 L1056.294,221.989999 C1056.006,221.737999 1055.034,221.224999 1053.72,221.224999 C1051.182,221.224999 1049.472,222.736999 1049.472,225.130999 C1049.472,227.516 1051.182,229.046 1053.72,229.046 Z M1061.442,229.046 C1064.079,229.046 1065.573,227.525 1065.573,225.157999 L1065.573,221.440999 L1062.918,221.440999 L1062.918,224.869999 C1062.918,226.067 1062.513,226.823 1061.442,226.823 C1060.38,226.823 1059.966,226.067 1059.966,224.869999 L1059.966,221.440999 L1057.311,221.440999 L1057.311,225.157999 C1057.311,227.525 1058.814,229.046 1061.442,229.046 Z M1069.875,229.046 C1071.486,229.046 1073.511,228.542 1073.511,226.49 C1073.511,224.968999 1072.197,224.473999 1071.108,224.248999 C1070.271,224.077999 1069.812,223.870999 1069.812,223.492999 C1069.812,223.123999 1070.271,222.943999 1070.856,222.943999 C1071.612,222.943999 1072.296,223.285999 1072.521,223.465999 L1073.403,221.872999 C1073.16,221.683999 1071.972,221.224999 1070.55,221.224999 C1068.831,221.224999 1067.247,221.962999 1067.247,223.420999 C1067.247,224.959999 1068.615,225.508999 1069.578,225.715999 C1070.361,225.887 1070.856,226.067 1070.856,226.499 C1070.856,226.895 1070.397,227.147 1069.632,227.147 C1068.831,227.147 1068.048,226.724 1067.733,226.454 L1066.869,228.227 C1067.166,228.47 1068.192,229.046 1069.875,229.046 Z M1081.719,228.83 L1082.61,226.427 L1087.191,226.427 L1088.064,228.83 L1090.89,228.83 L1086.21,216.949998 L1083.573,216.949998 L1078.884,228.83 L1081.719,228.83 Z M1086.309,224.104999 L1083.483,224.104999 L1084.887,220.144999 L1084.914,220.144999 L1086.309,224.104999 Z M1094.481,229.046 C1096.092,229.046 1098.117,228.542 1098.117,226.49 C1098.117,224.968999 1096.803,224.473999 1095.714,224.248999 C1094.877,224.077999 1094.418,223.870999 1094.418,223.492999 C1094.418,223.123999 1094.877,222.943999 1095.462,222.943999 C1096.218,222.943999 1096.902,223.285999 1097.127,223.465999 L1098.009,221.872999 C1097.766,221.683999 1096.578,221.224999 1095.156,221.224999 C1093.437,221.224999 1091.853,221.962999 1091.853,223.420999 C1091.853,224.959999 1093.221,225.508999 1094.184,225.715999 C1094.967,225.887 1095.462,226.067 1095.462,226.499 C1095.462,226.895 1095.003,227.147 1094.238,227.147 C1093.437,227.147 1092.654,226.724 1092.339,226.454 L1091.475,228.227 C1091.772,228.47 1092.798,229.046 1094.481,229.046 Z M1103.544,229.046 C1104.885,229.046 1105.83,228.533 1106.118,228.299 L1104.876,226.463 C1104.723,226.607 1104.264,226.931 1103.571,226.931 C1102.671,226.931 1101.87,226.175 1101.87,225.130999 C1101.87,224.086999 1102.671,223.339999 1103.571,223.339999 C1104.291,223.339999 1104.732,223.708999 1104.858,223.825999 L1106.118,221.989999 C1105.83,221.737999 1104.858,221.224999 1103.544,221.224999 C1101.006,221.224999 1099.296,222.736999 1099.296,225.130999 C1099.296,227.516 1101.006,229.046 1103.544,229.046 Z M1109.889,228.83 L1109.889,224.860999 C1109.889,223.852999 1110.69,223.150999 1111.518,223.150999 C1112.337,223.150999 1112.85,223.699999 1112.85,224.761999 L1112.85,228.83 L1115.559,228.83 L1115.559,224.320999 C1115.559,222.115999 1113.903,221.224999 1112.355,221.224999 C1111.122,221.224999 1110.078,221.944999 1109.889,222.538999 L1109.889,216.445998 L1107.189,216.445998 L1107.189,228.83 L1109.889,228.83 Z M1121.013,229.046 C1123.047,229.046 1123.938,228.542 1124.397,228.056 L1123.344,226.364 C1122.993,226.706 1122.228,227.075 1121.193,227.075 C1120.086,227.075 1119.42,226.427 1119.357,225.616999 L1124.712,225.616999 C1124.73,225.535999 1124.73,225.238999 1124.73,225.130999 C1124.73,222.556999 1123.209,221.224999 1120.797,221.224999 C1118.25,221.224999 1116.783,222.898999 1116.783,225.049999 C1116.783,227.642 1118.556,229.046 1121.013,229.046 Z M1122.165,224.419999 L1119.42,224.419999 C1119.456,223.609999 1119.933,223.015999 1120.833,223.015999 C1121.742,223.015999 1122.138,223.663999 1122.165,224.419999 Z M1128.744,228.83 L1128.744,224.860999 C1128.744,223.852999 1129.5,223.150999 1130.319,223.150999 C1131.147,223.150999 1131.705,223.699999 1131.705,224.761999 L1131.705,228.83 L1134.405,228.83 L1134.405,224.320999 C1134.405,222.115999 1132.758,221.224999 1131.21,221.224999 C1129.986,221.224999 1128.942,221.944999 1128.744,222.538999 L1128.744,221.440999 L1126.053,221.440999 L1126.053,228.83 L1128.744,228.83 Z M1141.245,229.046 C1143.387,229.046 1144.773,227.309 1144.773,225.139999 C1144.773,222.970999 1143.387,221.224999 1141.245,221.224999 C1139.823,221.224999 1138.824,222.025999 1138.662,222.529999 L1138.662,216.445998 L1135.971,216.445998 L1135.971,228.83 L1138.635,228.83 L1138.635,227.624 C1138.995,228.299 1140.039,229.046 1141.245,229.046 Z M1140.426,226.931 C1139.418,226.931 1138.662,226.166 1138.662,225.139999 C1138.662,224.122999 1139.418,223.339999 1140.426,223.339999 C1141.38,223.339999 1142.127,224.104999 1142.127,225.139999 C1142.127,226.184 1141.38,226.931 1140.426,226.931 Z M1148.517,228.83 L1148.517,225.112999 C1148.517,224.392999 1149.003,223.393999 1150.119,223.393999 C1150.758,223.393999 1151.199,223.672999 1151.361,223.879999 L1152.405,221.683999 C1152.144,221.485999 1151.523,221.224999 1150.839,221.224999 C1149.489,221.224999 1148.742,222.034999 1148.517,222.484999 L1148.517,221.440999 L1145.826,221.440999 L1145.826,228.83 L1148.517,228.83 Z M1156.977,229.046 C1159.011,229.046 1159.902,228.542 1160.361,228.056 L1159.308,226.364 C1158.957,226.706 1158.192,227.075 1157.157,227.075 C1156.05,227.075 1155.384,226.427 1155.321,225.616999 L1160.676,225.616999 C1160.694,225.535999 1160.694,225.238999 1160.694,225.130999 C1160.694,222.556999 1159.173,221.224999 1156.761,221.224999 C1154.214,221.224999 1152.747,222.898999 1152.747,225.049999 C1152.747,227.642 1154.52,229.046 1156.977,229.046 Z M1158.129,224.419999 L1155.384,224.419999 C1155.42,223.609999 1155.897,223.015999 1156.797,223.015999 C1157.706,223.015999 1158.102,223.663999 1158.129,224.419999 Z M1164.708,228.83 L1164.708,224.860999 C1164.708,223.852999 1165.464,223.150999 1166.283,223.150999 C1167.111,223.150999 1167.669,223.699999 1167.669,224.761999 L1167.669,228.83 L1170.369,228.83 L1170.369,224.320999 C1170.369,222.115999 1168.722,221.224999 1167.174,221.224999 C1165.95,221.224999 1164.906,221.944999 1164.708,222.538999 L1164.708,221.440999 L1162.017,221.440999 L1162.017,228.83 L1164.708,228.83 Z M1174.563,228.83 L1174.563,224.860999 C1174.563,223.852999 1175.319,223.150999 1176.138,223.150999 C1176.966,223.150999 1177.524,223.699999 1177.524,224.761999 L1177.524,228.83 L1180.224,228.83 L1180.224,224.320999 C1180.224,222.115999 1178.577,221.224999 1177.029,221.224999 C1175.805,221.224999 1174.761,221.944999 1174.563,222.538999 L1174.563,221.440999 L1171.872,221.440999 L1171.872,228.83 L1174.563,228.83 Z M1185.651,229.046 C1187.685,229.046 1188.576,228.542 1189.035,228.056 L1187.982,226.364 C1187.631,226.706 1186.866,227.075 1185.831,227.075 C1184.724,227.075 1184.058,226.427 1183.995,225.616999 L1189.35,225.616999 C1189.368,225.535999 1189.368,225.238999 1189.368,225.130999 C1189.368,222.556999 1187.847,221.224999 1185.435,221.224999 C1182.888,221.224999 1181.421,222.898999 1181.421,225.049999 C1181.421,227.642 1183.194,229.046 1185.651,229.046 Z M1186.803,224.419999 L1184.058,224.419999 C1184.094,223.609999 1184.571,223.015999 1185.471,223.015999 C1186.38,223.015999 1186.776,223.663999 1186.803,224.419999 Z M1193.265,228.83 L1193.265,225.112999 C1193.265,224.392999 1193.751,223.393999 1194.867,223.393999 C1195.506,223.393999 1195.947,223.672999 1196.109,223.879999 L1197.153,221.683999 C1196.892,221.485999 1196.271,221.224999 1195.587,221.224999 C1194.237,221.224999 1193.49,222.034999 1193.265,222.484999 L1193.265,221.440999 L1190.574,221.440999 L1190.574,228.83 L1193.265,228.83 Z M1206.171,229.046 C1208.052,229.046 1209.258,228.317 1210.194,227.57 L1211.373,228.83 L1214.703,228.83 L1212.192,226.193 C1212.777,225.715999 1213.47,224.869999 1213.767,224.428999 L1212.012,222.835999 C1211.382,223.708999 1210.77,224.329999 1210.473,224.563999 L1208.745,222.727999 C1209.564,222.313999 1211.193,221.251999 1211.193,219.712999 C1211.193,218.020998 1210.023,216.733998 1207.683,216.733998 C1205.253,216.733998 1203.93,218.119998 1203.93,219.667998 C1203.93,220.963999 1204.803,221.953999 1205.343,222.241999 C1204.623,222.448999 1202.22,223.393999 1202.22,225.634999 C1202.22,227.858 1204.092,229.046 1206.171,229.046 Z M1207.404,221.287999 C1207.323,221.206999 1206.531,220.387999 1206.531,219.703999 C1206.531,219.217998 1206.927,218.740998 1207.665,218.740998 C1208.367,218.740998 1208.781,219.172998 1208.781,219.703999 C1208.781,220.594999 1207.692,221.188999 1207.404,221.287999 Z M1206.666,226.571 C1205.856,226.571 1205.235,226.202 1205.235,225.391999 C1205.235,224.491999 1206.279,223.987999 1206.63,223.825999 L1208.502,225.806 C1208.142,226.139 1207.404,226.571 1206.666,226.571 Z M1221.948,228.83 L1222.839,226.427 L1227.42,226.427 L1228.293,228.83 L1231.119,228.83 L1226.439,216.949998 L1223.802,216.949998 L1219.113,228.83 L1221.948,228.83 Z M1226.538,224.104999 L1223.712,224.104999 L1225.116,220.144999 L1225.143,220.144999 L1226.538,224.104999 Z M1234.782,228.83 L1234.782,216.445998 L1232.082,216.445998 L1232.082,228.83 L1234.782,228.83 Z M1238.157,219.892999 C1239.003,219.892999 1239.687,219.199998 1239.687,218.362998 C1239.687,217.516998 1238.994,216.823998 1238.157,216.823998 C1237.311,216.823998 1236.627,217.534998 1236.627,218.362998 C1236.627,219.199998 1237.311,219.892999 1238.157,219.892999 Z M1236.627,232.790001 C1238.634,232.790001 1239.48,231.476 1239.48,229.739 L1239.48,221.440999 L1236.78,221.440999 L1236.78,229.316 C1236.78,230.099 1236.528,230.531 1236.033,230.531 C1235.754,230.531 1235.547,230.459 1235.358,230.315 L1234.521,232.313001 C1234.872,232.529001 1235.556,232.790001 1236.627,232.790001 Z M1244.574,229.046 C1246.032,229.046 1246.959,228.011 1247.121,227.624 L1247.121,228.83 L1249.776,228.83 L1249.776,221.440999 L1247.094,221.440999 L1247.094,222.529999 C1246.851,222.034999 1245.978,221.224999 1244.574,221.224999 C1242.423,221.224999 1240.974,222.970999 1240.974,225.139999 C1240.974,227.309 1242.423,229.046 1244.574,229.046 Z M1245.366,226.931 C1244.412,226.931 1243.62,226.184 1243.62,225.139999 C1243.62,224.104999 1244.412,223.339999 1245.366,223.339999 C1246.374,223.339999 1247.085,224.122999 1247.085,225.139999 C1247.085,226.166 1246.374,226.931 1245.366,226.931 Z M1258.326,228.83 L1258.326,226.949 L1254.906,226.949 L1258.614,221.440999 L1251.324,221.440999 L1251.324,223.312999 L1254.447,223.312999 L1250.73,228.83 L1258.326,228.83 Z M1267.029,228.83 L1267.029,224.401999 L1268.667,224.401999 C1270.944,224.401999 1272.735,223.042999 1272.735,220.594999 C1272.735,218.146998 1270.944,216.949998 1268.667,216.949998 L1264.374,216.949998 L1264.374,228.83 L1267.029,228.83 Z M1267.929,222.304999 L1267.029,222.304999 L1267.029,219.046998 L1267.929,219.046998 C1269.027,219.046998 1269.9,219.460998 1269.9,220.657999 C1269.9,221.854999 1269.027,222.304999 1267.929,222.304999 Z M1276.767,228.83 L1276.767,225.112999 C1276.767,224.392999 1277.253,223.393999 1278.369,223.393999 C1279.008,223.393999 1279.449,223.672999 1279.611,223.879999 L1280.655,221.683999 C1280.394,221.485999 1279.773,221.224999 1279.089,221.224999 C1277.739,221.224999 1276.992,222.034999 1276.767,222.484999 L1276.767,221.440999 L1274.076,221.440999 L1274.076,228.83 L1276.767,228.83 Z M1282.878,219.892999 C1283.733,219.892999 1284.426,219.199998 1284.426,218.362998 C1284.426,217.516998 1283.715,216.823998 1282.878,216.823998 C1282.041,216.823998 1281.357,217.534998 1281.357,218.362998 C1281.357,219.199998 1282.041,219.892999 1282.878,219.892999 Z M1284.192,228.83 L1284.192,221.440999 L1281.501,221.440999 L1281.501,228.83 L1284.192,228.83 Z M1288.773,228.83 L1288.773,224.896999 C1288.773,223.816999 1289.331,223.159999 1290.177,223.159999 C1291.041,223.159999 1291.347,223.852999 1291.347,224.896999 L1291.347,228.83 L1293.822,228.83 L1293.822,224.896999 C1293.822,223.834999 1294.38,223.159999 1295.226,223.159999 C1296.162,223.159999 1296.396,223.852999 1296.396,224.896999 L1296.396,228.83 L1299.051,228.83 L1299.051,224.491999 C1299.051,222.232999 1297.89,221.224999 1296.216,221.224999 C1294.902,221.224999 1293.813,221.989999 1293.57,222.646999 C1293.228,221.890999 1292.607,221.224999 1291.302,221.224999 C1290.078,221.224999 1288.989,221.944999 1288.773,222.493999 L1288.773,221.440999 L1286.1,221.440999 L1286.1,228.83 L1288.773,228.83 Z M1304.406,229.046 C1306.827,229.046 1308.519,227.417 1308.519,225.157999 C1308.519,222.898999 1306.827,221.224999 1304.406,221.224999 C1301.994,221.224999 1300.248,222.898999 1300.248,225.157999 C1300.248,227.417 1301.994,229.046 1304.406,229.046 Z M1304.406,226.823 C1303.452,226.823 1302.831,226.139 1302.831,225.148999 C1302.831,224.158999 1303.452,223.447999 1304.406,223.447999 C1305.36,223.447999 1305.972,224.158999 1305.972,225.148999 C1305.972,226.139 1305.36,226.823 1304.406,226.823 Z M1316.745,228.83 L1316.745,226.949 L1313.325,226.949 L1317.033,221.440999 L1309.743,221.440999 L1309.743,223.312999 L1312.866,223.312999 L1309.149,228.83 L1316.745,228.83 Z M1319.49,219.892999 C1320.345,219.892999 1321.038,219.199998 1321.038,218.362998 C1321.038,217.516998 1320.327,216.823998 1319.49,216.823998 C1318.653,216.823998 1317.969,217.534998 1317.969,218.362998 C1317.969,219.199998 1318.653,219.892999 1319.49,219.892999 Z M1320.804,228.83 L1320.804,221.440999 L1318.113,221.440999 L1318.113,228.83 L1320.804,228.83 Z M1326.672,229.046 C1328.013,229.046 1328.958,228.533 1329.246,228.299 L1328.004,226.463 C1327.851,226.607 1327.392,226.931 1326.699,226.931 C1325.799,226.931 1324.998,226.175 1324.998,225.130999 C1324.998,224.086999 1325.799,223.339999 1326.699,223.339999 C1327.419,223.339999 1327.86,223.708999 1327.986,223.825999 L1329.246,221.989999 C1328.958,221.737999 1327.986,221.224999 1326.672,221.224999 C1324.134,221.224999 1322.424,222.736999 1322.424,225.130999 C1322.424,227.516 1324.134,229.046 1326.672,229.046 Z M1338.3,229.046 C1339.524,229.046 1340.487,228.587 1340.622,228.47 L1339.704,226.553 C1339.659,226.616 1339.398,226.805 1339.074,226.805 C1338.597,226.805 1338.435,226.391 1338.435,225.769999 L1338.435,223.663999 L1340.1,223.663999 L1340.1,221.440999 L1338.435,221.440999 L1338.435,218.407998 L1335.771,218.407998 L1335.771,221.440999 L1334.502,221.440999 L1334.502,223.663999 L1335.771,223.663999 L1335.771,226.499 C1335.771,228.236 1336.824,229.046 1338.3,229.046 Z M1344.294,228.83 L1344.294,224.860999 C1344.294,223.852999 1345.095,223.150999 1345.923,223.150999 C1346.742,223.150999 1347.255,223.699999 1347.255,224.761999 L1347.255,228.83 L1349.964,228.83 L1349.964,224.320999 C1349.964,222.115999 1348.308,221.224999 1346.76,221.224999 C1345.527,221.224999 1344.483,221.944999 1344.294,222.538999 L1344.294,216.445998 L1341.594,216.445998 L1341.594,228.83 L1344.294,228.83 Z M1355.418,229.046 C1357.452,229.046 1358.343,228.542 1358.802,228.056 L1357.749,226.364 C1357.398,226.706 1356.633,227.075 1355.598,227.075 C1354.491,227.075 1353.825,226.427 1353.762,225.616999 L1359.117,225.616999 C1359.135,225.535999 1359.135,225.238999 1359.135,225.130999 C1359.135,222.556999 1357.614,221.224999 1355.202,221.224999 C1352.655,221.224999 1351.188,222.898999 1351.188,225.049999 C1351.188,227.642 1352.961,229.046 1355.418,229.046 Z M1356.57,224.419999 L1353.825,224.419999 C1353.861,223.609999 1354.338,223.015999 1355.238,223.015999 C1356.147,223.015999 1356.543,223.663999 1356.57,224.419999 Z M1367.604,228.83 L1367.604,226.508 L1363.284,226.508 L1363.284,216.949998 L1360.629,216.949998 L1360.629,228.83 L1367.604,228.83 Z M1370.835,219.892999 C1371.69,219.892999 1372.383,219.199998 1372.383,218.362998 C1372.383,217.516998 1371.672,216.823998 1370.835,216.823998 C1369.998,216.823998 1369.314,217.534998 1369.314,218.362998 C1369.314,219.199998 1369.998,219.892999 1370.835,219.892999 Z M1372.149,228.83 L1372.149,221.440999 L1369.458,221.440999 L1369.458,228.83 L1372.149,228.83 Z M1377.405,228.83 L1377.405,223.663999 L1379.241,223.663999 L1379.241,221.440999 L1377.405,221.440999 L1377.405,219.721999 C1377.405,218.740998 1377.837,218.515998 1378.233,218.515998 C1378.629,218.515998 1378.872,218.767998 1378.935,218.848998 L1379.97,216.877998 C1379.799,216.706998 1379.151,216.229998 1377.864,216.229998 C1376.289,216.229998 1374.714,217.327998 1374.714,219.487998 L1374.714,221.440999 L1373.481,221.440999 L1373.481,223.663999 L1374.714,223.663999 L1374.714,228.83 L1377.405,228.83 Z M1383.561,229.046 C1384.785,229.046 1385.748,228.587 1385.883,228.47 L1384.965,226.553 C1384.92,226.616 1384.659,226.805 1384.335,226.805 C1383.858,226.805 1383.696,226.391 1383.696,225.769999 L1383.696,223.663999 L1385.361,223.663999 L1385.361,221.440999 L1383.696,221.440999 L1383.696,218.407998 L1381.032,218.407998 L1381.032,221.440999 L1379.763,221.440999 L1379.763,223.663999 L1381.032,223.663999 L1381.032,226.499 C1381.032,228.236 1382.085,229.046 1383.561,229.046 Z M1389.546,228.83 L1389.546,219.757999 L1394.199,228.83 L1397.835,228.83 L1397.835,216.949998 L1395.189,216.949998 L1395.189,225.977 L1390.518,216.949998 L1386.9,216.949998 L1386.9,228.83 L1389.546,228.83 Z M1403.712,229.046 C1405.746,229.046 1406.637,228.542 1407.096,228.056 L1406.043,226.364 C1405.692,226.706 1404.927,227.075 1403.892,227.075 C1402.785,227.075 1402.119,226.427 1402.056,225.616999 L1407.411,225.616999 C1407.429,225.535999 1407.429,225.238999 1407.429,225.130999 C1407.429,222.556999 1405.908,221.224999 1403.496,221.224999 C1400.949,221.224999 1399.482,222.898999 1399.482,225.049999 C1399.482,227.642 1401.255,229.046 1403.712,229.046 Z M1404.864,224.419999 L1402.119,224.419999 C1402.155,223.609999 1402.632,223.015999 1403.532,223.015999 C1404.441,223.015999 1404.837,223.663999 1404.864,224.419999 Z M1411.479,229.046 C1413.09,229.046 1415.115,228.542 1415.115,226.49 C1415.115,224.968999 1413.801,224.473999 1412.712,224.248999 C1411.875,224.077999 1411.416,223.870999 1411.416,223.492999 C1411.416,223.123999 1411.875,222.943999 1412.46,222.943999 C1413.216,222.943999 1413.9,223.285999 1414.125,223.465999 L1415.007,221.872999 C1414.764,221.683999 1413.576,221.224999 1412.154,221.224999 C1410.435,221.224999 1408.851,221.962999 1408.851,223.420999 C1408.851,224.959999 1410.219,225.508999 1411.182,225.715999 C1411.965,225.887 1412.46,226.067 1412.46,226.499 C1412.46,226.895 1412.001,227.147 1411.236,227.147 C1410.435,227.147 1409.652,226.724 1409.337,226.454 L1408.473,228.227 C1408.77,228.47 1409.796,229.046 1411.479,229.046 Z M1419.75,229.046 C1420.974,229.046 1421.937,228.587 1422.072,228.47 L1421.154,226.553 C1421.109,226.616 1420.848,226.805 1420.524,226.805 C1420.047,226.805 1419.885,226.391 1419.885,225.769999 L1419.885,223.663999 L1421.55,223.663999 L1421.55,221.440999 L1419.885,221.440999 L1419.885,218.407998 L1417.221,218.407998 L1417.221,221.440999 L1415.952,221.440999 L1415.952,223.663999 L1417.221,223.663999 L1417.221,226.499 C1417.221,228.236 1418.274,229.046 1419.75,229.046 Z M1433.556,229.046 C1437.111,229.046 1439.649,226.346 1439.649,222.943999 L1439.649,222.196999 L1433.403,222.196999 L1433.403,224.221999 L1436.535,224.221999 C1436.175,225.535999 1435.041,226.553 1433.556,226.553 C1431.585,226.553 1430.226,224.887999 1430.226,222.880999 C1430.226,220.882999 1431.585,219.208998 1433.556,219.208998 C1434.663,219.208998 1435.599,219.739999 1436.175,220.567999 L1438.29,218.956998 C1437.192,217.597998 1435.509,216.733998 1433.556,216.733998 C1430.1,216.733998 1427.463,219.460998 1427.463,222.880999 C1427.463,226.31 1429.92,229.046 1433.556,229.046 Z M1446.435,229.046 C1448.577,229.046 1449.963,227.309 1449.963,225.139999 C1449.963,222.970999 1448.577,221.224999 1446.435,221.224999 C1445.013,221.224999 1444.014,222.025999 1443.852,222.529999 L1443.852,216.445998 L1441.161,216.445998 L1441.161,228.83 L1443.825,228.83 L1443.825,227.624 C1444.185,228.299 1445.229,229.046 1446.435,229.046 Z M1445.616,226.931 C1444.608,226.931 1443.852,226.166 1443.852,225.139999 C1443.852,224.122999 1444.608,223.339999 1445.616,223.339999 C1446.57,223.339999 1447.317,224.104999 1447.317,225.139999 C1447.317,226.184 1446.57,226.931 1445.616,226.931 Z M1453.833,228.83 L1453.833,224.104999 L1454.517,224.104999 L1457.1,228.83 L1460.079,228.83 L1457.19,223.897999 C1458.144,223.762999 1459.593,222.817999 1459.593,220.567999 C1459.593,218.299998 1458.063,216.949998 1456.002,216.949998 L1451.178,216.949998 L1451.178,228.83 L1453.833,228.83 Z M1455.048,222.259999 L1453.833,222.259999 L1453.833,219.046998 L1455.066,219.046998 C1456.038,219.046998 1456.866,219.442998 1456.866,220.648999 C1456.866,221.854999 1456.011,222.259999 1455.048,222.259999 Z M1020.474,257.66 L1020.474,252.862999 L1024.353,252.862999 L1024.353,250.549999 L1020.474,250.549999 L1020.474,248.101998 L1024.668,248.101998 L1024.668,245.779998 L1017.828,245.779998 L1017.828,257.66 L1020.474,257.66 Z M1028.853,257.66 L1028.853,253.942999 C1028.853,253.222999 1029.339,252.223999 1030.455,252.223999 C1031.094,252.223999 1031.535,252.502999 1031.697,252.709999 L1032.741,250.513999 C1032.48,250.315999 1031.859,250.054999 1031.175,250.054999 C1029.825,250.054999 1029.078,250.864999 1028.853,251.314999 L1028.853,250.270999 L1026.162,250.270999 L1026.162,257.66 L1028.853,257.66 Z M1036.683,257.876 C1038.141,257.876 1039.068,256.841 1039.23,256.454 L1039.23,257.66 L1041.885,257.66 L1041.885,250.270999 L1039.203,250.270999 L1039.203,251.359999 C1038.96,250.864999 1038.087,250.054999 1036.683,250.054999 C1034.532,250.054999 1033.083,251.800999 1033.083,253.969999 C1033.083,256.139 1034.532,257.876 1036.683,257.876 Z M1037.475,255.761 C1036.521,255.761 1035.729,255.014 1035.729,253.969999 C1035.729,252.934999 1036.521,252.169999 1037.475,252.169999 C1038.483,252.169999 1039.194,252.952999 1039.194,253.969999 C1039.194,254.996 1038.483,255.761 1037.475,255.761 Z M1046.223,257.66 L1046.223,253.690999 C1046.223,252.682999 1046.979,251.980999 1047.798,251.980999 C1048.626,251.980999 1049.184,252.529999 1049.184,253.591999 L1049.184,257.66 L1051.884,257.66 L1051.884,253.150999 C1051.884,250.945999 1050.237,250.054999 1048.689,250.054999 C1047.465,250.054999 1046.421,250.774999 1046.223,251.368999 L1046.223,250.270999 L1043.532,250.270999 L1043.532,257.66 L1046.223,257.66 Z M1055.934,257.66 L1055.934,254.681 L1058.805,257.66 L1061.928,257.66 L1058.076,253.798999 L1061.577,250.270999 L1058.517,250.270999 L1055.934,252.853999 L1055.934,245.275998 L1053.234,245.275998 L1053.234,257.66 L1055.934,257.66 Z M1065.357,257.66 L1065.357,245.275998 L1062.657,245.275998 L1062.657,257.66 L1065.357,257.66 Z M1068.606,248.722999 C1069.461,248.722999 1070.154,248.029998 1070.154,247.192998 C1070.154,246.346998 1069.443,245.653998 1068.606,245.653998 C1067.769,245.653998 1067.085,246.364998 1067.085,247.192998 C1067.085,248.029998 1067.769,248.722999 1068.606,248.722999 Z M1069.92,257.66 L1069.92,250.270999 L1067.229,250.270999 L1067.229,257.66 L1069.92,257.66 Z M1074.411,257.66 L1074.411,253.690999 C1074.411,252.682999 1075.167,251.980999 1075.986,251.980999 C1076.814,251.980999 1077.372,252.529999 1077.372,253.591999 L1077.372,257.66 L1080.072,257.66 L1080.072,253.150999 C1080.072,250.945999 1078.425,250.054999 1076.877,250.054999 C1075.653,250.054999 1074.609,250.774999 1074.411,251.368999 L1074.411,250.270999 L1071.72,250.270999 L1071.72,257.66 L1074.411,257.66 Z M1084.302,257.876 C1085.913,257.876 1087.938,257.372 1087.938,255.32 C1087.938,253.798999 1086.624,253.303999 1085.535,253.078999 C1084.698,252.907999 1084.239,252.700999 1084.239,252.322999 C1084.239,251.953999 1084.698,251.773999 1085.283,251.773999 C1086.039,251.773999 1086.723,252.115999 1086.948,252.295999 L1087.83,250.702999 C1087.587,250.513999 1086.399,250.054999 1084.977,250.054999 C1083.258,250.054999 1081.674,250.792999 1081.674,252.250999 C1081.674,253.789999 1083.042,254.338999 1084.005,254.545999 C1084.788,254.717 1085.283,254.897 1085.283,255.329 C1085.283,255.725 1084.824,255.977 1084.059,255.977 C1083.258,255.977 1082.475,255.554 1082.16,255.284 L1081.296,257.057 C1081.593,257.3 1082.619,257.876 1084.302,257.876 Z M1092.573,257.876 C1093.797,257.876 1094.76,257.417 1094.895,257.3 L1093.977,255.383 C1093.932,255.446 1093.671,255.635 1093.347,255.635 C1092.87,255.635 1092.708,255.221 1092.708,254.599999 L1092.708,252.493999 L1094.373,252.493999 L1094.373,250.270999 L1092.708,250.270999 L1092.708,247.237998 L1090.044,247.237998 L1090.044,250.270999 L1088.775,250.270999 L1088.775,252.493999 L1090.044,252.493999 L1090.044,255.329 C1090.044,257.066 1091.097,257.876 1092.573,257.876 Z M1098.387,257.66 L1098.387,253.942999 C1098.387,253.222999 1098.873,252.223999 1099.989,252.223999 C1100.628,252.223999 1101.069,252.502999 1101.231,252.709999 L1102.275,250.513999 C1102.014,250.315999 1101.393,250.054999 1100.709,250.054999 C1099.359,250.054999 1098.612,250.864999 1098.387,251.314999 L1098.387,250.270999 L1095.696,250.270999 L1095.696,257.66 L1098.387,257.66 Z M1104.858,257.876 C1105.758,257.876 1106.487,257.147 1106.487,256.256 C1106.487,255.356 1105.758,254.627 1104.858,254.627 C1103.967,254.627 1103.247,255.356 1103.247,256.256 C1103.247,257.147 1103.967,257.876 1104.858,257.876 Z M1121.697,257.66 L1121.697,255.347 L1117.197,255.347 C1117.485,255.167 1121.796,252.502999 1121.796,249.406999 C1121.796,247.723998 1120.842,245.563998 1117.512,245.563998 C1113.885,245.563998 1112.823,248.416998 1112.76,248.776999 L1115.028,249.820999 C1115.073,249.676999 1115.91,247.813998 1117.512,247.813998 C1118.547,247.813998 1119.132,248.236998 1119.132,249.370999 C1119.132,251.521999 1113.75,255.131 1113.201,255.554 L1113.201,257.66 L1121.697,257.66 Z M1127.331,257.876 C1129.869,257.876 1131.687,256.184 1131.67803,253.546999 C1131.67803,250.936999 1129.887,249.802999 1128.141,249.802999 C1127.124,249.802999 1126.413,250.243999 1126.323,250.378999 L1126.701,248.092998 L1131.129,248.092998 L1131.129,245.779998 L1124.478,245.779998 L1123.416,252.124999 L1125.621,252.916999 C1125.792,252.538999 1126.368,251.926999 1127.349,251.926999 C1128.375,251.926999 1129.005,252.592999 1129.014,253.699999 C1129.014,254.87 1128.357,255.653 1127.232,255.653 C1126.116,255.653 1125.594,254.987 1125.387,254.338999 L1123.11,255.347 C1123.533,256.49 1124.766,257.876 1127.331,257.876 Z M1022.211,286.706 C1024.758,286.706 1027.017,284.951 1027.017,280.558999 C1027.017,276.436998 1024.758,274.393998 1022.211,274.393998 C1019.691,274.393998 1017.396,276.436998 1017.396,280.558999 C1017.396,284.951 1019.691,286.706 1022.211,286.706 Z M1022.211,284.366 C1020.897,284.366 1020.06,283.150999 1020.06,280.558999 C1020.06,278.128999 1020.897,276.733998 1022.211,276.733998 C1023.534,276.733998 1024.362,278.128999 1024.362,280.558999 C1024.362,283.141999 1023.534,284.366 1022.211,284.366 Z M1032.444,286.49 L1032.444,274.609998 L1031.193,274.609998 L1027.899,276.445998 L1027.899,278.965999 L1029.798,277.966999 L1029.798,286.49 L1032.444,286.49 Z M1038.771,286.706 C1041.318,286.706 1043.577,284.951 1043.577,280.558999 C1043.577,276.436998 1041.318,274.393998 1038.771,274.393998 C1036.251,274.393998 1033.956,276.436998 1033.956,280.558999 C1033.956,284.951 1036.251,286.706 1038.771,286.706 Z M1038.771,284.366 C1037.457,284.366 1036.62,283.150999 1036.62,280.558999 C1036.62,278.128999 1037.457,276.733998 1038.771,276.733998 C1040.094,276.733998 1040.922,278.128999 1040.922,280.558999 C1040.922,283.141999 1040.094,284.366 1038.771,284.366 Z M1049.148,286.706 C1051.578,286.706 1053.558,284.969 1053.558,282.538999 C1053.558,280.090999 1051.668,278.578999 1049.805,278.578999 C1049.202,278.578999 1048.842,278.749999 1048.689,278.902999 L1052.361,274.609998 L1049.256,274.609998 L1046.286,278.245999 C1045.476,279.226999 1044.72,280.486999 1044.72,282.439999 C1044.72,285.104 1046.691,286.706 1049.148,286.706 Z M1049.148,284.537 C1048.086,284.537 1047.222,283.682 1047.222,282.619999 C1047.222,281.566999 1048.086,280.702999 1049.148,280.702999 C1050.201,280.702999 1051.056,281.566999 1051.056,282.619999 C1051.056,283.682 1050.201,284.537 1049.148,284.537 Z M1059.084,286.49 L1062.054,282.853999 C1062.864,281.872999 1063.611,280.612999 1063.611,278.659999 C1063.611,275.995998 1061.649,274.393998 1059.192,274.393998 C1056.762,274.393998 1054.782,276.130998 1054.782,278.560999 C1054.782,281.008999 1056.672,282.520999 1058.535,282.520999 C1059.138,282.520999 1059.498,282.349999 1059.651,282.196999 L1055.979,286.49 L1059.084,286.49 Z M1059.192,280.396999 C1058.139,280.396999 1057.284,279.532999 1057.284,278.479999 C1057.284,277.417999 1058.139,276.562998 1059.192,276.562998 C1060.254,276.562998 1061.118,277.417999 1061.118,278.479999 C1061.118,279.532999 1060.254,280.396999 1059.192,280.396999 Z M1066.176,289.181 C1067.445,288.479 1068.579,286.886 1068.579,285.302 C1068.579,284.096 1067.832,283.457 1066.932,283.457 C1066.041,283.457 1065.312,284.177 1065.312,285.086 C1065.312,286.04 1065.987,286.634 1066.707,286.634 C1066.932,286.634 1067.076,286.607 1067.202,286.535 C1066.959,287.336 1066.068,288.047 1065.456,288.371 L1066.176,289.181 Z M1078.767,286.49 C1082.556,286.49 1084.401,284.015 1084.401,280.540999 C1084.401,277.084998 1082.556,274.609998 1078.767,274.609998 L1075.221,274.609998 L1075.221,286.49 L1078.767,286.49 Z M1078.524,284.132 L1077.858,284.132 L1077.858,276.967998 L1078.524,276.967998 C1080.585,276.967998 1081.593,278.506999 1081.584,280.558999 C1081.575,282.610999 1080.576,284.132 1078.524,284.132 Z M1088.46,286.49 L1088.46,282.772999 C1088.46,282.052999 1088.946,281.053999 1090.062,281.053999 C1090.701,281.053999 1091.142,281.332999 1091.304,281.539999 L1092.348,279.343999 C1092.087,279.145999 1091.466,278.884999 1090.782,278.884999 C1089.432,278.884999 1088.685,279.694999 1088.46,280.144999 L1088.46,279.100999 L1085.769,279.100999 L1085.769,286.49 L1088.46,286.49 Z M1096.92,286.706 C1098.954,286.706 1099.845,286.202 1100.304,285.716 L1099.251,284.024 C1098.9,284.366 1098.135,284.735 1097.1,284.735 C1095.993,284.735 1095.327,284.087 1095.264,283.276999 L1100.619,283.276999 C1100.637,283.195999 1100.637,282.898999 1100.637,282.790999 C1100.637,280.216999 1099.116,278.884999 1096.704,278.884999 C1094.157,278.884999 1092.69,280.558999 1092.69,282.709999 C1092.69,285.302 1094.463,286.706 1096.92,286.706 Z M1098.072,282.079999 L1095.327,282.079999 C1095.363,281.269999 1095.84,280.675999 1096.74,280.675999 C1097.649,280.675999 1098.045,281.323999 1098.072,282.079999 Z M1104.687,286.706 C1106.298,286.706 1108.323,286.202 1108.323,284.15 C1108.323,282.628999 1107.009,282.133999 1105.92,281.908999 C1105.083,281.737999 1104.624,281.530999 1104.624,281.152999 C1104.624,280.783999 1105.083,280.603999 1105.668,280.603999 C1106.424,280.603999 1107.108,280.945999 1107.333,281.125999 L1108.215,279.532999 C1107.972,279.343999 1106.784,278.884999 1105.362,278.884999 C1103.643,278.884999 1102.059,279.622999 1102.059,281.080999 C1102.059,282.619999 1103.427,283.168999 1104.39,283.375999 C1105.173,283.547 1105.668,283.727 1105.668,284.159 C1105.668,284.555 1105.209,284.807 1104.444,284.807 C1103.643,284.807 1102.86,284.384 1102.545,284.114 L1101.681,285.887 C1101.978,286.13 1103.004,286.706 1104.687,286.706 Z M1112.958,286.706 C1114.164,286.706 1115.208,285.959 1115.559,285.284 L1115.559,286.49 L1118.232,286.49 L1118.232,274.105998 L1115.532,274.105998 L1115.532,280.189999 C1115.379,279.685999 1114.38,278.884999 1112.958,278.884999 C1110.816,278.884999 1109.43,280.630999 1109.43,282.799999 C1109.43,284.969 1110.816,286.706 1112.958,286.706 Z M1113.777,284.591 C1112.823,284.591 1112.067,283.844 1112.067,282.799999 C1112.067,281.764999 1112.823,280.999999 1113.777,280.999999 C1114.776,280.999999 1115.532,281.782999 1115.532,282.799999 C1115.532,283.826 1114.776,284.591 1113.777,284.591 Z M1123.641,286.706 C1125.675,286.706 1126.566,286.202 1127.025,285.716 L1125.972,284.024 C1125.621,284.366 1124.856,284.735 1123.821,284.735 C1122.714,284.735 1122.048,284.087 1121.985,283.276999 L1127.34,283.276999 C1127.358,283.195999 1127.358,282.898999 1127.358,282.790999 C1127.358,280.216999 1125.837,278.884999 1123.425,278.884999 C1120.878,278.884999 1119.411,280.558999 1119.411,282.709999 C1119.411,285.302 1121.184,286.706 1123.641,286.706 Z M1124.793,282.079999 L1122.048,282.079999 C1122.084,281.269999 1122.561,280.675999 1123.461,280.675999 C1124.37,280.675999 1124.766,281.323999 1124.793,282.079999 Z M1131.372,286.49 L1131.372,282.520999 C1131.372,281.512999 1132.128,280.810999 1132.947,280.810999 C1133.775,280.810999 1134.333,281.359999 1134.333,282.421999 L1134.333,286.49 L1137.033,286.49 L1137.033,281.980999 C1137.033,279.775999 1135.386,278.884999 1133.838,278.884999 C1132.614,278.884999 1131.57,279.604999 1131.372,280.198999 L1131.372,279.100999 L1128.681,279.100999 L1128.681,286.49 L1131.372,286.49 Z M1139.589,289.181 C1140.858,288.479 1141.992,286.886 1141.992,285.302 C1141.992,284.096 1141.245,283.457 1140.345,283.457 C1139.454,283.457 1138.725,284.177 1138.725,285.086 C1138.725,286.04 1139.4,286.634 1140.12,286.634 C1140.345,286.634 1140.489,286.607 1140.615,286.535 C1140.372,287.336 1139.481,288.047 1138.869,288.371 L1139.589,289.181 Z M1152.18,286.49 C1155.969,286.49 1157.814,284.015 1157.814,280.540999 C1157.814,277.084998 1155.969,274.609998 1152.18,274.609998 L1148.634,274.609998 L1148.634,286.49 L1152.18,286.49 Z M1151.937,284.132 L1151.271,284.132 L1151.271,276.967998 L1151.937,276.967998 C1153.998,276.967998 1155.006,278.506999 1154.997,280.558999 C1154.988,282.610999 1153.989,284.132 1151.937,284.132 Z M1163.223,286.706 C1165.257,286.706 1166.148,286.202 1166.607,285.716 L1165.554,284.024 C1165.203,284.366 1164.438,284.735 1163.403,284.735 C1162.296,284.735 1161.63,284.087 1161.567,283.276999 L1166.922,283.276999 C1166.94,283.195999 1166.94,282.898999 1166.94,282.790999 C1166.94,280.216999 1165.419,278.884999 1163.007,278.884999 C1160.46,278.884999 1158.993,280.558999 1158.993,282.709999 C1158.993,285.302 1160.766,286.706 1163.223,286.706 Z M1164.375,282.079999 L1161.63,282.079999 C1161.666,281.269999 1162.143,280.675999 1163.043,280.675999 C1163.952,280.675999 1164.348,281.323999 1164.375,282.079999 Z M1172.394,286.706 C1175.031,286.706 1176.525,285.185 1176.525,282.817999 L1176.525,279.100999 L1173.87,279.100999 L1173.87,282.529999 C1173.87,283.727 1173.465,284.483 1172.394,284.483 C1171.332,284.483 1170.918,283.727 1170.918,282.529999 L1170.918,279.100999 L1168.263,279.100999 L1168.263,282.817999 C1168.263,285.185 1169.766,286.706 1172.394,286.706 Z M1181.376,286.706 C1182.6,286.706 1183.563,286.247 1183.698,286.13 L1182.78,284.213 C1182.735,284.276 1182.474,284.465 1182.15,284.465 C1181.673,284.465 1181.511,284.051 1181.511,283.429999 L1181.511,281.323999 L1183.176,281.323999 L1183.176,279.100999 L1181.511,279.100999 L1181.511,276.067998 L1178.847,276.067998 L1178.847,279.100999 L1177.578,279.100999 L1177.578,281.323999 L1178.847,281.323999 L1178.847,284.159 C1178.847,285.896 1179.9,286.706 1181.376,286.706 Z M1187.343,286.706 C1188.954,286.706 1190.979,286.202 1190.979,284.15 C1190.979,282.628999 1189.665,282.133999 1188.576,281.908999 C1187.739,281.737999 1187.28,281.530999 1187.28,281.152999 C1187.28,280.783999 1187.739,280.603999 1188.324,280.603999 C1189.08,280.603999 1189.764,280.945999 1189.989,281.125999 L1190.871,279.532999 C1190.628,279.343999 1189.44,278.884999 1188.018,278.884999 C1186.299,278.884999 1184.715,279.622999 1184.715,281.080999 C1184.715,282.619999 1186.083,283.168999 1187.046,283.375999 C1187.829,283.547 1188.324,283.727 1188.324,284.159 C1188.324,284.555 1187.865,284.807 1187.1,284.807 C1186.299,284.807 1185.516,284.384 1185.201,284.114 L1184.337,285.887 C1184.634,286.13 1185.66,286.706 1187.343,286.706 Z M1196.406,286.706 C1197.747,286.706 1198.692,286.193 1198.98,285.959 L1197.738,284.123 C1197.585,284.267 1197.126,284.591 1196.433,284.591 C1195.533,284.591 1194.732,283.835 1194.732,282.790999 C1194.732,281.746999 1195.533,280.999999 1196.433,280.999999 C1197.153,280.999999 1197.594,281.368999 1197.72,281.485999 L1198.98,279.649999 C1198.692,279.397999 1197.72,278.884999 1196.406,278.884999 C1193.868,278.884999 1192.158,280.396999 1192.158,282.790999 C1192.158,285.176 1193.868,286.706 1196.406,286.706 Z M1202.751,286.49 L1202.751,282.520999 C1202.751,281.512999 1203.552,280.810999 1204.38,280.810999 C1205.199,280.810999 1205.712,281.359999 1205.712,282.421999 L1205.712,286.49 L1208.421,286.49 L1208.421,281.980999 C1208.421,279.775999 1206.765,278.884999 1205.217,278.884999 C1203.984,278.884999 1202.94,279.604999 1202.751,280.198999 L1202.751,274.105998 L1200.051,274.105998 L1200.051,286.49 L1202.751,286.49 Z M1212.75,286.49 L1212.75,274.105998 L1210.05,274.105998 L1210.05,286.49 L1212.75,286.49 Z M1217.718,286.706 C1219.176,286.706 1220.103,285.671 1220.265,285.284 L1220.265,286.49 L1222.92,286.49 L1222.92,279.100999 L1220.238,279.100999 L1220.238,280.189999 C1219.995,279.694999 1219.122,278.884999 1217.718,278.884999 C1215.567,278.884999 1214.118,280.630999 1214.118,282.799999 C1214.118,284.969 1215.567,286.706 1217.718,286.706 Z M1218.51,284.591 C1217.556,284.591 1216.764,283.844 1216.764,282.799999 C1216.764,281.764999 1217.556,280.999999 1218.51,280.999999 C1219.518,280.999999 1220.229,281.782999 1220.229,282.799999 C1220.229,283.826 1219.518,284.591 1218.51,284.591 Z M1227.258,286.49 L1227.258,282.520999 C1227.258,281.512999 1228.014,280.810999 1228.833,280.810999 C1229.661,280.810999 1230.219,281.359999 1230.219,282.421999 L1230.219,286.49 L1232.919,286.49 L1232.919,281.980999 C1232.919,279.775999 1231.272,278.884999 1229.724,278.884999 C1228.5,278.884999 1227.456,279.604999 1227.258,280.198999 L1227.258,279.100999 L1224.567,279.100999 L1224.567,286.49 L1227.258,286.49 Z M1237.698,286.706 C1238.904,286.706 1239.948,285.959 1240.299,285.284 L1240.299,286.49 L1242.972,286.49 L1242.972,274.105998 L1240.272,274.105998 L1240.272,280.189999 C1240.119,279.685999 1239.12,278.884999 1237.698,278.884999 C1235.556,278.884999 1234.17,280.630999 1234.17,282.799999 C1234.17,284.969 1235.556,286.706 1237.698,286.706 Z M1238.517,284.591 C1237.563,284.591 1236.807,283.844 1236.807,282.799999 C1236.807,281.764999 1237.563,280.999999 1238.517,280.999999 C1239.516,280.999999 1240.272,281.782999 1240.272,282.799999 C1240.272,283.826 1239.516,284.591 1238.517,284.591 Z M1025.325,315.32 L1025.325,312.998 L1020.402,312.998 L1020.402,310.495999 L1025.271,310.495999 L1025.271,308.236999 L1020.402,308.236999 L1020.402,305.761998 L1025.325,305.761998 L1025.325,303.439998 L1017.756,303.439998 L1017.756,315.32 L1025.325,315.32 Z M1032.21,312.377 L1032.21,310.081999 L1027.575,310.081999 L1027.575,312.377 L1032.21,312.377 Z M1036.809,315.32 L1036.809,308.272999 L1036.692,306.310999 L1037.142,308.560999 L1039.158,314.375 L1041.759,314.375 L1043.784,308.560999 L1044.243,306.310999 L1044.126,308.272999 L1044.126,315.32 L1046.772,315.32 L1046.772,303.439998 L1043.046,303.439998 L1040.625,311.413999 L1040.463,312.341 L1040.301,311.413999 L1037.889,303.439998 L1034.163,303.439998 L1034.163,315.32 L1036.809,315.32 Z M1052.118,315.536 C1053.576,315.536 1054.503,314.501 1054.665,314.114 L1054.665,315.32 L1057.32,315.32 L1057.32,307.930999 L1054.638,307.930999 L1054.638,309.019999 C1054.395,308.524999 1053.522,307.714999 1052.118,307.714999 C1049.967,307.714999 1048.518,309.460999 1048.518,311.629999 C1048.518,313.799 1049.967,315.536 1052.118,315.536 Z M1052.91,313.421 C1051.956,313.421 1051.164,312.674 1051.164,311.629999 C1051.164,310.594999 1051.956,309.829999 1052.91,309.829999 C1053.918,309.829999 1054.629,310.612999 1054.629,311.629999 C1054.629,312.656 1053.918,313.421 1052.91,313.421 Z M1060.542,306.382999 C1061.397,306.382999 1062.09,305.689998 1062.09,304.852998 C1062.09,304.006998 1061.379,303.313998 1060.542,303.313998 C1059.705,303.313998 1059.021,304.024998 1059.021,304.852998 C1059.021,305.689998 1059.705,306.382999 1060.542,306.382999 Z M1061.856,315.32 L1061.856,307.930999 L1059.165,307.930999 L1059.165,315.32 L1061.856,315.32 Z M1066.455,315.32 L1066.455,302.935998 L1063.755,302.935998 L1063.755,315.32 L1066.455,315.32 Z M1073.061,312.377 L1073.061,310.081999 L1068.426,310.081999 L1068.426,312.377 L1073.061,312.377 Z M1077.021,315.32 L1077.912,312.917 L1082.493,312.917 L1083.366,315.32 L1086.192,315.32 L1081.512,303.439998 L1078.875,303.439998 L1074.186,315.32 L1077.021,315.32 Z M1081.611,310.594999 L1078.785,310.594999 L1080.189,306.634999 L1080.216,306.634999 L1081.611,310.594999 Z M1090.332,315.536 C1091.538,315.536 1092.582,314.789 1092.933,314.114 L1092.933,315.32 L1095.606,315.32 L1095.606,302.935998 L1092.906,302.935998 L1092.906,309.019999 C1092.753,308.515999 1091.754,307.714999 1090.332,307.714999 C1088.19,307.714999 1086.804,309.460999 1086.804,311.629999 C1086.804,313.799 1088.19,315.536 1090.332,315.536 Z M1091.151,313.421 C1090.197,313.421 1089.441,312.674 1089.441,311.629999 C1089.441,310.594999 1090.197,309.829999 1091.151,309.829999 C1092.15,309.829999 1092.906,310.612999 1092.906,311.629999 C1092.906,312.656 1092.15,313.421 1091.151,313.421 Z M1099.665,315.32 L1099.665,311.602999 C1099.665,310.882999 1100.151,309.883999 1101.267,309.883999 C1101.906,309.883999 1102.347,310.162999 1102.509,310.369999 L1103.553,308.173999 C1103.292,307.975999 1102.671,307.714999 1101.987,307.714999 C1100.637,307.714999 1099.89,308.524999 1099.665,308.974999 L1099.665,307.930999 L1096.974,307.930999 L1096.974,315.32 L1099.665,315.32 Z M1108.125,315.536 C1110.159,315.536 1111.05,315.032 1111.509,314.546 L1110.456,312.854 C1110.105,313.196 1109.34,313.565 1108.305,313.565 C1107.198,313.565 1106.532,312.917 1106.469,312.106999 L1111.824,312.106999 C1111.842,312.025999 1111.842,311.728999 1111.842,311.620999 C1111.842,309.046999 1110.321,307.714999 1107.909,307.714999 C1105.362,307.714999 1103.895,309.388999 1103.895,311.539999 C1103.895,314.132 1105.668,315.536 1108.125,315.536 Z M1109.277,310.909999 L1106.532,310.909999 C1106.568,310.099999 1107.045,309.505999 1107.945,309.505999 C1108.854,309.505999 1109.25,310.153999 1109.277,310.909999 Z M1115.892,315.536 C1117.503,315.536 1119.528,315.032 1119.528,312.98 C1119.528,311.458999 1118.214,310.963999 1117.125,310.738999 C1116.288,310.567999 1115.829,310.360999 1115.829,309.982999 C1115.829,309.613999 1116.288,309.433999 1116.873,309.433999 C1117.629,309.433999 1118.313,309.775999 1118.538,309.955999 L1119.42,308.362999 C1119.177,308.173999 1117.989,307.714999 1116.567,307.714999 C1114.848,307.714999 1113.264,308.452999 1113.264,309.910999 C1113.264,311.449999 1114.632,311.998999 1115.595,312.205999 C1116.378,312.377 1116.873,312.557 1116.873,312.989 C1116.873,313.385 1116.414,313.637 1115.649,313.637 C1114.848,313.637 1114.065,313.214 1113.75,312.944 L1112.886,314.717 C1113.183,314.96 1114.209,315.536 1115.892,315.536 Z M1123.614,315.536 C1125.225,315.536 1127.25,315.032 1127.25,312.98 C1127.25,311.458999 1125.936,310.963999 1124.847,310.738999 C1124.01,310.567999 1123.551,310.360999 1123.551,309.982999 C1123.551,309.613999 1124.01,309.433999 1124.595,309.433999 C1125.351,309.433999 1126.035,309.775999 1126.26,309.955999 L1127.142,308.362999 C1126.899,308.173999 1125.711,307.714999 1124.289,307.714999 C1122.57,307.714999 1120.986,308.452999 1120.986,309.910999 C1120.986,311.449999 1122.354,311.998999 1123.317,312.205999 C1124.1,312.377 1124.595,312.557 1124.595,312.989 C1124.595,313.385 1124.136,313.637 1123.371,313.637 C1122.57,313.637 1121.787,313.214 1121.472,312.944 L1120.608,314.717 C1120.905,314.96 1121.931,315.536 1123.614,315.536 Z M1132.533,315.536 C1134.567,315.536 1135.458,315.032 1135.917,314.546 L1134.864,312.854 C1134.513,313.196 1133.748,313.565 1132.713,313.565 C1131.606,313.565 1130.94,312.917 1130.877,312.106999 L1136.232,312.106999 C1136.25,312.025999 1136.25,311.728999 1136.25,311.620999 C1136.25,309.046999 1134.729,307.714999 1132.317,307.714999 C1129.77,307.714999 1128.303,309.388999 1128.303,311.539999 C1128.303,314.132 1130.076,315.536 1132.533,315.536 Z M1133.685,310.909999 L1130.94,310.909999 C1130.976,310.099999 1131.453,309.505999 1132.353,309.505999 C1133.262,309.505999 1133.658,310.153999 1133.685,310.909999 Z M1139.472,310.288999 C1140.372,310.288999 1141.101,309.568999 1141.101,308.668999 C1141.101,307.768999 1140.372,307.039999 1139.472,307.039999 C1138.581,307.039999 1137.861,307.768999 1137.861,308.668999 C1137.861,309.568999 1138.581,310.288999 1139.472,310.288999 Z M1139.472,315.536 C1140.372,315.536 1141.101,314.807 1141.101,313.916 C1141.101,313.016 1140.372,312.287 1139.472,312.287 C1138.581,312.287 1137.861,313.016 1137.861,313.916 C1137.861,314.807 1138.581,315.536 1139.472,315.536 Z M1149.984,315.32 L1149.984,312.341 L1152.855,315.32 L1155.978,315.32 L1152.126,311.458999 L1155.627,307.930999 L1152.567,307.930999 L1149.984,310.513999 L1149.984,302.935998 L1147.284,302.935998 L1147.284,315.32 L1149.984,315.32 Z M1160.46,315.536 C1162.881,315.536 1164.573,313.907 1164.573,311.647999 C1164.573,309.388999 1162.881,307.714999 1160.46,307.714999 C1158.048,307.714999 1156.302,309.388999 1156.302,311.647999 C1156.302,313.907 1158.048,315.536 1160.46,315.536 Z M1160.46,313.313 C1159.506,313.313 1158.885,312.629 1158.885,311.638999 C1158.885,310.648999 1159.506,309.937999 1160.46,309.937999 C1161.414,309.937999 1162.026,310.648999 1162.026,311.638999 C1162.026,312.629 1161.414,313.313 1160.46,313.313 Z M1168.587,315.32 L1168.587,311.350999 C1168.587,310.342999 1169.343,309.640999 1170.162,309.640999 C1170.99,309.640999 1171.548,310.189999 1171.548,311.251999 L1171.548,315.32 L1174.248,315.32 L1174.248,310.810999 C1174.248,308.605999 1172.601,307.714999 1171.053,307.714999 C1169.829,307.714999 1168.785,308.434999 1168.587,309.028999 L1168.587,307.930999 L1165.896,307.930999 L1165.896,315.32 L1168.587,315.32 Z M1179.027,315.536 C1180.251,315.536 1181.214,315.077 1181.349,314.96 L1180.431,313.043 C1180.386,313.106 1180.125,313.295 1179.801,313.295 C1179.324,313.295 1179.162,312.881 1179.162,312.259999 L1179.162,310.153999 L1180.827,310.153999 L1180.827,307.930999 L1179.162,307.930999 L1179.162,304.897998 L1176.498,304.897998 L1176.498,307.930999 L1175.229,307.930999 L1175.229,310.153999 L1176.498,310.153999 L1176.498,312.989 C1176.498,314.726 1177.551,315.536 1179.027,315.536 Z M1185.561,315.536 C1187.019,315.536 1187.946,314.501 1188.108,314.114 L1188.108,315.32 L1190.763,315.32 L1190.763,307.930999 L1188.081,307.930999 L1188.081,309.019999 C1187.838,308.524999 1186.965,307.714999 1185.561,307.714999 C1183.41,307.714999 1181.961,309.460999 1181.961,311.629999 C1181.961,313.799 1183.41,315.536 1185.561,315.536 Z M1186.353,313.421 C1185.399,313.421 1184.607,312.674 1184.607,311.629999 C1184.607,310.594999 1185.399,309.829999 1186.353,309.829999 C1187.361,309.829999 1188.072,310.612999 1188.072,311.629999 C1188.072,312.656 1187.361,313.421 1186.353,313.421 Z M1194.957,315.32 L1194.957,312.341 L1197.828,315.32 L1200.951,315.32 L1197.099,311.458999 L1200.6,307.930999 L1197.54,307.930999 L1194.957,310.513999 L1194.957,302.935998 L1192.257,302.935998 L1192.257,315.32 L1194.957,315.32 Z M1204.857,315.536 C1206.081,315.536 1207.044,315.077 1207.179,314.96 L1206.261,313.043 C1206.216,313.106 1205.955,313.295 1205.631,313.295 C1205.154,313.295 1204.992,312.881 1204.992,312.259999 L1204.992,310.153999 L1206.657,310.153999 L1206.657,307.930999 L1204.992,307.930999 L1204.992,304.897998 L1202.328,304.897998 L1202.328,307.930999 L1201.059,307.930999 L1201.059,310.153999 L1202.328,310.153999 L1202.328,312.989 C1202.328,314.726 1203.381,315.536 1204.857,315.536 Z M1214.199,315.536 C1216.467,315.536 1217.961,314.699 1218.456,314.06 L1216.773,312.629 C1216.458,313.025 1215.531,313.547 1214.199,313.547 C1211.787,313.547 1209.897,311.737999 1209.897,309.370999 C1209.897,306.994999 1211.904,305.059998 1214.37,305.059998 C1216.89,305.059998 1218.744,306.679999 1218.744,308.857999 C1218.744,309.928999 1218.348,310.405999 1217.781,310.405999 C1217.214,310.405999 1217.124,309.919999 1217.124,309.586999 L1217.124,306.751999 L1215.459,306.751999 L1215.459,307.336999 C1215.018,306.913999 1214.37,306.571999 1213.605,306.571999 C1212.012,306.571999 1210.878,307.777999 1210.878,309.397999 C1210.878,311.044999 1212.129,312.422 1213.812,312.422 C1215.297,312.422 1215.927,311.764999 1216.179,311.215999 C1216.413,311.692999 1216.971,312.115999 1217.772,312.115999 C1219.167,312.115999 1220.787,311.188999 1220.787,308.956999 C1220.787,305.554998 1217.736,303.223998 1214.37,303.223998 C1210.851,303.223998 1207.863,305.716998 1207.863,309.370999 C1207.863,313.034 1210.68,315.536 1214.199,315.536 Z M1214.262,310.657999 C1213.542,310.657999 1213.038,310.126999 1213.038,309.451999 C1213.038,308.776999 1213.56,308.263999 1214.262,308.263999 C1214.919,308.263999 1215.459,308.758999 1215.459,309.433999 C1215.459,310.108999 1214.982,310.657999 1214.262,310.657999 Z M1225.08,315.536 C1226.304,315.536 1227.267,315.077 1227.402,314.96 L1226.484,313.043 C1226.439,313.106 1226.178,313.295 1225.854,313.295 C1225.377,313.295 1225.215,312.881 1225.215,312.259999 L1225.215,310.153999 L1226.88,310.153999 L1226.88,307.930999 L1225.215,307.930999 L1225.215,304.897998 L1222.551,304.897998 L1222.551,307.930999 L1221.282,307.930999 L1221.282,310.153999 L1222.551,310.153999 L1222.551,312.989 C1222.551,314.726 1223.604,315.536 1225.08,315.536 Z M1231.074,315.32 L1231.074,311.350999 C1231.074,310.342999 1231.875,309.640999 1232.703,309.640999 C1233.522,309.640999 1234.035,310.189999 1234.035,311.251999 L1234.035,315.32 L1236.744,315.32 L1236.744,310.810999 C1236.744,308.605999 1235.088,307.714999 1233.54,307.714999 C1232.307,307.714999 1231.263,308.434999 1231.074,309.028999 L1231.074,302.935998 L1228.374,302.935998 L1228.374,315.32 L1231.074,315.32 Z M1242.198,315.536 C1244.232,315.536 1245.123,315.032 1245.582,314.546 L1244.529,312.854 C1244.178,313.196 1243.413,313.565 1242.378,313.565 C1241.271,313.565 1240.605,312.917 1240.542,312.106999 L1245.897,312.106999 C1245.915,312.025999 1245.915,311.728999 1245.915,311.620999 C1245.915,309.046999 1244.394,307.714999 1241.982,307.714999 C1239.435,307.714999 1237.968,309.388999 1237.968,311.539999 C1237.968,314.132 1239.741,315.536 1242.198,315.536 Z M1243.35,310.909999 L1240.605,310.909999 C1240.641,310.099999 1241.118,309.505999 1242.018,309.505999 C1242.927,309.505999 1243.323,310.153999 1243.35,310.909999 Z M1250.037,315.32 L1250.037,302.935998 L1247.337,302.935998 L1247.337,315.32 L1250.037,315.32 Z M1253.286,306.382999 C1254.141,306.382999 1254.834,305.689998 1254.834,304.852998 C1254.834,304.006998 1254.123,303.313998 1253.286,303.313998 C1252.449,303.313998 1251.765,304.024998 1251.765,304.852998 C1251.765,305.689998 1252.449,306.382999 1253.286,306.382999 Z M1254.6,315.32 L1254.6,307.930999 L1251.909,307.930999 L1251.909,315.32 L1254.6,315.32 Z M1259.856,315.32 L1259.856,310.153999 L1261.692,310.153999 L1261.692,307.930999 L1259.856,307.930999 L1259.856,306.211999 C1259.856,305.230998 1260.288,305.005998 1260.684,305.005998 C1261.08,305.005998 1261.323,305.257998 1261.386,305.338998 L1262.421,303.367998 C1262.25,303.196998 1261.602,302.719998 1260.315,302.719998 C1258.74,302.719998 1257.165,303.817998 1257.165,305.977998 L1257.165,307.930999 L1255.932,307.930999 L1255.932,310.153999 L1257.165,310.153999 L1257.165,315.32 L1259.856,315.32 Z M1266.012,315.536 C1267.236,315.536 1268.199,315.077 1268.334,314.96 L1267.416,313.043 C1267.371,313.106 1267.11,313.295 1266.786,313.295 C1266.309,313.295 1266.147,312.881 1266.147,312.259999 L1266.147,310.153999 L1267.812,310.153999 L1267.812,307.930999 L1266.147,307.930999 L1266.147,304.897998 L1263.483,304.897998 L1263.483,307.930999 L1262.214,307.930999 L1262.214,310.153999 L1263.483,310.153999 L1263.483,312.989 C1263.483,314.726 1264.536,315.536 1266.012,315.536 Z M1271.943,315.32 L1271.943,311.350999 C1271.943,310.342999 1272.699,309.640999 1273.518,309.640999 C1274.346,309.640999 1274.904,310.189999 1274.904,311.251999 L1274.904,315.32 L1277.604,315.32 L1277.604,310.810999 C1277.604,308.605999 1275.957,307.714999 1274.409,307.714999 C1273.185,307.714999 1272.141,308.434999 1271.943,309.028999 L1271.943,307.930999 L1269.252,307.930999 L1269.252,315.32 L1271.943,315.32 Z M1283.031,315.536 C1285.065,315.536 1285.956,315.032 1286.415,314.546 L1285.362,312.854 C1285.011,313.196 1284.246,313.565 1283.211,313.565 C1282.104,313.565 1281.438,312.917 1281.375,312.106999 L1286.73,312.106999 C1286.748,312.025999 1286.748,311.728999 1286.748,311.620999 C1286.748,309.046999 1285.227,307.714999 1282.815,307.714999 C1280.268,307.714999 1278.801,309.388999 1278.801,311.539999 C1278.801,314.132 1280.574,315.536 1283.031,315.536 Z M1284.183,310.909999 L1281.438,310.909999 C1281.474,310.099999 1281.951,309.505999 1282.851,309.505999 C1283.76,309.505999 1284.156,310.153999 1284.183,310.909999 Z M1290.798,315.536 C1292.409,315.536 1294.434,315.032 1294.434,312.98 C1294.434,311.458999 1293.12,310.963999 1292.031,310.738999 C1291.194,310.567999 1290.735,310.360999 1290.735,309.982999 C1290.735,309.613999 1291.194,309.433999 1291.779,309.433999 C1292.535,309.433999 1293.219,309.775999 1293.444,309.955999 L1294.326,308.362999 C1294.083,308.173999 1292.895,307.714999 1291.473,307.714999 C1289.754,307.714999 1288.17,308.452999 1288.17,309.910999 C1288.17,311.449999 1289.538,311.998999 1290.501,312.205999 C1291.284,312.377 1291.779,312.557 1291.779,312.989 C1291.779,313.385 1291.32,313.637 1290.555,313.637 C1289.754,313.637 1288.971,313.214 1288.656,312.944 L1287.792,314.717 C1288.089,314.96 1289.115,315.536 1290.798,315.536 Z M1299.069,315.536 C1300.293,315.536 1301.256,315.077 1301.391,314.96 L1300.473,313.043 C1300.428,313.106 1300.167,313.295 1299.843,313.295 C1299.366,313.295 1299.204,312.881 1299.204,312.259999 L1299.204,310.153999 L1300.869,310.153999 L1300.869,307.930999 L1299.204,307.930999 L1299.204,304.897998 L1296.54,304.897998 L1296.54,307.930999 L1295.271,307.930999 L1295.271,310.153999 L1296.54,310.153999 L1296.54,312.989 C1296.54,314.726 1297.593,315.536 1299.069,315.536 Z M1304.244,315.536 C1305.144,315.536 1305.873,314.807 1305.873,313.916 C1305.873,313.016 1305.144,312.287 1304.244,312.287 C1303.353,312.287 1302.633,313.016 1302.633,313.916 C1302.633,314.807 1303.353,315.536 1304.244,315.536 Z M1311.84,315.536 C1313.181,315.536 1314.126,315.023 1314.414,314.789 L1313.172,312.953 C1313.019,313.097 1312.56,313.421 1311.867,313.421 C1310.967,313.421 1310.166,312.665 1310.166,311.620999 C1310.166,310.576999 1310.967,309.829999 1311.867,309.829999 C1312.587,309.829999 1313.028,310.198999 1313.154,310.315999 L1314.414,308.479999 C1314.126,308.227999 1313.154,307.714999 1311.84,307.714999 C1309.302,307.714999 1307.592,309.226999 1307.592,311.620999 C1307.592,314.006 1309.302,315.536 1311.84,315.536 Z M1319.283,315.536 C1321.704,315.536 1323.396,313.907 1323.396,311.647999 C1323.396,309.388999 1321.704,307.714999 1319.283,307.714999 C1316.871,307.714999 1315.125,309.388999 1315.125,311.647999 C1315.125,313.907 1316.871,315.536 1319.283,315.536 Z M1319.283,313.313 C1318.329,313.313 1317.708,312.629 1317.708,311.638999 C1317.708,310.648999 1318.329,309.937999 1319.283,309.937999 C1320.237,309.937999 1320.849,310.648999 1320.849,311.638999 C1320.849,312.629 1320.237,313.313 1319.283,313.313 Z M1327.5,315.32 L1327.5,311.386999 C1327.5,310.306999 1328.058,309.649999 1328.904,309.649999 C1329.768,309.649999 1330.074,310.342999 1330.074,311.386999 L1330.074,315.32 L1332.549,315.32 L1332.549,311.386999 C1332.549,310.324999 1333.107,309.649999 1333.953,309.649999 C1334.889,309.649999 1335.123,310.342999 1335.123,311.386999 L1335.123,315.32 L1337.778,315.32 L1337.778,310.981999 C1337.778,308.722999 1336.617,307.714999 1334.943,307.714999 C1333.629,307.714999 1332.54,308.479999 1332.297,309.136999 C1331.955,308.380999 1331.334,307.714999 1330.029,307.714999 C1328.805,307.714999 1327.716,308.434999 1327.5,308.983999 L1327.5,307.930999 L1324.827,307.930999 L1324.827,315.32 L1327.5,315.32 Z" id="MarcusAschenbrenner&amp;AljazPrimozictheLiftNestGbRFranklinstr.2501069,Dresden,DeutschlandE-Mail-Adresse:kontakt@theliftnest.com"></path>
        </g>
    </g>
</svg>