<?xml version="1.0" encoding="UTF-8"?>
<svg width="408px" height="100px" viewBox="0 0 408 100" version="1.1" xmlns="http://www.w3.org/2000/svg" xmlns:xlink="http://www.w3.org/1999/xlink">
    <title>MarcusAschenbrenner&amp;AljazPrimozictheLiftNestGbRFranklinstr.2501069,Dresden,DeutschlandE-Mail-Adresse:kontakt@theliftnest.com</title>
    <g id="lg---1400" stroke="none" stroke-width="1" fill="none" fill-rule="evenodd">
        <g id="Artboard" transform="translate(-23.000000, -216.000000)" fill="#37374C" fill-rule="nonzero">
            <path d="M25.3040004,228.83 L25.3040004,219.946999 L25.2410004,218.767998 L25.5290004,220.054999 L28.5530009,228.209 L29.8580011,228.209 L32.8910016,220.054999 L33.1880017,218.767998 L33.1160017,219.946999 L33.1160017,228.83 L34.4300019,228.83 L34.4300019,216.949998 L32.7290016,216.949998 L29.318001,226.544 L29.210001,227.084 L29.102001,226.544 L25.7000004,216.949998 L23.9900002,216.949998 L23.9900002,228.83 L25.3040004,228.83 Z M40.1270007,229.046 C41.792001,229.046 42.8180011,227.813 42.9440011,227.345 L42.9440011,228.83 L44.2580014,228.83 L44.2580014,221.440999 L42.9350011,221.440999 L42.9350011,222.889999 C42.8090011,222.349999 41.7740009,221.224999 40.1270007,221.224999 C38.0930003,221.224999 36.4460001,222.745999 36.4460001,225.139999 C36.4460001,227.534 38.0930003,229.046 40.1270007,229.046 Z M40.3790007,227.912 C39.0470005,227.912 37.7690003,226.85 37.7690003,225.139999 C37.7690003,223.429999 39.0470005,222.358999 40.3790007,222.358999 C41.837001,222.358999 42.9080011,223.465999 42.9080011,225.139999 C42.9080011,226.823 41.837001,227.912 40.3790007,227.912 Z M47.7770004,228.83 L47.7770004,224.689999 C47.7770004,223.780999 48.5060005,222.376999 49.7210007,222.376999 C50.3330008,222.376999 50.7740009,222.592999 50.9360009,222.745999 L51.494001,221.629999 C51.287001,221.458999 50.7470009,221.224999 50.0540008,221.224999 C48.8030006,221.224999 47.9840004,222.088999 47.7770004,222.592999 L47.7770004,221.440999 L46.4540002,221.440999 L46.4540002,228.83 L47.7770004,228.83 Z M55.8950007,229.046 C57.2270009,229.046 58.1990011,228.479 58.3700011,228.335 L57.695001,227.345 C57.551001,227.48 56.9390009,227.912 55.9490007,227.912 C54.7340005,227.912 53.4470003,226.895 53.4470003,225.130999 C53.4470003,223.375999 54.7340005,222.358999 55.9490007,222.358999 C56.9480009,222.358999 57.506001,222.871999 57.659001,223.006999 L58.3340011,222.025999 C58.1270011,221.836999 57.2090009,221.224999 55.8950007,221.224999 C53.9690004,221.224999 52.1510001,222.583999 52.1510001,225.130999 C52.1510001,227.678 53.9690004,229.046 55.8950007,229.046 Z M63.3830007,229.046 C65.6060011,229.046 66.8570013,227.543 66.8570013,225.427999 L66.8570013,221.440999 L65.5340011,221.440999 L65.5340011,225.220999 C65.5340011,226.85 64.841001,227.876 63.3830007,227.876 C61.9340005,227.876 61.2410004,226.85 61.2410004,225.220999 L61.2410004,221.440999 L59.9180001,221.440999 L59.9180001,225.427999 C59.9180001,227.543 61.1690004,229.046 63.3830007,229.046 Z M71.2400005,229.046 C72.8060008,229.046 74.336001,228.398 74.336001,226.733 C74.336001,225.319999 73.2380008,224.851999 71.9960006,224.536999 C70.9340005,224.275999 70.2410004,223.924999 70.2410004,223.258999 C70.2410004,222.583999 70.9520005,222.214999 71.8430006,222.214999 C72.6260007,222.214999 73.2920009,222.565999 73.5530009,222.781999 L74.120001,221.908999 C73.7870009,221.647999 72.8330008,221.224999 71.7350006,221.224999 C70.2230003,221.224999 68.9270001,221.989999 68.9270001,223.222999 C68.9270001,224.545999 70.0700003,225.112999 71.2400005,225.391999 C72.1670007,225.616999 72.9770008,225.896 72.9770008,226.733 C72.9770008,227.489 72.2300007,227.993 71.1860005,227.993 C70.2590004,227.993 69.4940002,227.561 69.1880002,227.255 L68.6030001,228.236 C68.9630001,228.542 69.9260003,229.046 71.2400005,229.046 Z M81.3200003,228.83 L82.3910004,225.878 L87.5300013,225.878 L88.5830015,228.83 L89.9870017,228.83 L85.649001,216.949998 L84.2630008,216.949998 L79.907,228.83 L81.3200003,228.83 Z M87.1160012,224.671999 L82.8050005,224.671999 L84.9470009,218.578998 L84.9740009,218.578998 L87.1160012,224.671999 Z M93.4430005,229.046 C95.0090008,229.046 96.539001,228.398 96.539001,226.733 C96.539001,225.319999 95.4410008,224.851999 94.1990006,224.536999 C93.1370005,224.275999 92.4440004,223.924999 92.4440004,223.258999 C92.4440004,222.583999 93.1550005,222.214999 94.0460006,222.214999 C94.8290007,222.214999 95.4950009,222.565999 95.7560009,222.781999 L96.323001,221.908999 C95.9900009,221.647999 95.0360008,221.224999 93.9380006,221.224999 C92.4260003,221.224999 91.1300001,221.989999 91.1300001,223.222999 C91.1300001,224.545999 92.2730003,225.112999 93.4430005,225.391999 C94.3700007,225.616999 95.1800008,225.896 95.1800008,226.733 C95.1800008,227.489 94.4330007,227.993 93.3890005,227.993 C92.4620004,227.993 91.6970002,227.561 91.3910002,227.255 L90.8060001,228.236 C91.1660001,228.542 92.1290003,229.046 93.4430005,229.046 Z M101.750001,229.046 C103.082001,229.046 104.054001,228.479 104.225001,228.335 L103.550001,227.345 C103.406001,227.48 102.794001,227.912 101.804001,227.912 C100.589001,227.912 99.3020003,226.895 99.3020003,225.130999 C99.3020003,223.375999 100.589001,222.358999 101.804001,222.358999 C102.803001,222.358999 103.361001,222.871999 103.514001,223.006999 L104.189001,222.025999 C103.982001,221.836999 103.064001,221.224999 101.750001,221.224999 C99.8240004,221.224999 98.0060001,222.583999 98.0060001,225.130999 C98.0060001,227.678 99.8240004,229.046 101.750001,229.046 Z M107.267,228.83 L107.267,224.725999 C107.267,223.339999 108.410001,222.286999 109.535001,222.286999 C110.660001,222.286999 111.443001,222.943999 111.443001,224.482999 L111.443001,228.83 L112.793001,228.83 L112.793001,224.194999 C112.793001,222.097999 111.272001,221.224999 109.850001,221.224999 C108.509001,221.224999 107.393,222.178999 107.267,222.799999 L107.267,216.445998 L105.899,216.445998 L105.899,228.83 L107.267,228.83 Z M118.310001,229.046 C120.020001,229.046 120.911001,228.479 121.550001,227.552 L120.821001,226.706 C120.542001,227.192 119.804001,227.975 118.391001,227.975 C116.681,227.975 115.835,226.688 115.817,225.274999 L121.730001,225.274999 C121.739001,225.193999 121.757001,225.013999 121.757001,224.905999 C121.757001,222.664999 120.362001,221.224999 118.220001,221.224999 C115.862,221.224999 114.494,222.889999 114.494,225.049999 C114.494,227.372 115.934,229.046 118.310001,229.046 Z M120.416001,224.473999 L115.871,224.473999 C115.943,223.402999 116.537,222.232999 118.229001,222.232999 C119.849001,222.232999 120.389001,223.456999 120.416001,224.473999 Z M124.907,228.83 L124.907,224.725999 C124.907,223.339999 126.032001,222.286999 127.157001,222.286999 C128.282001,222.286999 129.083001,222.943999 129.083001,224.482999 L129.083001,228.83 L130.442001,228.83 L130.442001,224.194999 C130.442001,222.097999 128.912001,221.224999 127.490001,221.224999 C126.158001,221.224999 125.042,222.178999 124.907,222.799999 L124.907,221.440999 L123.566,221.440999 L123.566,228.83 L124.907,228.83 Z M136.814001,229.046 C138.848001,229.046 140.378001,227.534 140.378001,225.139999 C140.378001,222.745999 138.848001,221.224999 136.814001,221.224999 C135.149001,221.224999 134.006,222.313999 133.907,222.889999 L133.907,216.445998 L132.557,216.445998 L132.557,228.83 L133.88,228.83 L133.88,227.345 C134.042,227.939 135.212001,229.046 136.814001,229.046 Z M136.553001,227.912 C135.095001,227.912 133.907,226.823 133.907,225.139999 C133.907,223.465999 135.095001,222.358999 136.553001,222.358999 C137.876001,222.358999 139.046001,223.429999 139.046001,225.139999 C139.046001,226.85 137.876001,227.912 136.553001,227.912 Z M143.24,228.83 L143.24,224.689999 C143.24,223.780999 143.969001,222.376999 145.184001,222.376999 C145.796001,222.376999 146.237001,222.592999 146.399001,222.745999 L146.957001,221.629999 C146.750001,221.458999 146.210001,221.224999 145.517001,221.224999 C144.266001,221.224999 143.447,222.088999 143.24,222.592999 L143.24,221.440999 L141.917,221.440999 L141.917,228.83 L143.24,228.83 Z M151.322001,229.046 C153.032001,229.046 153.923001,228.479 154.562001,227.552 L153.833001,226.706 C153.554001,227.192 152.816001,227.975 151.403001,227.975 C149.693,227.975 148.847,226.688 148.829,225.274999 L154.742001,225.274999 C154.751001,225.193999 154.769001,225.013999 154.769001,224.905999 C154.769001,222.664999 153.374001,221.224999 151.232001,221.224999 C148.874,221.224999 147.506,222.889999 147.506,225.049999 C147.506,227.372 148.946,229.046 151.322001,229.046 Z M153.428001,224.473999 L148.883,224.473999 C148.955,223.402999 149.549,222.232999 151.241001,222.232999 C152.861001,222.232999 153.401001,223.456999 153.428001,224.473999 Z M157.919,228.83 L157.919,224.725999 C157.919,223.339999 159.044001,222.286999 160.169001,222.286999 C161.294001,222.286999 162.095001,222.943999 162.095001,224.482999 L162.095001,228.83 L163.454001,228.83 L163.454001,224.194999 C163.454001,222.097999 161.924001,221.224999 160.502001,221.224999 C159.170001,221.224999 158.054,222.178999 157.919,222.799999 L157.919,221.440999 L156.578,221.440999 L156.578,228.83 L157.919,228.83 Z M166.964,228.83 L166.964,224.725999 C166.964,223.339999 168.089001,222.286999 169.214001,222.286999 C170.339001,222.286999 171.140001,222.943999 171.140001,224.482999 L171.140001,228.83 L172.499001,228.83 L172.499001,224.194999 C172.499001,222.097999 170.969001,221.224999 169.547001,221.224999 C168.215001,221.224999 167.099,222.178999 166.964,222.799999 L166.964,221.440999 L165.623,221.440999 L165.623,228.83 L166.964,228.83 Z M177.935001,229.046 C179.645001,229.046 180.536001,228.479 181.175001,227.552 L180.446001,226.706 C180.167001,227.192 179.429001,227.975 178.016001,227.975 C176.306,227.975 175.46,226.688 175.442,225.274999 L181.355001,225.274999 C181.364001,225.193999 181.382001,225.013999 181.382001,224.905999 C181.382001,222.664999 179.987001,221.224999 177.845001,221.224999 C175.487,221.224999 174.119,222.889999 174.119,225.049999 C174.119,227.372 175.559,229.046 177.935001,229.046 Z M180.041001,224.473999 L175.496,224.473999 C175.568,223.402999 176.162,222.232999 177.854001,222.232999 C179.474001,222.232999 180.014001,223.456999 180.041001,224.473999 Z M184.514,228.83 L184.514,224.689999 C184.514,223.780999 185.243001,222.376999 186.458001,222.376999 C187.070001,222.376999 187.511001,222.592999 187.673001,222.745999 L188.231001,221.629999 C188.024001,221.458999 187.484001,221.224999 186.791001,221.224999 C185.540001,221.224999 184.721,222.088999 184.514,222.592999 L184.514,221.440999 L183.191,221.440999 L183.191,228.83 L184.514,228.83 Z M196.880001,229.046 C198.851001,229.046 200.291001,228.029 201.245001,227.102 L202.838002,228.83 L204.539002,228.83 L202.190002,226.337 C202.631002,225.923 203.315002,224.950999 203.522002,224.527999 L202.631002,223.771999 C202.172002,224.572999 201.632001,225.247999 201.353001,225.544999 L198.644001,222.583999 C199.229001,222.322999 201.389001,221.386999 201.389001,219.361998 C201.389001,217.858998 200.282001,216.733998 198.401001,216.733998 C196.556001,216.733998 195.269,217.885998 195.269,219.343998 C195.269,220.666999 196.412001,221.953999 196.826001,222.268999 C196.106001,222.484999 193.352,223.447999 193.352,225.905 C193.352,227.804 194.837,229.046 196.880001,229.046 Z M197.942001,221.809999 C197.852001,221.719999 196.556001,220.396999 196.556001,219.361998 C196.556001,218.605998 197.204001,217.813998 198.383001,217.813998 C199.445001,217.813998 200.183001,218.488998 200.183001,219.361998 C200.183001,220.936999 198.500001,221.656999 197.942001,221.809999 Z M197.042001,227.822 C195.836001,227.822 194.774,227.147 194.774,225.815 C194.774,224.023999 196.988001,223.258999 197.519001,223.096999 L200.435001,226.238 C199.805001,226.922 198.455001,227.822 197.042001,227.822 Z M210.803,228.83 L211.874,225.878 L217.013001,225.878 L218.066001,228.83 L219.470002,228.83 L215.132001,216.949998 L213.746001,216.949998 L209.39,228.83 L210.803,228.83 Z M216.599001,224.671999 L212.288001,224.671999 L214.430001,218.578998 L214.457001,218.578998 L216.599001,224.671999 Z M222.17,228.83 L222.17,216.445998 L220.82,216.445998 L220.82,228.83 L222.17,228.83 Z M225.662,218.713998 C226.175,218.713998 226.589001,218.299998 226.589001,217.795998 C226.589001,217.282998 226.175,216.859998 225.662,216.859998 C225.14,216.859998 224.726,217.282998 224.726,217.795998 C224.726,218.299998 225.14,218.713998 225.662,218.713998 Z M224.132,232.790001 C225.725,232.790001 226.283,231.638 226.283,229.883 L226.283,221.440999 L224.942,221.440999 L224.942,229.514 C224.942,230.783 224.771,231.611 223.907,231.611 C223.484,231.611 223.304,231.503 223.16,231.377 L222.629,232.403001 C222.854,232.574001 223.376,232.790001 224.132,232.790001 Z M231.872001,229.046 C233.537001,229.046 234.563001,227.813 234.689001,227.345 L234.689001,228.83 L236.003001,228.83 L236.003001,221.440999 L234.680001,221.440999 L234.680001,222.889999 C234.554001,222.349999 233.519001,221.224999 231.872001,221.224999 C229.838,221.224999 228.191,222.745999 228.191,225.139999 C228.191,227.534 229.838,229.046 231.872001,229.046 Z M232.124001,227.912 C230.792001,227.912 229.514,226.85 229.514,225.139999 C229.514,223.429999 230.792001,222.358999 232.124001,222.358999 C233.582001,222.358999 234.653001,223.465999 234.653001,225.139999 C234.653001,226.823 233.582001,227.912 232.124001,227.912 Z M243.977001,228.83 L243.977001,227.786 L239.585,227.786 L244.148001,221.440999 L237.875,221.440999 L237.875,222.484999 L241.943001,222.484999 L237.38,228.83 L243.977001,228.83 Z M251.564,228.83 L251.564,224.068999 L253.427001,224.068999 C255.641001,224.068999 257.378001,222.907999 257.378001,220.441999 C257.378001,217.966998 255.641001,216.949998 253.427001,216.949998 L250.25,216.949998 L250.25,228.83 L251.564,228.83 Z M253.076001,222.943999 L251.564,222.943999 L251.564,218.074998 L253.076001,218.074998 C254.678001,218.074998 255.992001,218.623998 255.992001,220.459999 C255.992001,222.295999 254.678001,222.943999 253.076001,222.943999 Z M260.645,228.83 L260.645,224.689999 C260.645,223.780999 261.374001,222.376999 262.589001,222.376999 C263.201001,222.376999 263.642001,222.592999 263.804001,222.745999 L264.362001,221.629999 C264.155001,221.458999 263.615001,221.224999 262.922001,221.224999 C261.671001,221.224999 260.852,222.088999 260.645,222.592999 L260.645,221.440999 L259.322,221.440999 L259.322,228.83 L260.645,228.83 Z M266.306,218.713998 C266.819,218.713998 267.251,218.299998 267.251,217.795998 C267.251,217.273998 266.81,216.859998 266.306,216.859998 C265.802,216.859998 265.379,217.282998 265.379,217.795998 C265.379,218.299998 265.793,218.713998 266.306,218.713998 Z M266.954,228.83 L266.954,221.440999 L265.622,221.440999 L265.622,228.83 L266.954,228.83 Z M270.887,228.83 L270.887,224.833999 C270.887,223.015999 271.841001,222.295999 272.813001,222.295999 C273.839001,222.295999 274.469001,223.123999 274.469001,224.833999 L274.469001,228.83 L275.720001,228.83 L275.720001,224.833999 C275.720001,223.060999 276.719001,222.295999 277.682002,222.295999 C278.915002,222.295999 279.311002,223.123999 279.311002,224.833999 L279.311002,228.83 L280.634002,228.83 L280.634002,224.536999 C280.634002,222.277999 279.707002,221.224999 278.069002,221.224999 C276.728001,221.224999 275.720001,222.160999 275.468001,222.961999 C275.288001,222.259999 274.640001,221.224999 273.290001,221.224999 C272.012001,221.224999 271.067,222.034999 270.887,222.583999 L270.887,221.440999 L269.555,221.440999 L269.555,228.83 L270.887,228.83 Z M286.250001,229.046 C288.509001,229.046 290.093001,227.354 290.093001,225.157999 C290.093001,222.961999 288.509001,221.224999 286.250001,221.224999 C284,221.224999 282.38,222.961999 282.38,225.157999 C282.38,227.354 284,229.046 286.250001,229.046 Z M286.250001,227.876 C284.711,227.876 283.685,226.706 283.685,225.148999 C283.685,223.600999 284.711,222.394999 286.250001,222.394999 C287.798001,222.394999 288.806001,223.600999 288.806001,225.148999 C288.806001,226.706 287.798001,227.876 286.250001,227.876 Z M297.680001,228.83 L297.680001,227.786 L293.288,227.786 L297.851001,221.440999 L291.578,221.440999 L291.578,222.484999 L295.646001,222.484999 L291.083,228.83 L297.680001,228.83 Z M300.227,218.713998 C300.74,218.713998 301.172,218.299998 301.172,217.795998 C301.172,217.273998 300.731,216.859998 300.227,216.859998 C299.723,216.859998 299.3,217.282998 299.3,217.795998 C299.3,218.299998 299.714,218.713998 300.227,218.713998 Z M300.875,228.83 L300.875,221.440999 L299.543,221.440999 L299.543,228.83 L300.875,228.83 Z M306.707001,229.046 C308.039001,229.046 309.011001,228.479 309.182001,228.335 L308.507001,227.345 C308.363001,227.48 307.751001,227.912 306.761001,227.912 C305.546001,227.912 304.259,226.895 304.259,225.130999 C304.259,223.375999 305.546001,222.358999 306.761001,222.358999 C307.760001,222.358999 308.318001,222.871999 308.471001,223.006999 L309.146001,222.025999 C308.939001,221.836999 308.021001,221.224999 306.707001,221.224999 C304.781,221.224999 302.963,222.583999 302.963,225.130999 C302.963,227.678 304.781,229.046 306.707001,229.046 Z M318.020001,229.046 C318.947001,229.046 319.550001,228.668 319.658001,228.56 L319.100001,227.57 C319.055001,227.624 318.785001,227.867 318.317001,227.867 C317.786001,227.867 317.426001,227.489 317.426001,226.562 L317.426001,222.610999 L319.379001,222.610999 L319.379001,221.440999 L317.426001,221.440999 L317.426001,218.407998 L316.094,218.407998 L316.094,221.440999 L314.609,221.440999 L314.609,222.610999 L316.094,222.610999 L316.094,226.922 C316.094,228.398 316.931,229.046 318.020001,229.046 Z M322.511,228.83 L322.511,224.725999 C322.511,223.339999 323.654001,222.286999 324.779001,222.286999 C325.904001,222.286999 326.687001,222.943999 326.687001,224.482999 L326.687001,228.83 L328.037001,228.83 L328.037001,224.194999 C328.037001,222.097999 326.516001,221.224999 325.094001,221.224999 C323.753001,221.224999 322.637,222.178999 322.511,222.799999 L322.511,216.445998 L321.143,216.445998 L321.143,228.83 L322.511,228.83 Z M333.554001,229.046 C335.264001,229.046 336.155001,228.479 336.794001,227.552 L336.065001,226.706 C335.786001,227.192 335.048001,227.975 333.635001,227.975 C331.925,227.975 331.079,226.688 331.061,225.274999 L336.974001,225.274999 C336.983001,225.193999 337.001001,225.013999 337.001001,224.905999 C337.001001,222.664999 335.606001,221.224999 333.464001,221.224999 C331.106,221.224999 329.738,222.889999 329.738,225.049999 C329.738,227.372 331.178,229.046 333.554001,229.046 Z M335.660001,224.473999 L331.115,224.473999 C331.187,223.402999 331.781,222.232999 333.473001,222.232999 C335.093001,222.232999 335.633001,223.456999 335.660001,224.473999 Z M344.885001,228.83 L344.885001,227.624 L340.142,227.624 L340.142,216.949998 L338.828,216.949998 L338.828,228.83 L344.885001,228.83 Z M347.801,218.713998 C348.314,218.713998 348.746,218.299998 348.746,217.795998 C348.746,217.273998 348.305,216.859998 347.801,216.859998 C347.297,216.859998 346.874,217.282998 346.874,217.795998 C346.874,218.299998 347.288,218.713998 347.801,218.713998 Z M348.449,228.83 L348.449,221.440999 L347.117,221.440999 L347.117,228.83 L348.449,228.83 Z M353.129001,228.83 L353.129001,222.601999 L355.280001,222.601999 L355.280001,221.440999 L353.129001,221.440999 L353.129001,219.478998 C353.129001,217.723998 353.804001,217.399998 354.434001,217.399998 C355.010001,217.399998 355.334001,217.678998 355.397001,217.741998 L355.946001,216.706998 C355.847001,216.616998 355.325001,216.229998 354.335001,216.229998 C353.102001,216.229998 351.806,217.048998 351.806,219.316998 L351.806,221.440999 L350.231,221.440999 L350.231,222.601999 L351.806,222.601999 L351.806,228.83 L353.129001,228.83 Z M359.528001,229.046 C360.455001,229.046 361.058001,228.668 361.166001,228.56 L360.608001,227.57 C360.563001,227.624 360.293001,227.867 359.825001,227.867 C359.294001,227.867 358.934001,227.489 358.934001,226.562 L358.934001,222.610999 L360.887001,222.610999 L360.887001,221.440999 L358.934001,221.440999 L358.934001,218.407998 L357.602,218.407998 L357.602,221.440999 L356.117,221.440999 L356.117,222.610999 L357.602,222.610999 L357.602,226.922 C357.602,228.398 358.439,229.046 359.528001,229.046 Z M363.974,228.83 L363.974,218.344998 L370.310001,228.83 L372.200002,228.83 L372.200002,216.949998 L370.895002,216.949998 L370.895002,227.426 L364.55,216.949998 L362.66,216.949998 L362.66,228.83 L363.974,228.83 Z M377.942001,229.046 C379.652001,229.046 380.543001,228.479 381.182001,227.552 L380.453001,226.706 C380.174001,227.192 379.436001,227.975 378.023001,227.975 C376.313,227.975 375.467,226.688 375.449,225.274999 L381.362001,225.274999 C381.371001,225.193999 381.389001,225.013999 381.389001,224.905999 C381.389001,222.664999 379.994001,221.224999 377.852001,221.224999 C375.494,221.224999 374.126,222.889999 374.126,225.049999 C374.126,227.372 375.566,229.046 377.942001,229.046 Z M380.048001,224.473999 L375.503,224.473999 C375.575,223.402999 376.169,222.232999 377.861001,222.232999 C379.481001,222.232999 380.021001,223.456999 380.048001,224.473999 Z M385.340001,229.046 C386.906001,229.046 388.436001,228.398 388.436001,226.733 C388.436001,225.319999 387.338001,224.851999 386.096001,224.536999 C385.034,224.275999 384.341,223.924999 384.341,223.258999 C384.341,222.583999 385.052,222.214999 385.943001,222.214999 C386.726001,222.214999 387.392001,222.565999 387.653001,222.781999 L388.220001,221.908999 C387.887001,221.647999 386.933001,221.224999 385.835001,221.224999 C384.323,221.224999 383.027,221.989999 383.027,223.222999 C383.027,224.545999 384.17,225.112999 385.340001,225.391999 C386.267001,225.616999 387.077001,225.896 387.077001,226.733 C387.077001,227.489 386.330001,227.993 385.286001,227.993 C384.359,227.993 383.594,227.561 383.288,227.255 L382.703,228.236 C383.063,228.542 384.026,229.046 385.340001,229.046 Z M393.098001,229.046 C394.025001,229.046 394.628001,228.668 394.736001,228.56 L394.178001,227.57 C394.133001,227.624 393.863001,227.867 393.395001,227.867 C392.864001,227.867 392.504001,227.489 392.504001,226.562 L392.504001,222.610999 L394.457001,222.610999 L394.457001,221.440999 L392.504001,221.440999 L392.504001,218.407998 L391.172,218.407998 L391.172,221.440999 L389.687,221.440999 L389.687,222.610999 L391.172,222.610999 L391.172,226.922 C391.172,228.398 392.009,229.046 393.098001,229.046 Z M405.905001,229.046 C409.235002,229.046 411.755002,226.337 411.755002,223.042999 L411.755002,222.412999 L405.698001,222.412999 L405.698001,223.501999 L410.270002,223.501999 C410.072002,225.851 408.308001,227.777 405.905001,227.777 C403.277001,227.777 401.396,225.535999 401.396,222.880999 C401.396,220.225999 403.277001,217.993998 405.905001,217.993998 C407.363001,217.993998 408.596001,218.677998 409.388002,219.757999 L410.414002,218.947998 C409.370002,217.597998 407.750001,216.733998 405.905001,216.733998 C402.566,216.733998 400.028,219.523998 400.028,222.880999 C400.028,226.247 402.503,229.046 405.905001,229.046 Z M417.767001,229.046 C419.801001,229.046 421.331001,227.534 421.331001,225.139999 C421.331001,222.745999 419.801001,221.224999 417.767001,221.224999 C416.102001,221.224999 414.959,222.313999 414.86,222.889999 L414.86,216.445998 L413.51,216.445998 L413.51,228.83 L414.833,228.83 L414.833,227.345 C414.995,227.939 416.165001,229.046 417.767001,229.046 Z M417.506001,227.912 C416.048001,227.912 414.86,226.823 414.86,225.139999 C414.86,223.465999 416.048001,222.358999 417.506001,222.358999 C418.829001,222.358999 419.999001,223.429999 419.999001,225.139999 C419.999001,226.85 418.829001,227.912 417.506001,227.912 Z M424.22,228.83 L424.22,223.753999 L426.389001,223.753999 L429.179001,228.83 L430.673001,228.83 L427.721001,223.654999 C428.783001,223.609999 430.385001,222.547999 430.385001,220.360999 C430.385001,218.164998 428.819001,216.949998 426.929001,216.949998 L422.906,216.949998 L422.906,228.83 L424.22,228.83 Z M426.470001,222.745999 L424.22,222.745999 L424.22,218.074998 L426.479001,218.074998 C427.973001,218.074998 429.035001,218.758998 429.035001,220.387999 C429.035001,222.016999 427.973001,222.745999 426.470001,222.745999 Z M25.3310004,257.66 L25.3310004,252.304999 L29.7680011,252.304999 L29.7680011,251.098999 L25.3310004,251.098999 L25.3310004,246.985998 L30.0830012,246.985998 L30.0830012,245.779998 L24.0260002,245.779998 L24.0260002,257.66 L25.3310004,257.66 Z M33.4310004,257.66 L33.4310004,253.519999 C33.4310004,252.610999 34.1600005,251.206999 35.3750007,251.206999 C35.9870008,251.206999 36.4280009,251.422999 36.5900009,251.575999 L37.148001,250.459999 C36.941001,250.288999 36.4010009,250.054999 35.7080008,250.054999 C34.4570006,250.054999 33.6380004,250.918999 33.4310004,251.422999 L33.4310004,250.270999 L32.1080002,250.270999 L32.1080002,257.66 L33.4310004,257.66 Z M41.3780007,257.876 C43.043001,257.876 44.0690011,256.643 44.1950011,256.175 L44.1950011,257.66 L45.5090014,257.66 L45.5090014,250.270999 L44.1860011,250.270999 L44.1860011,251.719999 C44.0600011,251.179999 43.0250009,250.054999 41.3780007,250.054999 C39.3440003,250.054999 37.6970001,251.575999 37.6970001,253.969999 C37.6970001,256.364 39.3440003,257.876 41.3780007,257.876 Z M41.6300007,256.742 C40.2980005,256.742 39.0200003,255.68 39.0200003,253.969999 C39.0200003,252.259999 40.2980005,251.188999 41.6300007,251.188999 C43.088001,251.188999 44.1590011,252.295999 44.1590011,253.969999 C44.1590011,255.653 43.088001,256.742 41.6300007,256.742 Z M49.0460004,257.66 L49.0460004,253.555999 C49.0460004,252.169999 50.1710006,251.116999 51.2960008,251.116999 C52.4210009,251.116999 53.2220011,251.773999 53.2220011,253.312999 L53.2220011,257.66 L54.5810013,257.66 L54.5810013,253.024999 C54.5810013,250.927999 53.051001,250.054999 51.6290008,250.054999 C50.2970006,250.054999 49.1810004,251.008999 49.0460004,251.629999 L49.0460004,250.270999 L47.7050002,250.270999 L47.7050002,257.66 L49.0460004,257.66 Z M57.8120003,257.66 L57.8120003,254.329999 L61.3580009,257.66 L63.0320012,257.66 L58.9190005,253.789999 L62.7980012,250.270999 L61.1420009,250.270999 L57.8120003,253.267999 L57.8120003,245.275998 L56.4800001,245.275998 L56.4800001,257.66 L57.8120003,257.66 Z M65.6060004,257.66 L65.6060004,245.275998 L64.2560002,245.275998 L64.2560002,257.66 L65.6060004,257.66 Z M68.8280003,247.543998 C69.3410004,247.543998 69.7730005,247.129998 69.7730005,246.625998 C69.7730005,246.103998 69.3320004,245.689998 68.8280003,245.689998 C68.3240002,245.689998 67.9010002,246.112998 67.9010002,246.625998 C67.9010002,247.129998 68.3150002,247.543998 68.8280003,247.543998 Z M69.4760004,257.66 L69.4760004,250.270999 L68.1440002,250.270999 L68.1440002,257.66 L69.4760004,257.66 Z M73.3460004,257.66 L73.3460004,253.555999 C73.3460004,252.169999 74.4710006,251.116999 75.5960008,251.116999 C76.7210009,251.116999 77.5220011,251.773999 77.5220011,253.312999 L77.5220011,257.66 L78.8810013,257.66 L78.8810013,253.024999 C78.8810013,250.927999 77.351001,250.054999 75.9290008,250.054999 C74.5970006,250.054999 73.4810004,251.008999 73.3460004,251.629999 L73.3460004,250.270999 L72.0050002,250.270999 L72.0050002,257.66 L73.3460004,257.66 Z M83.1920005,257.876 C84.7580008,257.876 86.288001,257.228 86.288001,255.563 C86.288001,254.149999 85.1900008,253.681999 83.9480006,253.366999 C82.8860005,253.105999 82.1930004,252.754999 82.1930004,252.088999 C82.1930004,251.413999 82.9040005,251.044999 83.7950006,251.044999 C84.5780007,251.044999 85.2440009,251.395999 85.5050009,251.611999 L86.072001,250.738999 C85.7390009,250.477999 84.7850008,250.054999 83.6870006,250.054999 C82.1750003,250.054999 80.8790001,250.819999 80.8790001,252.052999 C80.8790001,253.375999 82.0220003,253.942999 83.1920005,254.221999 C84.1190007,254.446999 84.9290008,254.726 84.9290008,255.563 C84.9290008,256.319 84.1820007,256.823 83.1380005,256.823 C82.2110004,256.823 81.4460002,256.391 81.1400002,256.085 L80.5550001,257.066 C80.9150001,257.372 81.8780003,257.876 83.1920005,257.876 Z M90.9500006,257.876 C91.8770008,257.876 92.4800009,257.498 92.5880009,257.39 L92.0300008,256.4 C91.9850008,256.454 91.7150007,256.697 91.2470007,256.697 C90.7160006,256.697 90.3560005,256.319 90.3560005,255.392 L90.3560005,251.440999 L92.3090008,251.440999 L92.3090008,250.270999 L90.3560005,250.270999 L90.3560005,247.237998 L89.0240003,247.237998 L89.0240003,250.270999 L87.5390001,250.270999 L87.5390001,251.440999 L89.0240003,251.440999 L89.0240003,255.752 C89.0240003,257.228 89.8610004,257.876 90.9500006,257.876 Z M95.3690004,257.66 L95.3690004,253.519999 C95.3690004,252.610999 96.0980005,251.206999 97.3130007,251.206999 C97.9250008,251.206999 98.3660009,251.422999 98.5280009,251.575999 L99.086001,250.459999 C98.879001,250.288999 98.3390009,250.054999 97.6460008,250.054999 C96.3950006,250.054999 95.5760004,250.918999 95.3690004,251.422999 L95.3690004,250.270999 L94.0460002,250.270999 L94.0460002,257.66 L95.3690004,257.66 Z M101.804,257.876 C102.434001,257.876 102.938001,257.372 102.938001,256.751 C102.938001,256.112 102.434001,255.617 101.804,255.617 C101.183,255.617 100.679,256.112 100.679,256.751 C100.679,257.372 101.183,257.876 101.804,257.876 Z M117.563001,257.66 L117.563001,256.463 L112.046,256.463 C112.613001,256.013 117.662001,252.178999 117.662001,249.145999 C117.662001,246.967998 116.456001,245.563998 113.999001,245.563998 C110.93,245.563998 109.778,248.128998 109.724,248.353998 L110.894,248.866999 C110.93,248.749999 111.947,246.742998 113.999001,246.742998 C115.484001,246.742998 116.312001,247.372998 116.312001,249.136999 C116.312001,251.665999 111.164,255.59 109.958,256.562 L109.958,257.66 L117.563001,257.66 Z M123.377001,257.876 C125.906001,257.876 127.364001,256.148 127.355043,253.690999 C127.337001,251.224999 125.780001,250.027999 123.980001,250.027999 C122.504001,250.027999 121.73,250.801999 121.649,250.963999 L122.243001,246.976998 L126.860001,246.976998 L126.860001,245.779998 L121.082,245.779998 L120.083,252.241999 L121.262,252.637999 C121.514,252.016999 122.324001,251.161999 123.656001,251.161999 C125.069001,251.161999 126.005001,252.088999 126.023001,253.744999 C126.041001,255.536 125.015001,256.706 123.341001,256.706 C121.667,256.706 121.001,255.563 120.857,255.176 L119.696,255.77 C119.912,256.346 120.929,257.876 123.377001,257.876 Z M28.0580008,286.706 C30.2630012,286.706 32.4590016,284.843 32.4590016,280.558999 C32.4590016,276.310998 30.2630012,274.393998 28.0580008,274.393998 C25.8710005,274.393998 23.6390001,276.310998 23.6390001,280.558999 C23.6390001,284.843 25.8710005,286.706 28.0580008,286.706 Z M28.0580008,285.5 C26.4020006,285.5 24.9890003,283.871 24.9890003,280.558999 C24.9890003,277.273998 26.4020006,275.599998 28.0580008,275.599998 C29.7140011,275.599998 31.1180013,277.264998 31.1180013,280.558999 C31.1180013,283.871 29.7140011,285.5 28.0580008,285.5 Z M37.3100006,286.49 L37.3100006,274.609998 L36.5000005,274.609998 L33.8900001,276.139998 L33.8900001,277.435999 L35.9780004,276.238998 L35.9780004,286.49 L37.3100006,286.49 Z M43.9070008,286.706 C46.1120012,286.706 48.3080016,284.843 48.3080016,280.558999 C48.3080016,276.310998 46.1120012,274.393998 43.9070008,274.393998 C41.7200005,274.393998 39.4880001,276.310998 39.4880001,280.558999 C39.4880001,284.843 41.7200005,286.706 43.9070008,286.706 Z M43.9070008,285.5 C42.2510006,285.5 40.8380003,283.871 40.8380003,280.558999 C40.8380003,277.273998 42.2510006,275.599998 43.9070008,275.599998 C45.5630011,275.599998 46.9670013,277.264998 46.9670013,280.558999 C46.9670013,283.871 45.5630011,285.5 43.9070008,285.5 Z M54.0230008,286.706 C56.2730011,286.706 58.1450015,285.023 58.1450015,282.718999 C58.1450015,280.405999 56.3810012,278.785999 54.3470008,278.785999 C53.3480007,278.785999 52.6370006,279.127999 52.3490005,279.442999 L56.3090012,274.609998 L54.7160009,274.609998 L51.4310004,278.731999 C50.6120002,279.748999 49.9280001,280.864999 49.9280001,282.574999 C49.9280001,285.041 51.7100004,286.706 54.0230008,286.706 Z M54.0500008,285.572 C52.4840005,285.572 51.2150003,284.294 51.2150003,282.727999 C51.2150003,281.170999 52.4840005,279.901999 54.0500008,279.901999 C55.616001,279.901999 56.8760012,281.170999 56.8760012,282.727999 C56.8760012,284.294 55.616001,285.572 54.0500008,285.572 Z M63.3110007,286.49 L66.6050012,282.367999 C67.4150014,281.350999 68.1080015,280.234999 68.1080015,278.524999 C68.1080015,276.058998 66.3260012,274.393998 64.0130008,274.393998 C61.7540004,274.393998 59.8820001,276.076998 59.8820001,278.380999 C59.8820001,280.693999 61.6460004,282.313999 63.6800007,282.313999 C64.6790009,282.313999 65.399001,281.971999 65.6780011,281.656999 L61.7180004,286.49 L63.3110007,286.49 Z M63.9770008,281.197999 C62.4200005,281.197999 61.1510003,279.928999 61.1510003,278.371999 C61.1510003,276.805998 62.4200005,275.527998 63.9770008,275.527998 C65.5430011,275.527998 66.8210013,276.805998 66.8210013,278.371999 C66.8210013,279.928999 65.5430011,281.197999 63.9770008,281.197999 Z M70.7180003,288.668 C71.6810004,288.137 72.5540006,287.021 72.5540006,285.734 C72.5540006,284.924 71.9780005,284.384 71.2850004,284.384 C70.5920003,284.384 70.0700002,284.888 70.0700002,285.599 C70.0700002,286.202 70.5560003,286.706 71.1410004,286.715 C71.3030004,286.715 71.4470004,286.688 71.5910004,286.616 C71.4380004,287.282 70.6820003,287.849 70.1510002,288.101 L70.7180003,288.668 Z M81.9950006,286.49 C85.8020012,286.49 87.5120015,284.015 87.5120015,280.540999 C87.5120015,277.084998 85.7840012,274.609998 81.9950006,274.609998 L79.3400002,274.609998 L79.3400002,286.49 L81.9950006,286.49 Z M81.8870006,285.275 L80.6450004,285.275 L80.6450004,275.824998 L81.8870006,275.824998 C84.8480011,275.824998 86.1440013,277.813999 86.1260013,280.558999 C86.1170013,283.303999 84.8300011,285.275 81.8870006,285.275 Z M90.8330004,286.49 L90.8330004,282.349999 C90.8330004,281.440999 91.5620005,280.036999 92.7770007,280.036999 C93.3890008,280.036999 93.8300009,280.252999 93.9920009,280.405999 L94.550001,279.289999 C94.343001,279.118999 93.8030009,278.884999 93.1100008,278.884999 C91.8590006,278.884999 91.0400004,279.748999 90.8330004,280.252999 L90.8330004,279.100999 L89.5100002,279.100999 L89.5100002,286.49 L90.8330004,286.49 Z M98.9150007,286.706 C100.625001,286.706 101.516001,286.139 102.155001,285.212 L101.426001,284.366 C101.147001,284.852 100.409001,285.635 98.9960007,285.635 C97.2860004,285.635 96.4400003,284.348 96.4220003,282.934999 L102.335001,282.934999 C102.344001,282.853999 102.362001,282.673999 102.362001,282.565999 C102.362001,280.324999 100.967001,278.884999 98.8250007,278.884999 C96.4670003,278.884999 95.0990001,280.549999 95.0990001,282.709999 C95.0990001,285.032 96.5390003,286.706 98.9150007,286.706 Z M101.021001,282.133999 L96.4760003,282.133999 C96.5480003,281.062999 97.1420004,279.892999 98.8340007,279.892999 C100.454001,279.892999 100.994001,281.116999 101.021001,282.133999 Z M106.313001,286.706 C107.879001,286.706 109.409001,286.058 109.409001,284.393 C109.409001,282.979999 108.311001,282.511999 107.069001,282.196999 C106.007,281.935999 105.314,281.584999 105.314,280.918999 C105.314,280.243999 106.025,279.874999 106.916001,279.874999 C107.699001,279.874999 108.365001,280.225999 108.626001,280.441999 L109.193001,279.568999 C108.860001,279.307999 107.906001,278.884999 106.808001,278.884999 C105.296,278.884999 104,279.649999 104,280.882999 C104,282.205999 105.143,282.772999 106.313001,283.051999 C107.240001,283.276999 108.050001,283.556 108.050001,284.393 C108.050001,285.149 107.303001,285.653 106.259001,285.653 C105.332,285.653 104.567,285.221 104.261,284.915 L103.676,285.896 C104.036,286.202 104.999,286.706 106.313001,286.706 Z M114.566001,286.706 C116.168001,286.706 117.338001,285.599 117.500001,285.005 L117.500001,286.49 L118.832001,286.49 L118.832001,274.105998 L117.473001,274.105998 L117.473001,280.549999 C117.374001,279.973999 116.231001,278.884999 114.566001,278.884999 C112.532,278.884999 111.002,280.405999 111.002,282.799999 C111.002,285.194 112.532,286.706 114.566001,286.706 Z M114.827001,285.572 C113.504001,285.572 112.343,284.51 112.343,282.799999 C112.343,281.089999 113.504001,280.018999 114.827001,280.018999 C116.285001,280.018999 117.473001,281.125999 117.473001,282.799999 C117.473001,284.483 116.285001,285.572 114.827001,285.572 Z M123.890001,286.706 C125.600001,286.706 126.491001,286.139 127.130001,285.212 L126.401001,284.366 C126.122001,284.852 125.384001,285.635 123.971001,285.635 C122.261,285.635 121.415,284.348 121.397,282.934999 L127.310001,282.934999 C127.319001,282.853999 127.337001,282.673999 127.337001,282.565999 C127.337001,280.324999 125.942001,278.884999 123.800001,278.884999 C121.442,278.884999 120.074,280.549999 120.074,282.709999 C120.074,285.032 121.514,286.706 123.890001,286.706 Z M125.996001,282.133999 L121.451,282.133999 C121.523,281.062999 122.117,279.892999 123.809001,279.892999 C125.429001,279.892999 125.969001,281.116999 125.996001,282.133999 Z M130.487,286.49 L130.487,282.385999 C130.487,280.999999 131.612001,279.946999 132.737001,279.946999 C133.862001,279.946999 134.663001,280.603999 134.663001,282.142999 L134.663001,286.49 L136.022001,286.49 L136.022001,281.854999 C136.022001,279.757999 134.492001,278.884999 133.070001,278.884999 C131.738001,278.884999 130.622,279.838999 130.487,280.459999 L130.487,279.100999 L129.146,279.100999 L129.146,286.49 L130.487,286.49 Z M138.92,288.668 C139.883,288.137 140.756001,287.021 140.756001,285.734 C140.756001,284.924 140.18,284.384 139.487,284.384 C138.794,284.384 138.272,284.888 138.272,285.599 C138.272,286.202 138.758,286.706 139.343,286.715 C139.505,286.715 139.649,286.688 139.793,286.616 C139.64,287.282 138.884,287.849 138.353,288.101 L138.92,288.668 Z M150.197001,286.49 C154.004001,286.49 155.714002,284.015 155.714002,280.540999 C155.714002,277.084998 153.986001,274.609998 150.197001,274.609998 L147.542,274.609998 L147.542,286.49 L150.197001,286.49 Z M150.089001,285.275 L148.847,285.275 L148.847,275.824998 L150.089001,275.824998 C153.050001,275.824998 154.346001,277.813999 154.328001,280.558999 C154.319001,283.303999 153.032001,285.275 150.089001,285.275 Z M160.979001,286.706 C162.689001,286.706 163.580001,286.139 164.219001,285.212 L163.490001,284.366 C163.211001,284.852 162.473001,285.635 161.060001,285.635 C159.35,285.635 158.504,284.348 158.486,282.934999 L164.399001,282.934999 C164.408001,282.853999 164.426001,282.673999 164.426001,282.565999 C164.426001,280.324999 163.031001,278.884999 160.889001,278.884999 C158.531,278.884999 157.163,280.549999 157.163,282.709999 C157.163,285.032 158.603,286.706 160.979001,286.706 Z M163.085001,282.133999 L158.54,282.133999 C158.612,281.062999 159.206,279.892999 160.898001,279.892999 C162.518001,279.892999 163.058001,281.116999 163.085001,282.133999 Z M169.601001,286.706 C171.824001,286.706 173.075001,285.203 173.075001,283.087999 L173.075001,279.100999 L171.752001,279.100999 L171.752001,282.880999 C171.752001,284.51 171.059001,285.536 169.601001,285.536 C168.152,285.536 167.459,284.51 167.459,282.880999 L167.459,279.100999 L166.136,279.100999 L166.136,283.087999 C166.136,285.203 167.387,286.706 169.601001,286.706 Z M178.070001,286.706 C178.997001,286.706 179.600001,286.328 179.708001,286.22 L179.150001,285.23 C179.105001,285.284 178.835001,285.527 178.367001,285.527 C177.836001,285.527 177.476001,285.149 177.476001,284.222 L177.476001,280.270999 L179.429001,280.270999 L179.429001,279.100999 L177.476001,279.100999 L177.476001,276.067998 L176.144,276.067998 L176.144,279.100999 L174.659,279.100999 L174.659,280.270999 L176.144,280.270999 L176.144,284.582 C176.144,286.058 176.981,286.706 178.070001,286.706 Z M183.308001,286.706 C184.874001,286.706 186.404001,286.058 186.404001,284.393 C186.404001,282.979999 185.306001,282.511999 184.064001,282.196999 C183.002,281.935999 182.309,281.584999 182.309,280.918999 C182.309,280.243999 183.02,279.874999 183.911001,279.874999 C184.694001,279.874999 185.360001,280.225999 185.621001,280.441999 L186.188001,279.568999 C185.855001,279.307999 184.901001,278.884999 183.803001,278.884999 C182.291,278.884999 180.995,279.649999 180.995,280.882999 C180.995,282.205999 182.138,282.772999 183.308001,283.051999 C184.235001,283.276999 185.045001,283.556 185.045001,284.393 C185.045001,285.149 184.298001,285.653 183.254001,285.653 C182.327,285.653 181.562,285.221 181.256,284.915 L180.671,285.896 C181.031,286.202 181.994,286.706 183.308001,286.706 Z M191.615001,286.706 C192.947001,286.706 193.919001,286.139 194.090001,285.995 L193.415001,285.005 C193.271001,285.14 192.659001,285.572 191.669001,285.572 C190.454001,285.572 189.167,284.555 189.167,282.790999 C189.167,281.035999 190.454001,280.018999 191.669001,280.018999 C192.668001,280.018999 193.226001,280.531999 193.379001,280.666999 L194.054001,279.685999 C193.847001,279.496999 192.929001,278.884999 191.615001,278.884999 C189.689,278.884999 187.871,280.243999 187.871,282.790999 C187.871,285.338 189.689,286.706 191.615001,286.706 Z M197.132,286.49 L197.132,282.385999 C197.132,280.999999 198.275001,279.946999 199.400001,279.946999 C200.525001,279.946999 201.308001,280.603999 201.308001,282.142999 L201.308001,286.49 L202.658001,286.49 L202.658001,281.854999 C202.658001,279.757999 201.137001,278.884999 199.715001,278.884999 C198.374001,278.884999 197.258,279.838999 197.132,280.459999 L197.132,274.105998 L195.764,274.105998 L195.764,286.49 L197.132,286.49 Z M206.294,286.49 L206.294,274.105998 L204.944,274.105998 L204.944,286.49 L206.294,286.49 Z M211.802001,286.706 C213.467001,286.706 214.493001,285.473 214.619001,285.005 L214.619001,286.49 L215.933001,286.49 L215.933001,279.100999 L214.610001,279.100999 L214.610001,280.549999 C214.484001,280.009999 213.449001,278.884999 211.802001,278.884999 C209.768,278.884999 208.121,280.405999 208.121,282.799999 C208.121,285.194 209.768,286.706 211.802001,286.706 Z M212.054001,285.572 C210.722001,285.572 209.444,284.51 209.444,282.799999 C209.444,281.089999 210.722001,280.018999 212.054001,280.018999 C213.512001,280.018999 214.583001,281.125999 214.583001,282.799999 C214.583001,284.483 213.512001,285.572 212.054001,285.572 Z M219.47,286.49 L219.47,282.385999 C219.47,280.999999 220.595001,279.946999 221.720001,279.946999 C222.845001,279.946999 223.646001,280.603999 223.646001,282.142999 L223.646001,286.49 L225.005001,286.49 L225.005001,281.854999 C225.005001,279.757999 223.475001,278.884999 222.053001,278.884999 C220.721001,278.884999 219.605,279.838999 219.47,280.459999 L219.47,279.100999 L218.129,279.100999 L218.129,286.49 L219.47,286.49 Z M230.423001,286.706 C232.025001,286.706 233.195001,285.599 233.357001,285.005 L233.357001,286.49 L234.689001,286.49 L234.689001,274.105998 L233.330001,274.105998 L233.330001,280.549999 C233.231001,279.973999 232.088001,278.884999 230.423001,278.884999 C228.389,278.884999 226.859,280.405999 226.859,282.799999 C226.859,285.194 228.389,286.706 230.423001,286.706 Z M230.684001,285.572 C229.361001,285.572 228.2,284.51 228.2,282.799999 C228.2,281.089999 229.361001,280.018999 230.684001,280.018999 C232.142001,280.018999 233.330001,281.125999 233.330001,282.799999 C233.330001,284.483 232.142001,285.572 230.684001,285.572 Z M30.9650013,315.32 L30.9650013,314.114 L25.3490004,314.114 L25.3490004,309.955999 L30.8390013,309.955999 L30.8390013,308.776999 L25.3490004,308.776999 L25.3490004,304.645998 L30.9650013,304.645998 L30.9650013,303.439998 L24.0440002,303.439998 L24.0440002,315.32 L30.9650013,315.32 Z M38.0480009,311.800999 L38.0480009,310.630999 L33.4130002,310.630999 L33.4130002,311.800999 L38.0480009,311.800999 Z M41.6660004,315.32 L41.6660004,306.436999 L41.6030004,305.257998 L41.8910004,306.544999 L44.9150009,314.699 L46.2200011,314.699 L49.2530016,306.544999 L49.5500017,305.257998 L49.4780017,306.436999 L49.4780017,315.32 L50.7920019,315.32 L50.7920019,303.439998 L49.0910016,303.439998 L45.680001,313.034 L45.572001,313.574 L45.464001,313.034 L42.0620004,303.439998 L40.3520002,303.439998 L40.3520002,315.32 L41.6660004,315.32 Z M56.4890007,315.536 C58.154001,315.536 59.1800011,314.303 59.3060011,313.835 L59.3060011,315.32 L60.6200014,315.32 L60.6200014,307.930999 L59.2970011,307.930999 L59.2970011,309.379999 C59.1710011,308.839999 58.1360009,307.714999 56.4890007,307.714999 C54.4550003,307.714999 52.8080001,309.235999 52.8080001,311.629999 C52.8080001,314.024 54.4550003,315.536 56.4890007,315.536 Z M56.7410007,314.402 C55.4090005,314.402 54.1310003,313.34 54.1310003,311.629999 C54.1310003,309.919999 55.4090005,308.848999 56.7410007,308.848999 C58.199001,308.848999 59.2700011,309.955999 59.2700011,311.629999 C59.2700011,313.313 58.199001,314.402 56.7410007,314.402 Z M63.6620003,305.203998 C64.1750004,305.203998 64.6070005,304.789998 64.6070005,304.285998 C64.6070005,303.763998 64.1660004,303.349998 63.6620003,303.349998 C63.1580002,303.349998 62.7350002,303.772998 62.7350002,304.285998 C62.7350002,304.789998 63.1490002,305.203998 63.6620003,305.203998 Z M64.3100004,315.32 L64.3100004,307.930999 L62.9780002,307.930999 L62.9780002,315.32 L64.3100004,315.32 Z M68.2250004,315.32 L68.2250004,302.935998 L66.8750002,302.935998 L66.8750002,315.32 L68.2250004,315.32 Z M75.2180009,311.800999 L75.2180009,310.630999 L70.5830002,310.630999 L70.5830002,311.800999 L75.2180009,311.800999 Z M78.1790003,315.32 L79.2500004,312.368 L84.3890013,312.368 L85.4420015,315.32 L86.8460017,315.32 L82.508001,303.439998 L81.1220008,303.439998 L76.766,315.32 L78.1790003,315.32 Z M83.9750012,311.161999 L79.6640005,311.161999 L81.8060009,305.068998 L81.8330009,305.068998 L83.9750012,311.161999 Z M91.4090007,315.536 C93.011001,315.536 94.1810012,314.429 94.3430012,313.835 L94.3430012,315.32 L95.6750014,315.32 L95.6750014,302.935998 L94.3160012,302.935998 L94.3160012,309.379999 C94.2170012,308.803999 93.074001,307.714999 91.4090007,307.714999 C89.3750004,307.714999 87.8450001,309.235999 87.8450001,311.629999 C87.8450001,314.024 89.3750004,315.536 91.4090007,315.536 Z M91.6700007,314.402 C90.3470005,314.402 89.1860003,313.34 89.1860003,311.629999 C89.1860003,309.919999 90.3470005,308.848999 91.6700007,308.848999 C93.128001,308.848999 94.3160012,309.955999 94.3160012,311.629999 C94.3160012,313.313 93.128001,314.402 91.6700007,314.402 Z M98.7890004,315.32 L98.7890004,311.179999 C98.7890004,310.270999 99.5180005,308.866999 100.733001,308.866999 C101.345001,308.866999 101.786001,309.082999 101.948001,309.235999 L102.506001,308.119999 C102.299001,307.948999 101.759001,307.714999 101.066001,307.714999 C99.8150006,307.714999 98.9960004,308.578999 98.7890004,309.082999 L98.7890004,307.930999 L97.4660002,307.930999 L97.4660002,315.32 L98.7890004,315.32 Z M106.871001,315.536 C108.581001,315.536 109.472001,314.969 110.111001,314.042 L109.382001,313.196 C109.103001,313.682 108.365001,314.465 106.952001,314.465 C105.242,314.465 104.396,313.178 104.378,311.764999 L110.291001,311.764999 C110.300001,311.683999 110.318001,311.503999 110.318001,311.395999 C110.318001,309.154999 108.923001,307.714999 106.781001,307.714999 C104.423,307.714999 103.055,309.379999 103.055,311.539999 C103.055,313.862 104.495,315.536 106.871001,315.536 Z M108.977001,310.963999 L104.432,310.963999 C104.504,309.892999 105.098,308.722999 106.790001,308.722999 C108.410001,308.722999 108.950001,309.946999 108.977001,310.963999 Z M114.269001,315.536 C115.835001,315.536 117.365001,314.888 117.365001,313.223 C117.365001,311.809999 116.267001,311.341999 115.025001,311.026999 C113.963,310.765999 113.27,310.414999 113.27,309.748999 C113.27,309.073999 113.981,308.704999 114.872001,308.704999 C115.655001,308.704999 116.321001,309.055999 116.582001,309.271999 L117.149001,308.398999 C116.816001,308.137999 115.862001,307.714999 114.764001,307.714999 C113.252,307.714999 111.956,308.479999 111.956,309.712999 C111.956,311.035999 113.099,311.602999 114.269001,311.881999 C115.196001,312.106999 116.006001,312.386 116.006001,313.223 C116.006001,313.979 115.259001,314.483 114.215001,314.483 C113.288,314.483 112.523,314.051 112.217,313.745 L111.632,314.726 C111.992,315.032 112.955,315.536 114.269001,315.536 Z M121.415001,315.536 C122.981001,315.536 124.511001,314.888 124.511001,313.223 C124.511001,311.809999 123.413001,311.341999 122.171001,311.026999 C121.109,310.765999 120.416,310.414999 120.416,309.748999 C120.416,309.073999 121.127,308.704999 122.018001,308.704999 C122.801001,308.704999 123.467001,309.055999 123.728001,309.271999 L124.295001,308.398999 C123.962001,308.137999 123.008001,307.714999 121.910001,307.714999 C120.398,307.714999 119.102,308.479999 119.102,309.712999 C119.102,311.035999 120.245,311.602999 121.415001,311.881999 C122.342001,312.106999 123.152001,312.386 123.152001,313.223 C123.152001,313.979 122.405001,314.483 121.361001,314.483 C120.434,314.483 119.669,314.051 119.363,313.745 L118.778,314.726 C119.138,315.032 120.101,315.536 121.415001,315.536 Z M129.686001,315.536 C131.396001,315.536 132.287001,314.969 132.926001,314.042 L132.197001,313.196 C131.918001,313.682 131.180001,314.465 129.767001,314.465 C128.057,314.465 127.211,313.178 127.193,311.764999 L133.106001,311.764999 C133.115001,311.683999 133.133001,311.503999 133.133001,311.395999 C133.133001,309.154999 131.738001,307.714999 129.596001,307.714999 C127.238,307.714999 125.87,309.379999 125.87,311.539999 C125.87,313.862 127.31,315.536 129.686001,315.536 Z M131.792001,310.963999 L127.247,310.963999 C127.319,309.892999 127.913,308.722999 129.605001,308.722999 C131.225001,308.722999 131.765001,309.946999 131.792001,310.963999 Z M136.238,309.730999 C136.868,309.730999 137.372001,309.226999 137.372001,308.605999 C137.372001,307.966999 136.868,307.471999 136.238,307.471999 C135.617,307.471999 135.113,307.966999 135.113,308.605999 C135.113,309.226999 135.617,309.730999 136.238,309.730999 Z M136.238,315.536 C136.868,315.536 137.372001,315.032 137.372001,314.411 C137.372001,313.772 136.868,313.277 136.238,313.277 C135.617,313.277 135.113,313.772 135.113,314.411 C135.113,315.032 135.617,315.536 136.238,315.536 Z M145.085,315.32 L145.085,311.989999 L148.631001,315.32 L150.305001,315.32 L146.192001,311.449999 L150.071001,307.930999 L148.415001,307.930999 L145.085,310.927999 L145.085,302.935998 L143.753,302.935998 L143.753,315.32 L145.085,315.32 Z M154.814001,315.536 C157.073001,315.536 158.657001,313.844 158.657001,311.647999 C158.657001,309.451999 157.073001,307.714999 154.814001,307.714999 C152.564,307.714999 150.944,309.451999 150.944,311.647999 C150.944,313.844 152.564,315.536 154.814001,315.536 Z M154.814001,314.366 C153.275,314.366 152.249,313.196 152.249,311.638999 C152.249,310.090999 153.275,308.884999 154.814001,308.884999 C156.362001,308.884999 157.370001,310.090999 157.370001,311.638999 C157.370001,313.196 156.362001,314.366 154.814001,314.366 Z M161.807,315.32 L161.807,311.215999 C161.807,309.829999 162.932001,308.776999 164.057001,308.776999 C165.182001,308.776999 165.983001,309.433999 165.983001,310.972999 L165.983001,315.32 L167.342001,315.32 L167.342001,310.684999 C167.342001,308.587999 165.812001,307.714999 164.390001,307.714999 C163.058001,307.714999 161.942,308.668999 161.807,309.289999 L161.807,307.930999 L160.466,307.930999 L160.466,315.32 L161.807,315.32 Z M172.265001,315.536 C173.192001,315.536 173.795001,315.158 173.903001,315.05 L173.345001,314.06 C173.300001,314.114 173.030001,314.357 172.562001,314.357 C172.031001,314.357 171.671001,313.979 171.671001,313.052 L171.671001,309.100999 L173.624001,309.100999 L173.624001,307.930999 L171.671001,307.930999 L171.671001,304.897998 L170.339,304.897998 L170.339,307.930999 L168.854,307.930999 L168.854,309.100999 L170.339,309.100999 L170.339,313.412 C170.339,314.888 171.176,315.536 172.265001,315.536 Z M178.493001,315.536 C180.158001,315.536 181.184001,314.303 181.310001,313.835 L181.310001,315.32 L182.624001,315.32 L182.624001,307.930999 L181.301001,307.930999 L181.301001,309.379999 C181.175001,308.839999 180.140001,307.714999 178.493001,307.714999 C176.459,307.714999 174.812,309.235999 174.812,311.629999 C174.812,314.024 176.459,315.536 178.493001,315.536 Z M178.745001,314.402 C177.413001,314.402 176.135,313.34 176.135,311.629999 C176.135,309.919999 177.413001,308.848999 178.745001,308.848999 C180.203001,308.848999 181.274001,309.955999 181.274001,311.629999 C181.274001,313.313 180.203001,314.402 178.745001,314.402 Z M185.882,315.32 L185.882,311.989999 L189.428001,315.32 L191.102001,315.32 L186.989001,311.449999 L190.868001,307.930999 L189.212001,307.930999 L185.882,310.927999 L185.882,302.935998 L184.55,302.935998 L184.55,315.32 L185.882,315.32 Z M195.044001,315.536 C195.971001,315.536 196.574001,315.158 196.682001,315.05 L196.124001,314.06 C196.079001,314.114 195.809001,314.357 195.341001,314.357 C194.810001,314.357 194.450001,313.979 194.450001,313.052 L194.450001,309.100999 L196.403001,309.100999 L196.403001,307.930999 L194.450001,307.930999 L194.450001,304.897998 L193.118,304.897998 L193.118,307.930999 L191.633,307.930999 L191.633,309.100999 L193.118,309.100999 L193.118,313.412 C193.118,314.888 193.955,315.536 195.044001,315.536 Z M203.927001,315.536 C206.159001,315.536 207.761002,314.528 208.346002,313.781 L207.419002,313.016 C206.960002,313.637 205.682001,314.465 203.927001,314.465 C201.137001,314.465 198.689,312.296 198.689,309.370999 C198.689,306.418999 201.281001,304.231998 204.125001,304.231998 C207.032002,304.231998 209.210002,306.283999 209.210002,308.920999 C209.210002,310.558999 208.247002,311.242999 207.554002,311.242999 C206.825002,311.242999 206.708002,310.567999 206.708002,310.270999 L206.708002,306.751999 L205.745001,306.751999 L205.745001,307.624999 C205.547001,307.327999 204.755001,306.553999 203.531001,306.553999 C201.731001,306.553999 200.597001,307.831999 200.597001,309.442999 C200.597001,311.071999 201.767001,312.431 203.612001,312.431 C205.025001,312.431 205.907001,311.638999 206.051001,310.981999 C206.141001,311.647999 206.573002,312.169999 207.563002,312.169999 C208.850002,312.169999 210.308002,311.080999 210.308002,308.956999 C210.308002,305.554998 207.491002,303.223998 204.125001,303.223998 C200.606001,303.223998 197.591,305.716998 197.591,309.370999 C197.591,313.034 200.408001,315.536 203.927001,315.536 Z M203.774001,311.458999 C202.532001,311.458999 201.740001,310.576999 201.740001,309.460999 C201.740001,308.344999 202.595001,307.498999 203.774001,307.498999 C204.863001,307.498999 205.754001,308.290999 205.754001,309.406999 C205.754001,310.522999 205.016001,311.458999 203.774001,311.458999 Z M214.736001,315.536 C215.663001,315.536 216.266001,315.158 216.374001,315.05 L215.816001,314.06 C215.771001,314.114 215.501001,314.357 215.033001,314.357 C214.502001,314.357 214.142001,313.979 214.142001,313.052 L214.142001,309.100999 L216.095001,309.100999 L216.095001,307.930999 L214.142001,307.930999 L214.142001,304.897998 L212.81,304.897998 L212.81,307.930999 L211.325,307.930999 L211.325,309.100999 L212.81,309.100999 L212.81,313.412 C212.81,314.888 213.647,315.536 214.736001,315.536 Z M219.227,315.32 L219.227,311.215999 C219.227,309.829999 220.370001,308.776999 221.495001,308.776999 C222.620001,308.776999 223.403001,309.433999 223.403001,310.972999 L223.403001,315.32 L224.753001,315.32 L224.753001,310.684999 C224.753001,308.587999 223.232001,307.714999 221.810001,307.714999 C220.469001,307.714999 219.353,308.668999 219.227,309.289999 L219.227,302.935998 L217.859,302.935998 L217.859,315.32 L219.227,315.32 Z M230.270001,315.536 C231.980001,315.536 232.871001,314.969 233.510001,314.042 L232.781001,313.196 C232.502001,313.682 231.764001,314.465 230.351001,314.465 C228.641,314.465 227.795,313.178 227.777,311.764999 L233.690001,311.764999 C233.699001,311.683999 233.717001,311.503999 233.717001,311.395999 C233.717001,309.154999 232.322001,307.714999 230.180001,307.714999 C227.822,307.714999 226.454,309.379999 226.454,311.539999 C226.454,313.862 227.894,315.536 230.270001,315.536 Z M232.376001,310.963999 L227.831,310.963999 C227.903,309.892999 228.497,308.722999 230.189001,308.722999 C231.809001,308.722999 232.349001,309.946999 232.376001,310.963999 Z M236.912,315.32 L236.912,302.935998 L235.562,302.935998 L235.562,315.32 L236.912,315.32 Z M240.134,305.203998 C240.647,305.203998 241.079,304.789998 241.079,304.285998 C241.079,303.763998 240.638,303.349998 240.134,303.349998 C239.63,303.349998 239.207,303.772998 239.207,304.285998 C239.207,304.789998 239.621,305.203998 240.134,305.203998 Z M240.782,315.32 L240.782,307.930999 L239.45,307.930999 L239.45,315.32 L240.782,315.32 Z M245.462001,315.32 L245.462001,309.091999 L247.613001,309.091999 L247.613001,307.930999 L245.462001,307.930999 L245.462001,305.968998 C245.462001,304.213998 246.137001,303.889998 246.767001,303.889998 C247.343001,303.889998 247.667001,304.168998 247.730001,304.231998 L248.279001,303.196998 C248.180001,303.106998 247.658001,302.719998 246.668001,302.719998 C245.435001,302.719998 244.139,303.538998 244.139,305.806998 L244.139,307.930999 L242.564,307.930999 L242.564,309.091999 L244.139,309.091999 L244.139,315.32 L245.462001,315.32 Z M251.861001,315.536 C252.788001,315.536 253.391001,315.158 253.499001,315.05 L252.941001,314.06 C252.896001,314.114 252.626001,314.357 252.158001,314.357 C251.627001,314.357 251.267001,313.979 251.267001,313.052 L251.267001,309.100999 L253.220001,309.100999 L253.220001,307.930999 L251.267001,307.930999 L251.267001,304.897998 L249.935,304.897998 L249.935,307.930999 L248.45,307.930999 L248.45,309.100999 L249.935,309.100999 L249.935,313.412 C249.935,314.888 250.772,315.536 251.861001,315.536 Z M256.298,315.32 L256.298,311.215999 C256.298,309.829999 257.423001,308.776999 258.548001,308.776999 C259.673001,308.776999 260.474001,309.433999 260.474001,310.972999 L260.474001,315.32 L261.833001,315.32 L261.833001,310.684999 C261.833001,308.587999 260.303001,307.714999 258.881001,307.714999 C257.549001,307.714999 256.433,308.668999 256.298,309.289999 L256.298,307.930999 L254.957,307.930999 L254.957,315.32 L256.298,315.32 Z M267.269001,315.536 C268.979001,315.536 269.870001,314.969 270.509001,314.042 L269.780001,313.196 C269.501001,313.682 268.763001,314.465 267.350001,314.465 C265.64,314.465 264.794,313.178 264.776,311.764999 L270.689001,311.764999 C270.698001,311.683999 270.716001,311.503999 270.716001,311.395999 C270.716001,309.154999 269.321001,307.714999 267.179001,307.714999 C264.821,307.714999 263.453,309.379999 263.453,311.539999 C263.453,313.862 264.893,315.536 267.269001,315.536 Z M269.375001,310.963999 L264.83,310.963999 C264.902,309.892999 265.496,308.722999 267.188001,308.722999 C268.808001,308.722999 269.348001,309.946999 269.375001,310.963999 Z M274.667001,315.536 C276.233001,315.536 277.763001,314.888 277.763001,313.223 C277.763001,311.809999 276.665001,311.341999 275.423001,311.026999 C274.361,310.765999 273.668,310.414999 273.668,309.748999 C273.668,309.073999 274.379,308.704999 275.270001,308.704999 C276.053001,308.704999 276.719001,309.055999 276.980001,309.271999 L277.547001,308.398999 C277.214001,308.137999 276.260001,307.714999 275.162001,307.714999 C273.65,307.714999 272.354,308.479999 272.354,309.712999 C272.354,311.035999 273.497,311.602999 274.667001,311.881999 C275.594001,312.106999 276.404001,312.386 276.404001,313.223 C276.404001,313.979 275.657001,314.483 274.613001,314.483 C273.686,314.483 272.921,314.051 272.615,313.745 L272.03,314.726 C272.39,315.032 273.353,315.536 274.667001,315.536 Z M282.425001,315.536 C283.352001,315.536 283.955001,315.158 284.063001,315.05 L283.505001,314.06 C283.460001,314.114 283.190001,314.357 282.722001,314.357 C282.191001,314.357 281.831001,313.979 281.831001,313.052 L281.831001,309.100999 L283.784001,309.100999 L283.784001,307.930999 L281.831001,307.930999 L281.831001,304.897998 L280.499,304.897998 L280.499,307.930999 L279.014,307.930999 L279.014,309.100999 L280.499,309.100999 L280.499,313.412 C280.499,314.888 281.336,315.536 282.425001,315.536 Z M287.141,315.536 C287.771001,315.536 288.275001,315.032 288.275001,314.411 C288.275001,313.772 287.771001,313.277 287.141,313.277 C286.52,313.277 286.016,313.772 286.016,314.411 C286.016,315.032 286.52,315.536 287.141,315.536 Z M294.422001,315.536 C295.754001,315.536 296.726001,314.969 296.897001,314.825 L296.222001,313.835 C296.078001,313.97 295.466001,314.402 294.476001,314.402 C293.261001,314.402 291.974,313.385 291.974,311.620999 C291.974,309.865999 293.261001,308.848999 294.476001,308.848999 C295.475001,308.848999 296.033001,309.361999 296.186001,309.496999 L296.861001,308.515999 C296.654001,308.326999 295.736001,307.714999 294.422001,307.714999 C292.496,307.714999 290.678,309.073999 290.678,311.620999 C290.678,314.168 292.496,315.536 294.422001,315.536 Z M301.865001,315.536 C304.124001,315.536 305.708001,313.844 305.708001,311.647999 C305.708001,309.451999 304.124001,307.714999 301.865001,307.714999 C299.615,307.714999 297.995,309.451999 297.995,311.647999 C297.995,313.844 299.615,315.536 301.865001,315.536 Z M301.865001,314.366 C300.326,314.366 299.3,313.196 299.3,311.638999 C299.3,310.090999 300.326,308.884999 301.865001,308.884999 C303.413001,308.884999 304.421001,310.090999 304.421001,311.638999 C304.421001,313.196 303.413001,314.366 301.865001,314.366 Z M308.921,315.32 L308.921,311.323999 C308.921,309.505999 309.875001,308.785999 310.847001,308.785999 C311.873001,308.785999 312.503001,309.613999 312.503001,311.323999 L312.503001,315.32 L313.754001,315.32 L313.754001,311.323999 C313.754001,309.550999 314.753001,308.785999 315.716002,308.785999 C316.949002,308.785999 317.345002,309.613999 317.345002,311.323999 L317.345002,315.32 L318.668002,315.32 L318.668002,311.026999 C318.668002,308.767999 317.741002,307.714999 316.103002,307.714999 C314.762001,307.714999 313.754001,308.650999 313.502001,309.451999 C313.322001,308.749999 312.674001,307.714999 311.324001,307.714999 C310.046001,307.714999 309.101,308.524999 308.921,309.073999 L308.921,307.930999 L307.589,307.930999 L307.589,315.32 L308.921,315.32 Z" id="MarcusAschenbrenner&amp;AljazPrimozictheLiftNestGbRFranklinstr.2501069,Dresden,DeutschlandE-Mail-Adresse:kontakt@theliftnest.com"></path>
        </g>
    </g>
</svg>