<?xml version="1.0" encoding="utf-8"?>
<!-- Generator: Adobe Illustrator 22.1.0, SVG Export Plug-In . SVG Version: 6.00 Build 0)  -->
<svg version="1.1" id="Layer_1" xmlns="http://www.w3.org/2000/svg" xmlns:xlink="http://www.w3.org/1999/xlink" x="0px" y="0px"
	 viewBox="0 0 92 92" style="enable-background:new 0 0 92 92;" xml:space="preserve">
<style type="text/css">
	.st0{fill:#FFFFFF;}
	.st1{fill:#37374C;}
</style>
<title>the-lifnest-birds</title>
<path id="Fill-4" class="st0" d="M69,59.5c-0.6,0-1.1-0.5-1.1-1.1c0-0.6,0.5-1.1,1.1-1.1s1.1,0.5,1.1,1.1C70.1,59,69.6,59.5,69,59.5
	L69,59.5z M58.2,34.4c-1.3,0-2.4-1.1-2.4-2.4c0-1.3,1.1-2.4,2.4-2.4c1.3,0,2.4,1.1,2.4,2.4C60.6,33.4,59.5,34.4,58.2,34.4L58.2,34.4
	z M34.5,57.3c-0.6,0-1.1-0.5-1.1-1.1c0-0.6,0.5-1.1,1.1-1.1c0.6,0,1.1,0.5,1.1,1.1C35.6,56.8,35.1,57.3,34.5,57.3L34.5,57.3z
	 M26.1,64.5c-0.6,0-1.1-0.5-1.1-1.1c0-0.6,0.5-1.1,1.1-1.1c0.6,0,1.1,0.5,1.1,1.1C27.2,64,26.7,64.5,26.1,64.5L26.1,64.5z
	 M32.9,34.4c-1.3,0-2.4-1.1-2.4-2.4c0-1.3,1.1-2.4,2.4-2.4c1.3,0,2.4,1.1,2.4,2.4C35.3,33.4,34.2,34.4,32.9,34.4L32.9,34.4z
	 M30.2,46.4c-0.6,0-1.1-0.5-1.1-1.1c0-0.6,0.5-1.1,1.1-1.1c0.6,0,1.1,0.5,1.1,1.1C31.3,45.9,30.8,46.4,30.2,46.4L30.2,46.4z
	 M21.5,54.4c-1.7,1.7-4.2,1.9-4.5,1.6c-0.3-0.3-0.1-2.8,1.6-4.5c1.7-1.7,4.2-1.9,4.5-1.6C23.5,50.2,23.2,52.7,21.5,54.4L21.5,54.4z
	 M71.2,46.2c0.6,0,1.1,0.5,1.1,1.1c0,0.6-0.5,1.1-1.1,1.1c-0.6,0-1.1-0.5-1.1-1.1C70.1,46.7,70.6,46.2,71.2,46.2L71.2,46.2z
	 M72.2,55.8C72.2,55.8,72.2,55.8,72.2,55.8l-3.7-3.7c-0.4-0.4-0.4-1.1,0-1.5c0.4-0.4,1.1-0.4,1.5,0l1.9,1.9v-0.9c0-0.6,0.5-1,1-1
	s1,0.5,1,1v2.9l1.9,1.9c1.2-3.2,2-6.6,2.1-10.2c0-0.7-0.6-1.3-1.3-1.3h-9.6V33.6c0-0.5-0.1-1-0.1-1.5l3.7-3.5
	c0.3-0.3,0.1-0.8-0.3-0.8l-5.3,0.1c-1.6-1.9-4-3-6.6-3H58c-4.8,0-8.7,3.9-8.7,8.7v11.5h-3c0.5,0.3,0.9,0.6,1.3,1
	c2.1,2.1,2.4,5.1,2,5.5c-0.4,0.4-3.4,0.1-5.5-2c-1.5-1.5-2-3.4-2.1-4.5h0V33.6c0-0.5,0-1-0.1-1.5l3.7-3.5c0.3-0.3,0.1-0.8-0.3-0.8
	l-5.3,0.1c-1.6-1.9-4-3-6.6-3h-0.5c-4.8,0-8.7,3.9-8.7,8.7v11.5h-9.6c-0.7,0-1.3,0.6-1.3,1.3c0.2,6,2.2,11.7,5.3,16.4l8.3-8.3v-5.5
	c0-0.6,0.5-1,1-1c0.6,0,1,0.5,1,1v3.5l4.9-4.9c0.4-0.4,1.1-0.4,1.5,0c0.4,0.4,0.4,1.1,0,1.5L19.6,64.5c0,0-0.1,0-0.1,0.1
	c1.6,2.1,3.4,4,5.4,5.7l4.5-4.5v-6.6c0-0.6,0.5-1,1-1c0.6,0,1,0.5,1,1v4.5l2.8-2.8c0.4-0.4,1.1-0.4,1.5,0c0.4,0.4,0.4,1.1,0,1.5
	l-9.2,9.2c2.4,1.7,5,3.1,7.9,4.2l0.7-0.7v-3.7c0-0.6,0.5-1,1-1c0.6,0,1,0.5,1,1v1.6l2.6-2.6c0,0,0,0,0-0.1V51.9c0-0.6,0.5-1,1-1
	c0.6,0,1,0.5,1,1v7.9l1.9-1.9c0.4-0.4,1.1-0.4,1.5,0c0.4,0.4,0.4,1.1,0,1.5l-3.4,3.4v5.5l9.2-9.2l-2.5-2.5c-0.4-0.4-0.4-1.1,0-1.5
	c0.4-0.4,1.1-0.4,1.5,0l1.1,1.1V39.6c0-0.6,0.5-1,1-1c0.6,0,1,0.5,1,1v6.3c0.2-0.3,0.4-0.5,0.6-0.8c1.4-1.4,3.6-1.7,3.8-1.4
	c0.3,0.3,0.1,2.4-1.4,3.8c-1,1-2.3,1.4-3.1,1.5v7.9l3.3-3.3c0,0,0,0,0,0l2.5-2.5V48c0-0.6,0.5-1,1-1s1,0.5,1,1v1l2.4-2.4
	c0.4-0.4,1.1-0.4,1.5,0c0.4,0.4,0.4,1.1,0,1.5l-5.2,5.2H66c0.6,0,1,0.5,1,1c0,0.6-0.5,1-1,1h-8.3l-6,6h2.7c0.6,0,1,0.5,1,1
	c0,0.6-0.5,1-1,1h-4.7L36.7,76.4c2.4,0.7,4.9,1.1,7.5,1.2l4.8-4.8v-4.9c0-0.6,0.5-1,1-1s1,0.5,1,1v2.8l2.9-2.9c0,0,0,0,0,0l3.6-3.6
	c0.4-0.4,1.1-0.4,1.5,0c0.4,0.4,0.4,1.1,0,1.5l-1.8,1.8h0.9c0.6,0,1,0.5,1,1c0,0.6-0.5,1-1,1h-3l-8,8c6.2-0.3,12-2.3,16.8-5.7
	c0-0.1,0-0.1,0-0.2v-6.2l-3.1-3.1c-0.4-0.4-0.4-1.1,0-1.5c0.4-0.4,1.1-0.4,1.5,0l1.6,1.6v-4.1c0-0.6,0.5-1,1-1c0.6,0,1,0.5,1,1v12
	c3.9-3.2,7-7.2,9.1-11.8c-0.2,0-0.3-0.1-0.5-0.3L72.2,55.8z"/>
<g>
	<path class="st1" d="M19.1,52c-1.7,1.7-1.9,4.2-1.6,4.5c0.3,0.3,2.8,0.1,4.5-1.6s1.9-4.2,1.6-4.5C23.3,50,20.8,50.3,19.1,52z"/>
	<path class="st1" d="M26.6,62.7c-0.6,0-1.1,0.5-1.1,1.1s0.5,1.1,1.1,1.1c0.6,0,1.1-0.5,1.1-1.1S27.2,62.7,26.6,62.7z"/>
	<path class="st1" d="M33.3,30.1c-1.3,0-2.4,1.1-2.4,2.4c0,1.3,1.1,2.4,2.4,2.4c1.3,0,2.4-1.1,2.4-2.4
		C35.7,31.2,34.7,30.1,33.3,30.1z"/>
	<path class="st1" d="M30.6,44.6c-0.6,0-1.1,0.5-1.1,1.1s0.5,1.1,1.1,1.1c0.6,0,1.1-0.5,1.1-1.1S31.2,44.6,30.6,44.6z"/>
	<path class="st1" d="M35,55.6c-0.6,0-1.1,0.5-1.1,1.1s0.5,1.1,1.1,1.1s1.1-0.5,1.1-1.1S35.6,55.6,35,55.6z"/>
	<path class="st1" d="M71.7,46.7c-0.6,0-1.1,0.5-1.1,1.1s0.5,1.1,1.1,1.1c0.6,0,1.1-0.5,1.1-1.1S72.3,46.7,71.7,46.7z"/>
	<path class="st1" d="M46,0.5C20.8,0.5,0.5,20.8,0.5,46S20.8,91.5,46,91.5S91.5,71.2,91.5,46S71.2,0.5,46,0.5z M76.4,57.1l-1.9-1.9
		v-2.9c0-0.6-0.5-1-1-1c-0.6,0-1,0.5-1,1v0.9l-1.9-1.9c-0.4-0.4-1.1-0.4-1.5,0c-0.4,0.4-0.4,1.1,0,1.5l3.7,3.7c0,0,0,0,0,0l2.5,2.5
		c0.1,0.1,0.3,0.2,0.5,0.3c-2.1,4.6-5.3,8.7-9.1,11.8v-12c0-0.6-0.5-1-1-1c-0.6,0-1,0.5-1,1V63l-1.6-1.6c-0.4-0.4-1.1-0.4-1.5,0
		c-0.4,0.4-0.4,1.1,0,1.5l3.1,3.1v6.2c0,0.1,0,0.1,0,0.2c-4.8,3.3-10.6,5.4-16.8,5.7l8-8h3c0.6,0,1-0.5,1-1c0-0.6-0.5-1-1-1h-0.9
		l1.8-1.8c0.4-0.4,0.4-1.1,0-1.5c-0.4-0.4-1.1-0.4-1.5,0l-3.6,3.6c0,0,0,0,0,0l-2.9,2.9v-2.8c0-0.6-0.5-1-1-1c-0.6,0-1,0.5-1,1v4.9
		L44.7,78c-2.6-0.1-5.1-0.5-7.5-1.2l12.9-12.9h4.7c0.6,0,1-0.5,1-1c0-0.6-0.5-1-1-1h-2.7l6-6h8.3c0.6,0,1-0.5,1-1c0-0.6-0.5-1-1-1
		h-6.2l5.2-5.2c0.4-0.4,0.4-1.1,0-1.5c-0.4-0.4-1.1-0.4-1.5,0l-2.4,2.4v-1c0-0.6-0.5-1-1-1c-0.6,0-1,0.5-1,1v3.1L57,54.1
		c0,0,0,0,0,0l-3.3,3.3v-7.9c0.8-0.1,2.1-0.5,3.1-1.5c1.4-1.4,1.7-3.6,1.4-3.8c-0.3-0.3-2.4-0.1-3.8,1.4c-0.2,0.2-0.4,0.5-0.6,0.8
		v-6.3c0-0.6-0.5-1-1-1c-0.6,0-1,0.5-1,1v16.6l-1.1-1.1c-0.4-0.4-1.1-0.4-1.5,0c-0.4,0.4-0.4,1.1,0,1.5l2.5,2.5l-9.2,9.2v-5.5
		l3.4-3.4c0.4-0.4,0.4-1.1,0-1.5c-0.4-0.4-1.1-0.4-1.5,0l-1.9,1.9v-7.9c0-0.6-0.5-1-1-1c-0.6,0-1,0.5-1,1v18.3c0,0,0,0,0,0.1
		l-2.6,2.6v-1.6c0-0.6-0.5-1-1-1c-0.6,0-1,0.5-1,1v3.7l-0.7,0.7c-2.8-1-5.5-2.4-7.9-4.2l9.2-9.2c0.4-0.4,0.4-1.1,0-1.5
		c-0.4-0.4-1.1-0.4-1.5,0l-2.8,2.8v-4.5c0-0.6-0.5-1-1-1s-1,0.5-1,1v6.6l-4.5,4.5c-2-1.7-3.8-3.6-5.4-5.7c0,0,0.1,0,0.1-0.1
		l15.5-15.5c0.4-0.4,0.4-1.1,0-1.5c-0.4-0.4-1.1-0.4-1.5,0L29.2,53v-3.5c0-0.6-0.5-1-1-1s-1,0.5-1,1V55l-8.3,8.3
		c-3.1-4.8-5-10.4-5.3-16.4c0-0.7,0.6-1.3,1.3-1.3h9.6V34.1c0-4.8,3.9-8.7,8.7-8.7h0.5c2.6,0,5,1.2,6.6,3l5.3-0.1
		c0.4,0,0.6,0.5,0.3,0.8l-3.7,3.5c0.1,0.5,0.1,1,0.1,1.5v11.5h0c0.1,1.2,0.7,3.1,2.1,4.5c2.1,2.1,5.1,2.4,5.5,2
		c0.4-0.4,0.1-3.4-2-5.5c-0.4-0.4-0.9-0.7-1.3-1h3V34.1c0-4.8,3.9-8.7,8.7-8.7H59c2.6,0,5,1.2,6.6,3l5.3-0.1c0.4,0,0.6,0.5,0.3,0.8
		l-3.7,3.5c0.1,0.5,0.1,1,0.1,1.5v11.5h9.6c0.7,0,1.3,0.6,1.3,1.3C78.3,50.5,77.6,53.9,76.4,57.1z"/>
	<path class="st1" d="M69.5,60c0.6,0,1.1-0.5,1.1-1.1s-0.5-1.1-1.1-1.1c-0.6,0-1.1,0.5-1.1,1.1S68.9,60,69.5,60z"/>
	<path class="st1" d="M58.7,30.1c-1.3,0-2.4,1.1-2.4,2.4c0,1.3,1.1,2.4,2.4,2.4c1.3,0,2.4-1.1,2.4-2.4C61.1,31.2,60,30.1,58.7,30.1z
		"/>
</g>
</svg>
