<?xml version="1.0" encoding="UTF-8"?>
<svg width="92px" height="92px" viewBox="0 0 92 92" version="1.1" xmlns="http://www.w3.org/2000/svg" xmlns:xlink="http://www.w3.org/1999/xlink">
    <title>the-lifnest-birds</title>
    <defs>
        <polygon id="path-1" points="0 0.923 91.0767 0.923 91.0767 92 0 92"></polygon>
    </defs>
    <g id="lg---1400" stroke="none" stroke-width="1" fill="none" fill-rule="evenodd">
        <g id="coming-soon-landing-copy-2" transform="translate(-397.000000, -158.000000)">
            <g id="Group-6" transform="translate(397.000000, 157.000000)">
                <g id="Group-3" transform="translate(0.000000, 0.077200)">
                    <mask id="mask-2" fill="white">
                        <use xlink:href="#path-1"></use>
                    </mask>
                    <g id="Clip-2"></g>
                    <path d="M91.0767,46.4614 C91.0767,71.6114 70.6887,92.0004 45.5387,92.0004 C20.3887,92.0004 -0.0003,71.6114 -0.0003,46.4614 C-0.0003,21.3114 20.3887,0.9224 45.5387,0.9224 C70.6887,0.9224 91.0767,21.3114 91.0767,46.4614" id="Fill-1" fill="#FF5B29" mask="url(#mask-2)"></path>
                </g>
                <path d="M69.0357,60.5147 C68.4277,60.5147 67.9327,60.0217 67.9327,59.4127 C67.9327,58.8047 68.4277,58.3107 69.0357,58.3107 C69.6437,58.3107 70.1387,58.8047 70.1387,59.4127 C70.1387,60.0217 69.6437,60.5147 69.0357,60.5147 L69.0357,60.5147 Z M58.2217,35.4467 C56.8927,35.4467 55.8167,34.3697 55.8167,33.0417 C55.8167,31.7147 56.8927,30.6377 58.2217,30.6377 C59.5487,30.6377 60.6257,31.7147 60.6257,33.0417 C60.6257,34.3697 59.5487,35.4467 58.2217,35.4467 L58.2217,35.4467 Z M34.4957,58.3107 C33.8877,58.3107 33.3927,57.8177 33.3927,57.2087 C33.3927,56.5997 33.8877,56.1067 34.4957,56.1067 C35.1037,56.1067 35.5977,56.5997 35.5977,57.2087 C35.5977,57.8177 35.1037,58.3107 34.4957,58.3107 L34.4957,58.3107 Z M26.1317,65.4737 C25.5227,65.4737 25.0287,64.9797 25.0287,64.3717 C25.0287,63.7637 25.5227,63.2697 26.1317,63.2697 C26.7397,63.2697 27.2337,63.7637 27.2337,64.3717 C27.2337,64.9797 26.7397,65.4737 26.1317,65.4737 L26.1317,65.4737 Z M32.8837,35.4467 C31.5557,35.4467 30.4797,34.3697 30.4797,33.0417 C30.4797,31.7147 31.5557,30.6377 32.8837,30.6377 C34.2107,30.6377 35.2877,31.7147 35.2877,33.0417 C35.2877,34.3697 34.2107,35.4467 32.8837,35.4467 L32.8837,35.4467 Z M30.1727,47.3617 C29.5627,47.3617 29.0697,46.8687 29.0697,46.2597 C29.0697,45.6507 29.5627,45.1577 30.1727,45.1577 C30.7807,45.1577 31.2737,45.6507 31.2737,46.2597 C31.2737,46.8687 30.7807,47.3617 30.1727,47.3617 L30.1727,47.3617 Z M21.5087,55.4277 C19.8147,57.1207 17.3087,57.3617 16.9917,57.0447 C16.6757,56.7277 16.9157,54.2227 18.6097,52.5277 C20.3047,50.8337 22.7957,50.5797 23.1267,50.9107 C23.4577,51.2407 23.2027,53.7327 21.5087,55.4277 L21.5087,55.4277 Z M71.2397,47.2447 C71.8487,47.2447 72.3417,47.7387 72.3417,48.3477 C72.3417,48.9557 71.8487,49.4497 71.2397,49.4497 C70.6317,49.4497 70.1387,48.9557 70.1387,48.3477 C70.1387,47.7387 70.6317,47.2447 71.2397,47.2447 L71.2397,47.2447 Z M72.2287,56.8457 C72.2267,56.8437 72.2237,56.8407 72.2227,56.8387 L68.5467,53.1617 C68.1397,52.7557 68.1397,52.0977 68.5467,51.6907 C68.9527,51.2857 69.6107,51.2857 70.0167,51.6907 L71.9207,53.5947 L71.9207,52.7377 C71.9207,52.1627 72.3867,51.6967 72.9607,51.6967 C73.5347,51.6967 74.0007,52.1627 74.0007,52.7377 L74.0007,55.6747 L75.9377,57.6127 C77.1427,54.4257 77.8887,51.0147 78.0297,47.4407 C78.0567,46.7307 77.4657,46.1377 76.7557,46.1377 L67.1947,46.1377 L67.1947,34.6047 C67.1947,34.1057 67.1427,33.6197 67.0627,33.1437 L70.7487,29.6197 C71.0587,29.3227 70.8427,28.7977 70.4117,28.8067 L65.0777,28.9267 C63.4817,27.0767 61.1257,25.9017 58.4907,25.9017 L57.9517,25.9017 C53.1437,25.9017 49.2477,29.7977 49.2477,34.6047 L49.2477,46.1377 L46.2207,46.1377 C46.6727,46.4157 47.1187,46.7347 47.5237,47.1397 C49.5917,49.2077 49.8857,52.2667 49.4987,52.6537 C49.1117,53.0407 46.0537,52.7467 43.9847,50.6797 C42.5277,49.2227 41.9547,47.2987 41.8777,46.1377 L41.8567,46.1377 L41.8567,34.6047 C41.8567,34.1057 41.8067,33.6197 41.7247,33.1437 L45.4107,29.6197 C45.7217,29.3227 45.5047,28.7977 45.0737,28.8067 L39.7407,28.9267 C38.1437,27.0767 35.7887,25.9017 33.1527,25.9017 L32.6137,25.9017 C27.8067,25.9017 23.9097,29.7977 23.9097,34.6047 L23.9097,46.1377 L14.3487,46.1377 C13.6397,46.1377 13.0477,46.7307 13.0757,47.4407 C13.3137,53.4907 15.2347,59.0957 18.3407,63.8557 L26.6137,55.5817 L26.6137,50.0507 C26.6137,49.4757 27.0797,49.0107 27.6547,49.0107 C28.2287,49.0107 28.6947,49.4757 28.6947,50.0507 L28.6947,53.5017 L33.6247,48.5727 C34.0297,48.1657 34.6887,48.1657 35.0957,48.5727 C35.5017,48.9787 35.5017,49.6367 35.0957,50.0427 L19.6447,65.4937 C19.6107,65.5267 19.5667,65.5407 19.5297,65.5697 C21.0997,67.6677 22.9087,69.5737 24.9307,71.2367 L29.4057,66.7607 L29.4057,60.1397 C29.4057,59.5657 29.8707,59.0997 30.4457,59.0997 C31.0197,59.0997 31.4857,59.5657 31.4857,60.1397 L31.4857,64.6797 L34.3207,61.8447 C34.7267,61.4387 35.3857,61.4387 35.7917,61.8447 C36.1977,62.2507 36.1977,62.9097 35.7917,63.3157 L26.6037,72.5047 C29.0007,74.2297 31.6357,75.6317 34.4587,76.6587 L35.1427,75.9747 L35.1427,72.3177 C35.1427,71.7437 35.6087,71.2777 36.1827,71.2777 C36.7577,71.2777 37.2237,71.7437 37.2237,72.3177 L37.2237,73.8947 L39.8007,71.3177 C39.7997,71.2967 39.7887,71.2797 39.7887,71.2587 L39.7887,52.9157 C39.7887,52.3407 40.2537,51.8757 40.8287,51.8757 C41.4027,51.8757 41.8687,52.3407 41.8687,52.9157 L41.8687,60.8007 L43.8137,58.8567 C44.2217,58.4487 44.8807,58.4517 45.2847,58.8567 C45.6907,59.2627 45.6907,59.9207 45.2847,60.3277 L41.8687,63.7427 L41.8687,69.2497 L51.0387,60.0787 L48.5117,57.5507 C48.1047,57.1447 48.1047,56.4857 48.5117,56.0797 C48.9197,55.6737 49.5777,55.6737 49.9827,56.0797 L51.1107,57.2087 L51.1107,40.6297 C51.1107,40.0547 51.5767,39.5897 52.1507,39.5897 C52.7257,39.5897 53.1917,40.0547 53.1917,40.6297 L53.1917,46.8877 C53.3647,46.6247 53.5567,46.3677 53.7937,46.1307 C55.2357,44.6887 57.3557,44.4727 57.6377,44.7537 C57.9187,45.0357 57.7017,47.1567 56.2617,48.5977 C55.2867,49.5717 54.0087,49.9727 53.1917,50.0527 L53.1917,57.9267 L56.5187,54.5987 C56.5217,54.5957 56.5237,54.5937 56.5267,54.5917 L59.0077,52.1107 L59.0077,49.0117 C59.0077,48.4367 59.4727,47.9717 60.0477,47.9717 C60.6227,47.9717 61.0877,48.4367 61.0877,49.0117 L61.0877,50.0307 L63.5067,47.6117 C63.9127,47.2057 64.5707,47.2057 64.9767,47.6117 C65.3837,48.0177 65.3837,48.6767 64.9767,49.0827 L59.7707,54.2897 L65.9697,54.2897 C66.5447,54.2897 67.0097,54.7547 67.0097,55.3297 C67.0097,55.9037 66.5447,56.3697 65.9697,56.3697 L57.6897,56.3697 L51.6867,62.3727 L54.3377,62.3727 C54.9117,62.3727 55.3777,62.8387 55.3777,63.4127 C55.3777,63.9877 54.9117,64.4527 54.3377,64.4527 L49.6067,64.4527 L36.6717,77.3887 C39.0787,78.0707 41.5997,78.4667 44.1997,78.5737 L49.0277,73.7457 L49.0277,68.8297 C49.0277,68.2557 49.4937,67.7897 50.0677,67.7897 C50.6417,67.7897 51.1077,68.2557 51.1077,68.8297 L51.1077,71.6657 L53.9917,68.7827 C53.9937,68.7807 53.9957,68.7787 53.9967,68.7767 L57.5647,65.2087 C57.9717,64.8027 58.6307,64.8027 59.0367,65.2087 C59.4427,65.6157 59.4427,66.2737 59.0367,66.6807 L57.2417,68.4747 L58.1617,68.4747 C58.7357,68.4747 59.2017,68.9407 59.2017,69.5147 C59.2017,70.0897 58.7357,70.5557 58.1617,70.5557 L55.1617,70.5557 L47.1537,78.5607 C53.3797,78.2577 59.1397,76.2197 63.9627,72.8947 C63.9537,72.8437 63.9317,72.7967 63.9317,72.7427 L63.9317,66.4957 L60.8497,63.4147 C60.4437,63.0087 60.4437,62.3497 60.8497,61.9437 C61.2567,61.5367 61.9147,61.5367 62.3207,61.9437 L63.9317,63.5537 L63.9317,59.4137 C63.9317,58.8387 64.3967,58.3727 64.9717,58.3727 C65.5457,58.3727 66.0117,58.8387 66.0117,59.4137 L66.0117,71.3797 C69.9057,68.2197 73.0577,64.1837 75.1577,59.5627 C74.9897,59.5167 74.8277,59.4437 74.6957,59.3117 L72.2287,56.8457 Z" id="Fill-4" fill="#FFFFFF"></path>
            </g>
        </g>
    </g>
</svg>