<?xml version="1.0" encoding="UTF-8"?>
<svg width="173px" height="49px" viewBox="0 0 173 49" version="1.1" xmlns="http://www.w3.org/2000/svg" xmlns:xlink="http://www.w3.org/1999/xlink">
    <title>the-lift-nest-logo</title>
    <defs>
        <polygon id="path-1" points="0 0.444985594 8.44202966 0.444985594 8.44202966 5.56416136 0 5.56416136"></polygon>
        <polygon id="path-3" points="0 48.6122076 172.479413 48.6122076 172.479413 5.33747864e-05 0 5.33747864e-05"></polygon>
    </defs>
    <g id="lg---1400" stroke="none" stroke-width="1" fill="none" fill-rule="evenodd">
        <g id="privacy-policy" transform="translate(-160.000000, -1515.000000)">
            <g id="Group-2" transform="translate(0.000000, 1460.000000)">
                <g id="Group-27" transform="translate(160.000000, 55.000000)">
                    <path d="M3.40524312,39.1719159 L1.33770795,39.1719159 L1.33770795,37.9154734 L3.40524312,37.9154734 L3.40524312,36.6467547 L4.47287003,36.6467547 L4.47287003,37.9154734 L6.69383028,37.9154734 C7.25198012,37.9154734 7.51597706,37.7174529 7.51597706,37.3646456 C7.51597706,37.080158 7.36202294,36.900285 7.32551835,36.8698613 L8.23972018,36.3868195 C8.31325841,36.4674154 8.58942355,36.9814146 8.58942355,37.6929005 C8.58942355,38.5404921 8.10481193,39.1719159 7.03136544,39.1719159 L4.47287003,39.1719159 L4.47287003,40.1379995 L3.40524312,40.1379995 L3.40524312,39.1719159 Z" id="Fill-1" fill="#37374C"></path>
                    <g id="Group-5" transform="translate(0.000000, 29.931032)">
                        <mask id="mask-2" fill="white">
                            <use xlink:href="#path-1"></use>
                        </mask>
                        <g id="Clip-4"></g>
                        <path d="M5.31321621,0.444985594 L8.44202966,0.444985594 L8.44202966,1.72010924 L5.55234771,1.72010924 C4.61962905,1.72010924 4.20220703,2.19087486 4.20220703,2.88367959 C4.20220703,3.58342303 4.83495321,4.28263274 5.68090734,4.28263274 L8.44202966,4.28263274 L8.44202966,5.56416136 L-5.29051988e-05,5.56416136 L-5.29051988e-05,4.28263274 L4.26410612,4.28263274 C3.84721315,4.17748441 3.25784924,3.42863615 3.25784924,2.53727722 C3.25784924,1.52796001 3.85885229,0.444985594 5.31321621,0.444985594" id="Fill-3" fill="#37374C" mask="url(#mask-2)"></path>
                    </g>
                    <path d="M4.14147187,26.6799207 C4.14147187,27.6395994 4.79167676,28.0169591 5.46039847,28.0607265 L5.46039847,25.3989259 C4.8287104,25.417607 4.14147187,25.7517332 4.14147187,26.6799207 M7.63215688,26.5192626 C7.63215688,25.6460511 7.20256667,25.1267144 6.90788471,24.922289 L7.69987554,24.3340989 C8.22099174,24.7242686 8.58921193,25.3428823 8.58921193,26.5998586 C8.58921193,28.2587469 7.51576544,29.3294451 5.86512324,29.3294451 C4.39277156,29.3294451 3.25795505,28.3633615 3.25795505,26.6986019 C3.25795505,25.1512669 4.21501009,24.1606308 5.8280896,24.1606308 C5.89580826,24.1606308 6.04923333,24.1670358 6.11113242,24.179312 L6.11113242,28.0975551 C6.91423333,28.0788739 7.63215688,27.5403223 7.63215688,26.5192626" id="Fill-6" fill="#37374C"></path>
                    <mask id="mask-4" fill="white">
                        <use xlink:href="#path-3"></use>
                    </mask>
                    <g id="Clip-9"></g>
                    <polygon id="Fill-8" fill="#37374C" mask="url(#mask-4)" points="13.0813394 39.9190561 15.1314159 39.9190561 15.1314159 12.0200553 13.0813394 12.0200553"></polygon>
                    <path d="M20.6595859,14.6351529 C20.6595859,13.7229778 21.402904,12.9725283 22.2869498,12.9725283 C23.1910997,12.9725283 23.9756838,13.7021617 23.9756838,14.6351529 C23.9756838,15.547328 23.2117327,16.2774951 22.2869498,16.2774951 C21.3833291,16.2774951 20.6595859,15.547328 20.6595859,14.6351529" id="Fill-10" fill="#37374C" mask="url(#mask-4)"></path>
                    <polygon id="Fill-11" fill="#37374C" mask="url(#mask-4)" points="21.2620703 39.9185224 23.2719388 39.9185224 23.2719388 23.2725277 21.2620703 23.2725277"></polygon>
                    <path d="M31.313,23.2725811 L31.313,18.365837 C31.313,13.175139 34.0254495,11.5327968 36.5384465,11.5327968 C38.527682,11.5327968 39.6127676,12.3435599 39.7937034,12.4860705 L38.9091284,14.1481614 C38.7488257,14.0067182 37.9848746,13.3779632 36.5580214,13.3779632 C34.9904404,13.3779632 33.3022355,14.1481614 33.3022355,18.6700733 L33.3022355,23.2725811 L38.3266422,23.2725811 L38.3266422,25.1172137 L33.3022355,25.1172137 L33.3022355,39.9185758 L31.313,39.9185758 L31.313,25.1172137 L27.5747187,25.1172137 L27.5747187,23.2725811 L31.313,23.2725811 Z" id="Fill-12" fill="#37374C" mask="url(#mask-4)"></path>
                    <path d="M43.9156532,23.2725811 L43.9156532,16.4390072 L45.9255217,16.4390072 L45.9255217,23.2725811 L50.4880661,23.2725811 L50.4880661,25.1380299 L45.9255217,25.1380299 L45.9255217,35.3977313 C45.9255217,37.7088596 46.8905125,38.539905 48.076118,38.539905 C49.2416196,38.539905 49.8447388,37.9527824 49.9452587,37.8097379 L50.9303535,39.3912329 C50.7092098,39.6143395 49.6230661,40.4053538 47.7745584,40.4053538 C45.6038581,40.4053538 43.9156532,39.0677817 43.9156532,35.9240067 L43.9156532,25.1380299 L40.4392526,25.1380299 L40.4392526,23.2725811 L43.9156532,23.2725811 Z" id="Fill-13" fill="#37374C" mask="url(#mask-4)"></path>
                    <path d="M71.4103792,29.5764636 L71.4103792,39.918896 L67.2499144,39.918896 L67.2499144,30.3669442 C67.2499144,27.2845503 65.6617003,25.9058796 63.4105841,25.9058796 C61.1388349,25.9058796 58.9480306,27.994435 58.9480306,30.792875 L58.9480306,39.918896 L54.8071407,39.918896 L54.8071407,23.2696989 L58.9480306,23.2696989 L58.9480306,26.1087038 C59.2897982,24.7294993 61.7223792,22.7823871 64.6162936,22.7823871 C67.8932416,22.7823871 71.4103792,24.7700641 71.4103792,29.5764636" id="Fill-14" fill="#37374C" mask="url(#mask-4)"></path>
                    <path d="M81.6819235,25.7031621 C78.5663364,25.7031621 77.3405229,27.8525648 77.1992661,30.0633484 L85.8429174,30.0633484 C85.7826055,27.9742593 84.6969908,25.7031621 81.6819235,25.7031621 M82.2046269,37.2417235 C85.0392875,37.2417235 86.7274924,35.8224879 87.3909235,34.8489318 L89.3002722,37.4648301 C88.0342508,39.1888357 86.0238532,40.4057808 81.9432752,40.4057808 C76.5564679,40.4057808 73.0790092,36.8563575 73.0790092,31.4014543 C73.0790092,26.5347413 76.2147003,22.7824938 81.6221407,22.7824938 C86.6470765,22.7824938 89.8631835,25.9465512 89.8631835,31.2797598 C89.8631835,31.5028664 89.8430795,32.0099269 89.8034006,32.2127511 L77.0791713,32.2127511 C77.1394832,34.8692142 78.888,37.2417235 82.2046269,37.2417235" id="Fill-15" fill="#37374C" mask="url(#mask-4)"></path>
                    <path d="M103.331736,24.3036219 L101.803834,26.8789553 C101.240923,26.4124597 99.7336535,25.6219791 98.0248156,25.6219791 C96.2762988,25.6219791 94.9092284,26.2912989 94.9092284,27.5685576 C94.9092284,28.8057851 96.2561948,29.4953873 98.4475281,30.0024478 C101.080091,30.630669 103.713712,31.7259197 103.713712,34.9908553 C103.713712,39.0670878 99.8944853,40.4057274 96.3561856,40.4057274 C93.0998706,40.4057274 90.8889624,39.2090647 90.1451153,38.5803097 L91.6931214,35.6804576 C92.3766566,36.3492437 94.1055985,37.3233335 96.075259,37.3233335 C98.1856474,37.3233335 99.5929257,36.3903422 99.5929257,35.0116715 C99.5929257,33.4499253 98.0650235,32.9017662 96.1149379,32.455553 C93.663311,31.888179 90.9095954,30.6103866 90.9095954,27.4676792 C90.9095954,24.4861636 94.0648615,22.7824405 97.6026321,22.7824405 C100.336773,22.7824405 102.668305,23.7565303 103.331736,24.3036219" id="Fill-16" fill="#37374C" mask="url(#mask-4)"></path>
                    <path d="M108.216685,23.2694854 L108.216685,16.4353777 L112.297263,16.4353777 L112.297263,23.2694854 L116.41752,23.2694854 L116.41752,26.7980925 L112.297263,26.7980925 L112.297263,34.1392606 C112.297263,35.984427 112.94059,36.856571 114.085987,36.856571 C115.01077,36.856571 115.593257,36.3495105 115.694306,36.227816 L117.261887,39.2493627 C117.001064,39.4932855 115.331905,40.4054606 113.020477,40.4054606 C110.266761,40.4054606 108.216685,38.8036832 108.216685,35.2547937 L108.216685,26.7980925 L105.080465,26.7980925 L105.080465,23.2694854 L108.216685,23.2694854 Z" id="Fill-17" fill="#37374C" mask="url(#mask-4)"></path>
                    <path d="M134.140232,27.5029599 C133.244547,28.4071288 133.116517,29.744701 133.284755,29.913899 C133.451935,30.0830971 134.77774,29.9544639 135.673954,29.050295 C136.570697,28.1461261 136.705076,26.8160264 136.530489,26.6393559 C136.355373,26.4632191 135.036446,26.5987911 134.140232,27.5029599" id="Fill-18" fill="#37374C" mask="url(#mask-4)"></path>
                    <path d="M138.119497,33.2360525 C137.797833,33.2360525 137.536481,33.4997239 137.536481,33.8247764 C137.536481,34.1492951 137.797833,34.4124328 138.119497,34.4124328 C138.441689,34.4124328 138.703041,34.1492951 138.703041,33.8247764 C138.703041,33.4997239 138.441689,33.2360525 138.119497,33.2360525" id="Fill-19" fill="#37374C" mask="url(#mask-4)"></path>
                    <path d="M141.692132,15.8188989 C140.989551,15.8188989 140.420291,16.3937454 140.420291,17.1020288 C140.420291,17.810846 140.989551,18.3856924 141.692132,18.3856924 C142.394184,18.3856924 142.963444,17.810846 142.963444,17.1020288 C142.963444,16.3937454 142.394184,15.8188989 141.692132,15.8188989" id="Fill-20" fill="#37374C" mask="url(#mask-4)"></path>
                    <path d="M140.257396,23.5686511 C139.935732,23.5686511 139.673851,23.8323225 139.673851,24.157375 C139.673851,24.4818937 139.935732,24.7455651 140.257396,24.7455651 C140.579059,24.7455651 140.84094,24.4818937 140.84094,24.157375 C140.84094,23.8323225 140.579059,23.5686511 140.257396,23.5686511" id="Fill-21" fill="#37374C" mask="url(#mask-4)"></path>
                    <path d="M142.544593,29.4128165 C142.22293,29.4128165 141.961578,29.676488 141.961578,30.0015404 C141.961578,30.3260591 142.22293,30.5891968 142.544593,30.5891968 C142.866786,30.5891968 143.128138,30.3260591 143.128138,30.0015404 C143.128138,29.676488 142.866786,29.4128165 142.544593,29.4128165" id="Fill-22" fill="#37374C" mask="url(#mask-4)"></path>
                    <path d="M161.984661,24.6830632 C161.662469,24.6830632 161.401117,24.9467347 161.401117,25.2717871 C161.401117,25.5963058 161.662469,25.8594435 161.984661,25.8594435 C162.306325,25.8594435 162.567677,25.5963058 162.567677,25.2717871 C162.567677,24.9467347 162.306325,24.6830632 161.984661,24.6830632" id="Fill-23" fill="#37374C" mask="url(#mask-4)"></path>
                    <path d="M164.470306,30.2165341 L163.445533,29.1826645 L163.445533,27.6145132 C163.445533,27.308142 163.198994,27.0594155 162.89479,27.0594155 C162.590585,27.0594155 162.344046,27.308142 162.344046,27.6145132 L162.344046,28.0719352 L161.337261,27.056213 C161.122465,26.8395113 160.774349,26.8395113 160.559025,27.056213 C160.34423,27.2729146 160.34423,27.6246545 160.559025,27.8413561 L162.50382,29.803947 C162.505407,29.8050145 162.506465,29.806082 162.508053,29.8071495 L163.812695,31.1239054 C163.88253,31.1943602 163.968236,31.2333238 164.057117,31.2578762 C162.946637,33.7237913 161.278536,35.8779977 159.218407,37.5651747 L159.218407,31.1783477 C159.218407,30.8714427 158.971869,30.6227162 158.668193,30.6227162 C158.363988,30.6227162 158.11745,30.8714427 158.11745,31.1783477 L158.11745,33.3875301 L157.265676,32.5281961 C157.05141,32.3114944 156.702236,32.3114944 156.487441,32.5281961 C156.272646,32.7448977 156.272646,33.0966376 156.487441,33.3138729 L158.11745,34.9583501 L158.11745,38.292673 C158.11745,38.3214954 158.130147,38.3460478 158.133851,38.3738027 C155.582233,40.1479806 152.534894,41.2362925 149.242074,41.3980181 L153.478193,37.1242989 L155.065349,37.1242989 C155.369554,37.1242989 155.616092,36.8766399 155.616092,36.5692012 C155.616092,36.2628299 155.369554,36.0141034 155.065349,36.0141034 L154.57915,36.0141034 L155.52827,35.0565597 C155.743065,34.8398581 155.743065,34.4881182 155.52827,34.2714166 C155.312946,34.0541812 154.964829,34.0541812 154.750034,34.2714166 L152.862377,36.175829 L152.859202,36.1790315 L151.333946,37.7178266 L151.333946,36.2041176 C151.333946,35.8977463 151.087407,35.6490198 150.783731,35.6490198 C150.479527,35.6490198 150.232988,35.8977463 150.232988,36.2041176 L150.232988,38.8280221 L147.678725,41.4044231 C146.30319,41.347312 144.96945,41.1364816 143.696022,40.7719318 L150.539309,33.8679032 L153.042254,33.8679032 C153.346459,33.8679032 153.592469,33.6191767 153.592469,33.3128054 C153.592469,33.0064342 153.346459,32.7577077 153.042254,32.7577077 L151.639738,32.7577077 L154.816166,29.5536192 L159.196187,29.5536192 C159.499863,29.5536192 159.746401,29.3048927 159.746401,28.9985215 C159.746401,28.6916164 159.499863,28.4434237 159.196187,28.4434237 L155.916594,28.4434237 L158.671368,25.6641985 C158.885634,25.4469632 158.885634,25.0957571 158.671368,24.8790554 C158.456572,24.6623538 158.107927,24.6623538 157.892603,24.8790554 L156.613355,26.1696578 L156.613355,25.6257687 C156.613355,25.3193974 156.367346,25.0706709 156.063141,25.0706709 C155.758936,25.0706709 155.512927,25.3193974 155.512927,25.6257687 L155.512927,27.2798533 L154.200349,28.6040818 C154.199291,28.6051493 154.197704,28.6062168 154.196646,28.607818 L152.435961,30.3841309 L152.435961,26.1814002 C152.868196,26.1392341 153.544325,25.9252013 154.059621,25.4047971 C154.822514,24.6356664 154.93679,23.5035872 154.787597,23.353604 C154.639462,23.2030871 153.517343,23.3189104 152.75445,24.0885749 C152.629065,24.2145393 152.528016,24.3522463 152.435961,24.4920882 L152.435961,21.1524279 C152.435961,20.8449891 152.189423,20.5973301 151.885747,20.5973301 C151.582071,20.5973301 151.335533,20.8449891 151.335533,21.1524279 L151.335533,30.0014337 L150.738233,29.3988324 C150.524496,29.1821307 150.175322,29.1821307 149.959998,29.3988324 C149.745202,29.615534 149.745202,29.9667401 149.959998,30.1834417 L151.296912,31.5332901 L146.445505,36.4282917 L146.445505,33.4884085 L148.253276,31.6656595 C148.468071,31.4489579 148.468071,31.0972181 148.253276,30.8805164 C148.038481,30.6648823 147.690365,30.663281 147.474511,30.8805164 L146.445505,31.9181223 L146.445505,27.7100541 C146.445505,27.4031491 146.198967,27.1549563 145.895291,27.1549563 C145.591086,27.1549563 145.345077,27.4031491 145.345077,27.7100541 L145.345077,37.5000574 C145.345077,37.5112661 145.350368,37.5208736 145.350897,37.5320823 L143.988059,38.9070168 L143.988059,38.0652964 C143.988059,37.7589251 143.74152,37.5101986 143.437316,37.5101986 C143.13364,37.5101986 142.887102,37.7589251 142.887102,38.0652964 L142.887102,40.0172124 L142.525759,40.3828296 C141.031716,39.8346706 139.637664,39.0863561 138.369527,38.165641 L143.230456,33.2610319 C143.445251,33.0443303 143.445251,32.6925904 143.230456,32.475355 C143.015132,32.2586534 142.667016,32.2586534 142.452221,32.475355 L140.952358,33.9885302 L140.952358,31.5658487 C140.952358,31.2594774 140.70582,31.0107509 140.402144,31.0107509 C140.098469,31.0107509 139.85193,31.2594774 139.85193,31.5658487 L139.85193,35.0992595 L137.483894,37.4888487 C136.41468,36.601226 135.457624,35.5839026 134.627542,34.4635658 C134.647117,34.4486209 134.670395,34.4411484 134.687854,34.423001 L142.861707,26.1765965 C143.076502,25.9593611 143.076502,25.608155 142.861707,25.3914534 C142.646912,25.1747518 142.298796,25.1747518 142.084001,25.3914534 L139.475774,28.0228304 L139.475774,26.1803327 C139.475774,25.8739615 139.229236,25.625235 138.92556,25.625235 C138.621884,25.625235 138.375346,25.8739615 138.375346,26.1803327 L138.375346,29.1330259 L133.99797,33.548722 C132.354735,31.0080822 131.338426,28.0164254 131.212511,24.7877846 C131.197169,24.4088236 131.510368,24.0917773 131.885994,24.0917773 L136.94479,24.0917773 L136.94479,17.936597 C136.94479,15.370871 139.005976,13.2908556 141.549129,13.2908556 L141.834817,13.2908556 C143.228869,13.2908556 144.475316,13.9185431 145.319683,14.9054429 L148.141646,14.8419269 C148.368609,14.8371231 148.483943,15.116807 148.319407,15.2758639 L146.369322,17.1567913 C146.412175,17.4108553 146.439157,17.6702568 146.439157,17.936597 L146.439157,24.0917773 L146.449738,24.0917773 C146.491004,24.7119924 146.79415,25.7383895 147.564979,26.5160601 C148.659059,27.6198507 150.277429,27.7767726 150.482172,27.5702122 C150.686386,27.3636517 150.531374,25.730917 149.437294,24.6271264 C149.223028,24.4109586 148.987071,24.240693 148.747939,24.0917773 L150.34938,24.0917773 L150.34938,17.936597 C150.34938,15.370871 152.411095,13.2908556 154.954248,13.2908556 L155.239407,13.2908556 C156.633459,13.2908556 157.879906,13.9185431 158.724802,14.9054429 L161.546236,14.8419269 C161.773728,14.8371231 161.889062,15.116807 161.724527,15.2758639 L159.774441,17.1567913 C159.816765,17.4108553 159.844276,17.6702568 159.844276,17.936597 L159.844276,24.0917773 L164.902542,24.0917773 C165.278169,24.0917773 165.590839,24.4088236 165.576554,24.7877846 C165.501958,26.6948657 165.107285,28.5154796 164.470306,30.2165341 M148.387126,0 C135.081469,0 124.295157,10.8820515 124.295157,24.306344 C124.295157,37.7301028 135.081469,48.6121542 148.387126,48.6121542 C161.692783,48.6121542 172.479624,37.7301028 172.479624,24.306344 C172.479624,10.8820515 161.692783,0 148.387126,0" id="Fill-24" fill="#37374C" mask="url(#mask-4)"></path>
                    <path d="M160.818102,31.7656839 C161.140294,31.7656839 161.401646,31.5025462 161.401646,31.1774937 C161.401646,30.852975 161.140294,30.5893036 160.818102,30.5893036 C160.496438,30.5893036 160.235087,30.852975 160.235087,31.1774937 C160.235087,31.5025462 160.496438,31.7656839 160.818102,31.7656839" id="Fill-25" fill="#37374C" mask="url(#mask-4)"></path>
                    <path d="M155.096669,15.8188989 C154.394088,15.8188989 153.825357,16.3937454 153.825357,17.1020288 C153.825357,17.810846 154.394088,18.3856924 155.096669,18.3856924 C155.79925,18.3856924 156.36851,17.810846 156.36851,17.1020288 C156.36851,16.3937454 155.79925,15.8188989 155.096669,15.8188989" id="Fill-26" fill="#37374C" mask="url(#mask-4)"></path>
                </g>
            </g>
        </g>
    </g>
</svg>