<?xml version="1.0" encoding="UTF-8"?>
<svg width="229px" height="64px" viewBox="0 0 229 64" version="1.1" xmlns="http://www.w3.org/2000/svg" xmlns:xlink="http://www.w3.org/1999/xlink">
    <title>the-lift-nest-logo</title>
    <defs>
        <polygon id="path-1" points="0 63.7818924 228.310899 63.7818924 228.310899 0.000140061162 0 0.000140061162"></polygon>
    </defs>
    <g id="lg---1400" stroke="none" stroke-width="1" fill="none" fill-rule="evenodd">
        <g id="coming-soon-landing" transform="translate(-160.000000, -32.000000)">
            <g id="the-lift-nest" transform="translate(160.000000, 32.000000)">
                <path d="M4.50751835,51.3960037 L1.77072324,51.3960037 L1.77072324,49.7474838 L4.50751835,49.7474838 L4.50751835,48.0828569 L5.92073547,48.0828569 L5.92073547,49.7474838 L8.86061927,49.7474838 C9.5994419,49.7474838 9.9488945,49.4876703 9.9488945,49.0247682 C9.9488945,48.6515052 9.7451055,48.4155021 9.6967844,48.3755847 L10.9069128,47.741808 C11.0042554,47.8475541 11.369815,48.5219486 11.369815,49.4554563 C11.369815,50.5675419 10.7283349,51.3960037 9.30741437,51.3960037 L5.92073547,51.3960037 L5.92073547,52.6635572 L4.50751835,52.6635572 L4.50751835,51.3960037 Z" id="Fill-1" fill="#37374C"></path>
                <path d="M7.03317125,39.8553841 L11.1747798,39.8553841 L11.1747798,41.5284147 L7.34970948,41.5284147 C6.11507034,41.5284147 5.56252905,42.1460844 5.56252905,43.0550813 C5.56252905,43.9731823 6.4000948,44.8905829 7.51988379,44.8905829 L11.1747798,44.8905829 L11.1747798,46.5720171 L0,46.5720171 L0,44.8905829 L5.64446483,44.8905829 C5.09262385,44.7526226 4.31248318,43.7700936 4.31248318,42.6005829 C4.31248318,41.2763046 5.10803058,39.8553841 7.03317125,39.8553841" id="Fill-3" fill="#37374C"></path>
                <path d="M5.48206391,35.0058364 C5.48206391,36.2649862 6.34273976,36.7601024 7.2279263,36.8175275 L7.2279263,33.3251024 C6.39176116,33.3496131 5.48206391,33.7880046 5.48206391,35.0058364 M10.1026817,34.7950443 C10.1026817,33.649344 9.53403333,32.9679465 9.143963,32.6997294 L10.1923208,31.9279924 C10.882122,32.4399159 11.3695349,33.2515703 11.3695349,34.9007905 C11.3695349,37.077341 9.94861437,38.4821544 7.76366024,38.4821544 C5.81470917,38.4821544 4.31255321,37.2146009 4.31255321,35.0303471 C4.31255321,33.0001606 5.57940642,31.700393 7.71463884,31.700393 C7.80427798,31.700393 8.00736667,31.7087966 8.08930245,31.7249037 L8.08930245,36.8658486 C9.15236667,36.8413379 10.1026817,36.1347294 10.1026817,34.7950443" id="Fill-5" fill="#37374C"></path>
                <mask id="mask-2" fill="white">
                    <use xlink:href="#path-1"></use>
                </mask>
                <g id="Clip-8"></g>
                <polygon id="Fill-7" fill="#37374C" mask="url(#mask-2)" points="17.3164618 52.3767119 20.0301468 52.3767119 20.0301468 15.7710269 17.3164618 15.7710269"></polygon>
                <path d="M27.3475021,19.2024554 C27.3475021,18.0056327 28.3314318,17.0203024 29.5016428,17.0203024 C30.6984654,17.0203024 31.737019,17.9783208 31.737019,19.2024554 C31.737019,20.399278 30.7257774,21.356596 29.5016428,21.356596 C28.3048202,21.356596 27.3475021,20.399278 27.3475021,19.2024554" id="Fill-9" fill="#FF5B29" mask="url(#mask-2)"></path>
                <polygon id="Fill-10" fill="#37374C" mask="url(#mask-2)" points="28.1445902 52.3760116 30.805052 52.3760116 30.805052 30.5355743 28.1445902 30.5355743"></polygon>
                <path d="M41.4486498,30.5352942 L41.4486498,24.0973829 C41.4486498,17.2869089 45.039818,15.1320679 48.3655703,15.1320679 C50.9994205,15.1320679 52.4350474,16.1951321 52.6752523,16.3821138 L51.504341,18.5635664 C51.291448,18.3779853 50.2802064,17.5530251 48.392182,17.5530251 C46.3164755,17.5530251 44.0825,18.5635664 44.0825,24.4958569 L44.0825,30.5352942 L50.7333043,30.5352942 L50.7333043,32.9548508 L44.0825,32.9548508 L44.0825,52.3757315 L41.4486498,52.3757315 L41.4486498,32.9548508 L36.5009893,32.9548508 L36.5009893,30.5352942 L41.4486498,30.5352942 Z" id="Fill-11" fill="#37374C" mask="url(#mask-2)"></path>
                <path d="M58.131545,30.5352942 L58.131545,21.5692789 L60.7920067,21.5692789 L60.7920067,30.5352942 L66.831444,30.5352942 L66.831444,32.9821627 L60.7920067,32.9821627 L60.7920067,46.443441 C60.7920067,49.4757651 62.0686642,50.5661413 63.6380495,50.5661413 C65.1815235,50.5661413 65.9798722,49.7958049 66.1129303,49.6088232 L67.4161994,51.6831291 C67.1241719,51.9758569 65.686444,53.0144104 63.2395755,53.0144104 C60.3662208,53.0144104 58.131545,51.2587437 58.131545,47.1346428 L58.131545,32.9821627 L53.5298355,32.9821627 L53.5298355,30.5352942 L58.131545,30.5352942 Z" id="Fill-12" fill="#37374C" mask="url(#mask-2)"></path>
                <path d="M94.5255275,38.806256 L94.5255275,52.3760817 L89.0183226,52.3760817 L89.0183226,39.8434089 C89.0183226,35.7991428 86.9160046,33.9902529 83.9362034,33.9902529 C80.9290902,33.9902529 78.0291239,36.7305495 78.0291239,40.4022529 L78.0291239,52.3760817 L72.5478303,52.3760817 L72.5478303,30.5314425 L78.0291239,30.5314425 L78.0291239,34.2563691 C78.4815214,32.4467789 81.7015275,29.8920633 85.5322003,29.8920633 C89.8698945,29.8920633 94.5255275,32.5000021 94.5255275,38.806256" id="Fill-13" fill="#37374C" mask="url(#mask-2)"></path>
                <path d="M108.122035,33.7242768 C103.997934,33.7242768 102.375325,36.5444083 102.188344,39.4450749 L113.62994,39.4450749 C113.550105,36.704078 112.113078,33.7242768 108.122035,33.7242768 M108.813937,48.8634878 C112.566176,48.8634878 114.800851,47.0013746 115.679035,45.7240168 L118.206439,49.1562156 C116.530607,51.4182034 113.869445,53.0149006 108.467986,53.0149006 C101.337472,53.0149006 96.7343621,48.357867 96.7343621,41.2007416 C96.7343621,34.8153532 100.885075,29.8922034 108.0429,29.8922034 C114.694405,29.8922034 118.951564,34.0436162 118.951564,41.0410719 C118.951564,41.3337997 118.924952,41.9990902 118.872429,42.2652064 L102.029374,42.2652064 C102.109209,45.7506284 104.42372,48.8634878 108.813937,48.8634878" id="Fill-14" fill="#37374C" mask="url(#mask-2)"></path>
                <path d="M136.779879,31.8880049 L134.757396,35.2669804 C134.012271,34.6549131 132.017099,33.6177602 129.755112,33.6177602 C127.440601,33.6177602 125.631011,34.4959437 125.631011,36.1717755 C125.631011,37.7950844 127.413989,38.6998795 130.314656,39.36517 C133.799378,40.18943 137.2855,41.6264575 137.2855,45.9102281 C137.2855,51.2584636 132.229992,53.0148306 127.546347,53.0148306 C123.235965,53.0148306 120.309387,51.444745 119.324757,50.6197847 L121.373852,46.8150232 C122.278647,47.6925064 124.567246,48.9705645 127.174485,48.9705645 C129.968005,48.9705645 131.830818,47.74643 131.830818,45.9375401 C131.830818,43.8884453 129.808335,43.1692312 127.227008,42.5837755 C123.981791,41.8393505 120.336699,40.1628183 120.336699,36.0394177 C120.336699,32.1275095 124.513323,29.8921333 129.196268,29.8921333 C132.815448,29.8921333 135.901696,31.1701914 136.779879,31.8880049" id="Fill-15" fill="#37374C" mask="url(#mask-2)"></path>
                <path d="M143.246083,30.5311624 L143.246083,21.5644468 L148.647542,21.5644468 L148.647542,30.5311624 L154.101523,30.5311624 L154.101523,35.1608841 L148.647542,35.1608841 L148.647542,44.7928902 C148.647542,47.2138474 149.499113,48.3581471 151.015276,48.3581471 C152.23941,48.3581471 153.010447,47.6928566 153.144205,47.5331869 L155.219211,51.497618 C154.873961,51.8176578 152.664496,53.0144804 149.60486,53.0144804 C145.959768,53.0144804 143.246083,50.9128627 143.246083,46.2565294 L143.246083,35.1608841 L139.09467,35.1608841 L139.09467,30.5311624 L143.246083,30.5311624 Z" id="Fill-16" fill="#37374C" mask="url(#mask-2)"></path>
                <path d="M228.311319,31.8907361 C228.311319,49.5034272 214.032784,63.7819624 196.420093,63.7819624 C178.807402,63.7819624 164.529567,49.5034272 164.529567,31.8907361 C164.529567,14.278045 178.807402,0.000210091743 196.420093,0.000210091743 C214.032784,0.000210091743 228.311319,14.278045 228.311319,31.8907361" id="Fill-17" fill="#FF5B29" mask="url(#mask-2)"></path>
                <path d="M212.875179,41.6786303 C212.449393,41.6786303 212.103442,41.3333795 212.103442,40.906193 C212.103442,40.480407 212.449393,40.1351563 212.875179,40.1351563 C213.300965,40.1351563 213.647616,40.480407 213.647616,40.906193 C213.647616,41.3333795 213.300965,41.6786303 212.875179,41.6786303 L212.875179,41.6786303 Z M205.302072,24.1233642 C204.371365,24.1233642 203.618536,23.3684346 203.618536,22.4391287 C203.618536,21.5091226 204.371365,20.7555936 205.302072,20.7555936 C206.231377,20.7555936 206.985607,21.5091226 206.985607,22.4391287 C206.985607,23.3684346 206.231377,24.1233642 205.302072,24.1233642 L205.302072,24.1233642 Z M188.686616,40.1351563 C188.26083,40.1351563 187.914879,39.7899055 187.914879,39.362719 C187.914879,38.936933 188.26083,38.5916823 188.686616,38.5916823 C189.112402,38.5916823 189.458353,38.936933 189.458353,39.362719 C189.458353,39.7899055 189.112402,40.1351563 188.686616,40.1351563 L188.686616,40.1351563 Z M182.829258,45.1514468 C182.402772,45.1514468 182.057521,44.8054957 182.057521,44.3790095 C182.057521,43.9532235 182.402772,43.6079728 182.829258,43.6079728 C183.255044,43.6079728 183.600995,43.9532235 183.600995,44.3790095 C183.600995,44.8054957 183.255044,45.1514468 182.829258,45.1514468 L182.829258,45.1514468 Z M187.557723,24.1233642 C186.627717,24.1233642 185.874188,23.3684346 185.874188,22.4391287 C185.874188,21.5091226 186.627717,20.7555936 187.557723,20.7555936 C188.487729,20.7555936 189.241258,21.5091226 189.241258,22.4391287 C189.241258,23.3684346 188.487729,24.1233642 187.557723,24.1233642 L187.557723,24.1233642 Z M185.659194,32.467508 C185.232708,32.467508 184.886757,32.1222572 184.886757,31.6957709 C184.886757,31.2692847 185.232708,30.9240339 185.659194,30.9240339 C186.08498,30.9240339 186.430931,31.2692847 186.430931,31.6957709 C186.430931,32.1222572 186.08498,32.467508 185.659194,32.467508 L185.659194,32.467508 Z M179.592445,38.1154743 C178.405426,39.3017924 176.65046,39.4705661 176.428463,39.2485691 C176.207166,39.0265722 176.37524,37.2716058 177.561558,36.0852878 C178.748576,34.8989697 180.493738,34.7203917 180.724839,34.9528933 C180.95664,35.1839942 180.778062,36.9291563 179.592445,38.1154743 L179.592445,38.1154743 Z M214.418653,32.3855722 C214.845139,32.3855722 215.19109,32.7315232 215.19109,33.1573092 C215.19109,33.5837954 214.845139,33.9297465 214.418653,33.9297465 C213.992867,33.9297465 213.647616,33.5837954 213.647616,33.1573092 C213.647616,32.7315232 213.992867,32.3855722 214.418653,32.3855722 L214.418653,32.3855722 Z M215.111955,39.1092083 C215.109854,39.1071073 215.107754,39.1057067 215.107053,39.1036058 L212.532729,36.5292817 C212.247705,36.2449575 212.247705,35.783456 212.532729,35.4991318 C212.817053,35.215508 213.277854,35.215508 213.562179,35.4991318 L214.895561,36.8325141 L214.895561,36.232352 C214.895561,35.8289758 215.221903,35.5033336 215.623879,35.5033336 C216.026555,35.5033336 216.352197,35.8289758 216.352197,36.232352 L216.352197,38.2891502 L217.708689,39.6463428 C218.552558,37.4144682 219.074986,35.0257251 219.173729,32.5228321 C219.192637,32.025615 218.779457,31.6103336 218.281539,31.6103336 L211.585916,31.6103336 L211.585916,23.5337067 C211.585916,23.1842541 211.5495,22.8439055 211.493475,22.5105599 L214.074802,20.0426823 C214.291897,19.8346914 214.140631,19.4663306 213.838799,19.4733336 L210.104069,19.5573703 C208.98568,18.2618046 207.33576,17.4389453 205.490454,17.4389453 L205.112989,17.4389453 C201.745919,17.4389453 199.017527,20.1673367 199.017527,23.5337067 L199.017527,31.6103336 L196.897702,31.6103336 C197.21424,31.8043183 197.526576,32.0291165 197.8102,32.3120401 C199.258432,33.7602725 199.464322,35.902508 199.193304,36.1742266 C198.922286,36.4445446 196.78075,36.2386547 195.331818,34.7904223 C194.311472,33.7700768 193.910197,32.4226884 193.856273,31.6103336 L193.841567,31.6103336 L193.841567,23.5337067 C193.841567,23.1842541 193.806552,22.8439055 193.749127,22.5105599 L196.330454,20.0426823 C196.548949,19.8346914 196.396283,19.4663306 196.094451,19.4733336 L192.35972,19.5573703 C191.241331,18.2618046 189.592111,17.4389453 187.746806,17.4389453 L187.36864,17.4389453 C184.00227,17.4389453 181.273879,20.1673367 181.273879,23.5337067 L181.273879,31.6103336 L174.577555,31.6103336 C174.081038,31.6103336 173.666457,32.025615 173.686065,32.5228321 C173.852738,36.7596823 175.198026,40.684196 177.373876,44.018352 L183.167506,38.2240217 L183.167506,34.34993 C183.167506,33.9479544 183.493148,33.6216119 183.895824,33.6216119 C184.297799,33.6216119 184.624142,33.9479544 184.624142,34.34993 L184.624142,36.7666853 L188.07665,33.3155783 C188.360974,33.0305538 188.821775,33.0305538 189.106799,33.3155783 C189.391124,33.5999024 189.391124,34.0607037 189.106799,34.3450278 L178.286374,45.1654529 C178.263264,45.1892633 178.232451,45.1983673 178.206539,45.2186761 C179.305319,46.6879177 180.572172,48.0227006 181.988191,49.1873092 L185.122059,46.0527404 L185.122059,41.4160156 C185.122059,41.0140401 185.448402,40.6876976 185.850377,40.6876976 C186.252353,40.6876976 186.578695,41.0140401 186.578695,41.4160156 L186.578695,44.595404 L188.564062,42.610037 C188.848387,42.3257128 189.309888,42.3257128 189.594212,42.610037 C189.878536,42.8943612 189.878536,43.3558627 189.594212,43.6401869 L183.159802,50.0752969 C184.838435,51.2833245 186.683741,52.2651532 188.661405,52.9843673 L189.139714,52.5053581 L189.139714,49.9443398 C189.139714,49.5423642 189.466056,49.2160217 189.868032,49.2160217 C190.271408,49.2160217 190.59705,49.5423642 190.59705,49.9443398 L190.59705,51.048722 L192.401738,49.2440339 C192.401038,49.2293275 192.393335,49.2174223 192.393335,49.2027159 L192.393335,36.3563061 C192.393335,35.9543306 192.719677,35.6279881 193.121653,35.6279881 C193.523628,35.6279881 193.849971,35.9543306 193.849971,36.3563061 L193.849971,41.8789177 L195.212065,40.5175232 C195.498491,40.2317985 195.959292,40.2338994 196.242916,40.5175232 C196.52724,40.8018474 196.52724,41.2626486 196.242916,41.5476731 L193.849971,43.9392174 L193.849971,47.7951012 L200.271775,41.3732969 L198.502102,39.6029239 C198.217078,39.3185997 198.217078,38.8570982 198.502102,38.5720737 C198.787827,38.2877495 199.248628,38.2877495 199.532252,38.5720737 L200.322197,39.3634193 L200.322197,27.7523489 C200.322197,27.3503734 200.648539,27.0240309 201.051215,27.0240309 C201.453191,27.0240309 201.779533,27.3503734 201.779533,27.7523489 L201.779533,32.135563 C201.900686,31.9513826 202.035145,31.771404 202.201818,31.6054315 C203.210958,30.5962908 204.695607,30.4443245 204.893093,30.6411104 C205.089879,30.8385966 204.938613,32.3239453 203.929472,33.3330859 C203.246674,34.0151838 202.352383,34.2960064 201.779533,34.3520309 L201.779533,39.8655385 L204.110151,37.5356211 C204.111552,37.5335202 204.112952,37.5321196 204.115053,37.5300187 L205.852512,35.7932602 L205.852512,33.6230125 C205.852512,33.2203367 206.178154,32.8946945 206.58083,32.8946945 C206.983506,32.8946945 207.309848,33.2203367 207.309848,33.6230125 L207.309848,34.3366242 L209.003188,32.6425844 C209.287512,32.3575599 209.748313,32.3575599 210.032637,32.6425844 C210.317662,32.9269086 210.317662,33.3884101 210.032637,33.6720339 L206.386845,37.3185263 L210.728041,37.3185263 C211.130717,37.3185263 211.457059,37.6448688 211.457059,38.0468443 C211.457059,38.4502205 211.130717,38.7751624 210.728041,38.7751624 L204.929509,38.7751624 L200.725573,42.9797985 L202.582084,42.9797985 C202.98476,42.9797985 203.310402,43.3054407 203.310402,43.7081165 C203.310402,44.1107924 202.98476,44.4364346 202.582084,44.4364346 L199.268937,44.4364346 L190.211182,53.4948902 C191.896117,53.9731991 193.661588,54.2498199 195.482383,54.3254529 L198.86346,50.9436761 L198.86346,47.5016731 C198.86346,47.0989972 199.189802,46.773355 199.591778,46.773355 C199.994454,46.773355 200.320796,47.0989972 200.320796,47.5016731 L200.320796,49.4870401 L202.339778,47.4687587 L202.34398,47.4645569 L204.842671,44.9658657 C205.127695,44.6815416 205.588497,44.6815416 205.872821,44.9658657 C206.157145,45.2508902 206.157145,45.7116914 205.872821,45.9960156 L204.615772,47.2530645 L205.260053,47.2530645 C205.662729,47.2530645 205.988371,47.579407 205.988371,47.9813826 C205.988371,48.3833581 205.662729,48.7097006 205.260053,48.7097006 L203.159136,48.7097006 L197.551087,54.3163489 C201.911191,54.103456 205.944952,52.676933 209.322527,50.3484162 C209.316925,50.3120003 209.300818,50.2797862 209.300818,50.2419697 L209.300818,45.866459 L207.142475,43.7088168 C206.858151,43.4244927 206.858151,42.9636914 207.142475,42.6793673 C207.4275,42.3943428 207.888301,42.3943428 208.172625,42.6793673 L209.300818,43.8068596 L209.300818,40.9068933 C209.300818,40.5049177 209.62646,40.1785752 210.029136,40.1785752 C210.431812,40.1785752 210.758154,40.5049177 210.758154,40.9068933 L210.758154,49.2874529 C213.484445,47.0744865 215.692509,44.2480523 217.162451,41.0119391 C217.044799,40.9797251 216.93135,40.9286028 216.838909,40.8361624 L215.111955,39.1092083 Z" id="Fill-18" fill="#FFFFFF" mask="url(#mask-2)"></path>
            </g>
        </g>
    </g>
</svg>