<?xml version="1.0" encoding="utf-8"?>
<!-- Generator: Adobe Illustrator 22.1.0, SVG Export Plug-In . SVG Version: 6.00 Build 0)  -->
<svg version="1.1" id="Layer_1" xmlns="http://www.w3.org/2000/svg" xmlns:xlink="http://www.w3.org/1999/xlink" x="0px" y="0px"
	 viewBox="0 0 92 92" style="enable-background:new 0 0 92 92;" xml:space="preserve">
<style type="text/css">
	.st0{filter:url(#Adobe_OpacityMaskFilter);}
	.st1{fill:#FFFFFF;}
	.st2{mask:url(#mask-2_1_);fill:#FF5B29;}
</style>
<title>the-lifnest-birds</title>
<g id="lg---1400">
	<g id="coming-soon-landing-copy-2" transform="translate(-397.000000, -158.000000)">
		<g id="Group-6" transform="translate(397.000000, 157.000000)">
			<g id="Group-3" transform="translate(0.000000, 0.077200)">
				<g id="Clip-2">
				</g>
				<defs>
					<filter id="Adobe_OpacityMaskFilter" filterUnits="userSpaceOnUse" x="0" y="0.9" width="91.1" height="91.1">
						<feColorMatrix  type="matrix" values="1 0 0 0 0  0 1 0 0 0  0 0 1 0 0  0 0 0 1 0"/>
					</filter>
				</defs>
				<mask maskUnits="userSpaceOnUse" x="0" y="0.9" width="91.1" height="91.1" id="mask-2_1_">
					<g class="st0">
						<polygon id="path-1_1_" class="st1" points="0,0.9 91.1,0.9 91.1,92 0,92 						"/>
					</g>
				</mask>
				<path id="Fill-1" class="st2" d="M91.1,46.5C91.1,71.6,70.7,92,45.5,92S0,71.6,0,46.5S20.4,0.9,45.5,0.9S91.1,21.3,91.1,46.5"/>
			</g>
			<path id="Fill-4" class="st1" d="M69,60.5c-0.6,0-1.1-0.5-1.1-1.1c0-0.6,0.5-1.1,1.1-1.1s1.1,0.5,1.1,1.1
				C70.1,60,69.6,60.5,69,60.5L69,60.5z M58.2,35.4c-1.3,0-2.4-1.1-2.4-2.4c0-1.3,1.1-2.4,2.4-2.4c1.3,0,2.4,1.1,2.4,2.4
				C60.6,34.4,59.5,35.4,58.2,35.4L58.2,35.4z M34.5,58.3c-0.6,0-1.1-0.5-1.1-1.1c0-0.6,0.5-1.1,1.1-1.1c0.6,0,1.1,0.5,1.1,1.1
				C35.6,57.8,35.1,58.3,34.5,58.3L34.5,58.3z M26.1,65.5c-0.6,0-1.1-0.5-1.1-1.1c0-0.6,0.5-1.1,1.1-1.1c0.6,0,1.1,0.5,1.1,1.1
				C27.2,65,26.7,65.5,26.1,65.5L26.1,65.5z M32.9,35.4c-1.3,0-2.4-1.1-2.4-2.4c0-1.3,1.1-2.4,2.4-2.4c1.3,0,2.4,1.1,2.4,2.4
				C35.3,34.4,34.2,35.4,32.9,35.4L32.9,35.4z M30.2,47.4c-0.6,0-1.1-0.5-1.1-1.1c0-0.6,0.5-1.1,1.1-1.1c0.6,0,1.1,0.5,1.1,1.1
				C31.3,46.9,30.8,47.4,30.2,47.4L30.2,47.4z M21.5,55.4c-1.7,1.7-4.2,1.9-4.5,1.6c-0.3-0.3-0.1-2.8,1.6-4.5
				c1.7-1.7,4.2-1.9,4.5-1.6C23.5,51.2,23.2,53.7,21.5,55.4L21.5,55.4z M71.2,47.2c0.6,0,1.1,0.5,1.1,1.1c0,0.6-0.5,1.1-1.1,1.1
				c-0.6,0-1.1-0.5-1.1-1.1C70.1,47.7,70.6,47.2,71.2,47.2L71.2,47.2z M72.2,56.8C72.2,56.8,72.2,56.8,72.2,56.8l-3.7-3.7
				c-0.4-0.4-0.4-1.1,0-1.5c0.4-0.4,1.1-0.4,1.5,0l1.9,1.9v-0.9c0-0.6,0.5-1,1-1s1,0.5,1,1v2.9l1.9,1.9c1.2-3.2,2-6.6,2.1-10.2
				c0-0.7-0.6-1.3-1.3-1.3h-9.6V34.6c0-0.5-0.1-1-0.1-1.5l3.7-3.5c0.3-0.3,0.1-0.8-0.3-0.8l-5.3,0.1c-1.6-1.9-4-3-6.6-3H58
				c-4.8,0-8.7,3.9-8.7,8.7v11.5h-3c0.5,0.3,0.9,0.6,1.3,1c2.1,2.1,2.4,5.1,2,5.5c-0.4,0.4-3.4,0.1-5.5-2c-1.5-1.5-2-3.4-2.1-4.5h0
				V34.6c0-0.5,0-1-0.1-1.5l3.7-3.5c0.3-0.3,0.1-0.8-0.3-0.8l-5.3,0.1c-1.6-1.9-4-3-6.6-3h-0.5c-4.8,0-8.7,3.9-8.7,8.7v11.5h-9.6
				c-0.7,0-1.3,0.6-1.3,1.3c0.2,6,2.2,11.7,5.3,16.4l8.3-8.3v-5.5c0-0.6,0.5-1,1-1c0.6,0,1,0.5,1,1v3.5l4.9-4.9
				c0.4-0.4,1.1-0.4,1.5,0c0.4,0.4,0.4,1.1,0,1.5L19.6,65.5c0,0-0.1,0-0.1,0.1c1.6,2.1,3.4,4,5.4,5.7l4.5-4.5v-6.6c0-0.6,0.5-1,1-1
				c0.6,0,1,0.5,1,1v4.5l2.8-2.8c0.4-0.4,1.1-0.4,1.5,0c0.4,0.4,0.4,1.1,0,1.5l-9.2,9.2c2.4,1.7,5,3.1,7.9,4.2l0.7-0.7v-3.7
				c0-0.6,0.5-1,1-1c0.6,0,1,0.5,1,1v1.6l2.6-2.6c0,0,0,0,0-0.1V52.9c0-0.6,0.5-1,1-1c0.6,0,1,0.5,1,1v7.9l1.9-1.9
				c0.4-0.4,1.1-0.4,1.5,0c0.4,0.4,0.4,1.1,0,1.5l-3.4,3.4v5.5l9.2-9.2l-2.5-2.5c-0.4-0.4-0.4-1.1,0-1.5c0.4-0.4,1.1-0.4,1.5,0
				l1.1,1.1V40.6c0-0.6,0.5-1,1-1c0.6,0,1,0.5,1,1v6.3c0.2-0.3,0.4-0.5,0.6-0.8c1.4-1.4,3.6-1.7,3.8-1.4c0.3,0.3,0.1,2.4-1.4,3.8
				c-1,1-2.3,1.4-3.1,1.5v7.9l3.3-3.3c0,0,0,0,0,0l2.5-2.5V49c0-0.6,0.5-1,1-1s1,0.5,1,1v1l2.4-2.4c0.4-0.4,1.1-0.4,1.5,0
				c0.4,0.4,0.4,1.1,0,1.5l-5.2,5.2H66c0.6,0,1,0.5,1,1c0,0.6-0.5,1-1,1h-8.3l-6,6h2.7c0.6,0,1,0.5,1,1c0,0.6-0.5,1-1,1h-4.7
				L36.7,77.4c2.4,0.7,4.9,1.1,7.5,1.2l4.8-4.8v-4.9c0-0.6,0.5-1,1-1s1,0.5,1,1v2.8l2.9-2.9c0,0,0,0,0,0l3.6-3.6
				c0.4-0.4,1.1-0.4,1.5,0c0.4,0.4,0.4,1.1,0,1.5l-1.8,1.8h0.9c0.6,0,1,0.5,1,1c0,0.6-0.5,1-1,1h-3l-8,8c6.2-0.3,12-2.3,16.8-5.7
				c0-0.1,0-0.1,0-0.2v-6.2l-3.1-3.1c-0.4-0.4-0.4-1.1,0-1.5c0.4-0.4,1.1-0.4,1.5,0l1.6,1.6v-4.1c0-0.6,0.5-1,1-1c0.6,0,1,0.5,1,1
				v12c3.9-3.2,7-7.2,9.1-11.8c-0.2,0-0.3-0.1-0.5-0.3L72.2,56.8z"/>
		</g>
	</g>
</g>
</svg>
