<?xml version="1.0" encoding="UTF-8"?>
<svg width="331px" height="128px" viewBox="0 0 331 128" version="1.1" xmlns="http://www.w3.org/2000/svg" xmlns:xlink="http://www.w3.org/1999/xlink">
    <title>MarcusAschenbrenner&amp;AljazPrimozictheLiftNestGbRFranklinstr.2501069DresdenDeutschland</title>
    <g id="lg---1400" stroke="none" stroke-width="1" fill="none" fill-rule="evenodd">
        <g id="Artboard" transform="translate(-491.000000, -214.000000)" fill="#37374C" fill-rule="nonzero">
            <path d="M493.048,225.83 L493.048,217.933999 L492.992,216.885999 L493.248,218.029999 L495.936001,225.278 L497.096001,225.278 L499.792001,218.029999 L500.056001,216.885999 L499.992001,217.933999 L499.992001,225.83 L501.160002,225.83 L501.160002,215.269998 L499.648001,215.269998 L496.616001,223.798 L496.520001,224.278 L496.424001,223.798 L493.4,215.269998 L491.88,215.269998 L491.88,225.83 L493.048,225.83 Z M506.224001,226.022 C507.704001,226.022 508.616001,224.926 508.728001,224.51 L508.728001,225.83 L509.896001,225.83 L509.896001,219.261999 L508.720001,219.261999 L508.720001,220.549999 C508.608001,220.069999 507.688001,219.069999 506.224001,219.069999 C504.416,219.069999 502.952,220.421999 502.952,222.549999 C502.952,224.678 504.416,226.022 506.224001,226.022 Z M506.448001,225.014 C505.264,225.014 504.128,224.07 504.128,222.549999 C504.128,221.029999 505.264,220.077999 506.448001,220.077999 C507.744001,220.077999 508.696001,221.061999 508.696001,222.549999 C508.696001,224.046 507.744001,225.014 506.448001,225.014 Z M513.024,225.83 L513.024,222.149999 C513.024,221.341999 513.672,220.093999 514.752001,220.093999 C515.296001,220.093999 515.688001,220.285999 515.832001,220.421999 L516.328001,219.429999 C516.144001,219.277999 515.664001,219.069999 515.048001,219.069999 C513.936,219.069999 513.208,219.837999 513.024,220.285999 L513.024,219.261999 L511.848,219.261999 L511.848,225.83 L513.024,225.83 Z M520.240001,226.022 C521.424001,226.022 522.288001,225.518 522.440001,225.39 L521.840001,224.51 C521.712001,224.63 521.168001,225.014 520.288001,225.014 C519.208,225.014 518.064,224.11 518.064,222.541999 C518.064,220.981999 519.208,220.077999 520.288001,220.077999 C521.176001,220.077999 521.672001,220.533999 521.808001,220.653999 L522.408001,219.781999 C522.224001,219.613999 521.408001,219.069999 520.240001,219.069999 C518.528,219.069999 516.912,220.277999 516.912,222.541999 C516.912,224.806 518.528,226.022 520.240001,226.022 Z M526.896001,226.022 C528.872001,226.022 529.984001,224.686 529.984001,222.806 L529.984001,219.261999 L528.808001,219.261999 L528.808001,222.621999 C528.808001,224.07 528.192001,224.982 526.896001,224.982 C525.608,224.982 524.992,224.07 524.992,222.621999 L524.992,219.261999 L523.816,219.261999 L523.816,222.806 C523.816,224.686 524.928,226.022 526.896001,226.022 Z M533.88,226.022 C535.272001,226.022 536.632001,225.446 536.632001,223.966 C536.632001,222.709999 535.656001,222.293999 534.552001,222.013999 C533.608,221.781999 532.992,221.469999 532.992,220.877999 C532.992,220.277999 533.624,219.949999 534.416001,219.949999 C535.112001,219.949999 535.704001,220.261999 535.936001,220.453999 L536.440001,219.677999 C536.144001,219.445999 535.296001,219.069999 534.320001,219.069999 C532.976,219.069999 531.824,219.749999 531.824,220.845999 C531.824,222.021999 532.84,222.525999 533.88,222.773999 C534.704001,222.974 535.424001,223.222 535.424001,223.966 C535.424001,224.638 534.760001,225.086 533.832,225.086 C533.008,225.086 532.328,224.702 532.056,224.43 L531.536,225.302 C531.856,225.574 532.712,226.022 533.88,226.022 Z M542.84,225.83 L543.792,223.206 L548.360001,223.206 L549.296001,225.83 L550.544002,225.83 L546.688001,215.269998 L545.456001,215.269998 L541.584,225.83 L542.84,225.83 Z M547.992001,222.133999 L544.16,222.133999 L546.064001,216.717999 L546.088001,216.717999 L547.992001,222.133999 Z M553.616,226.022 C555.008001,226.022 556.368001,225.446 556.368001,223.966 C556.368001,222.709999 555.392001,222.293999 554.288001,222.013999 C553.344,221.781999 552.728,221.469999 552.728,220.877999 C552.728,220.277999 553.36,219.949999 554.152001,219.949999 C554.848001,219.949999 555.440001,220.261999 555.672001,220.453999 L556.176001,219.677999 C555.880001,219.445999 555.032001,219.069999 554.056001,219.069999 C552.712,219.069999 551.56,219.749999 551.56,220.845999 C551.56,222.021999 552.576,222.525999 553.616,222.773999 C554.440001,222.974 555.160001,223.222 555.160001,223.966 C555.160001,224.638 554.496001,225.086 553.568,225.086 C552.744,225.086 552.064,224.702 551.792,224.43 L551.272,225.302 C551.592,225.574 552.448,226.022 553.616,226.022 Z M561.000001,226.022 C562.184001,226.022 563.048001,225.518 563.200001,225.39 L562.600001,224.51 C562.472001,224.63 561.928001,225.014 561.048001,225.014 C559.968,225.014 558.824,224.11 558.824,222.541999 C558.824,220.981999 559.968,220.077999 561.048001,220.077999 C561.936001,220.077999 562.432001,220.533999 562.568001,220.653999 L563.168001,219.781999 C562.984001,219.613999 562.168001,219.069999 561.000001,219.069999 C559.288,219.069999 557.672,220.277999 557.672,222.541999 C557.672,224.806 559.288,226.022 561.000001,226.022 Z M565.904,225.83 L565.904,222.181999 C565.904,220.949999 566.920001,220.013999 567.920001,220.013999 C568.920001,220.013999 569.616001,220.597999 569.616001,221.965999 L569.616001,225.83 L570.816001,225.83 L570.816001,221.709999 C570.816001,219.845999 569.464001,219.069999 568.200001,219.069999 C567.008001,219.069999 566.016,219.917999 565.904,220.469999 L565.904,214.821998 L564.688,214.821998 L564.688,225.83 L565.904,225.83 Z M575.720001,226.022 C577.240001,226.022 578.032001,225.518 578.600001,224.694 L577.952001,223.942 C577.704001,224.374 577.048001,225.069999 575.792001,225.069999 C574.272,225.069999 573.52,223.926 573.504,222.669999 L578.760001,222.669999 C578.768001,222.597999 578.784001,222.437999 578.784001,222.341999 C578.784001,220.349999 577.544001,219.069999 575.640001,219.069999 C573.544,219.069999 572.328,220.549999 572.328,222.469999 C572.328,224.534 573.608,226.022 575.720001,226.022 Z M577.592001,221.957999 L573.552,221.957999 C573.616,221.005999 574.144,219.965999 575.648001,219.965999 C577.088001,219.965999 577.568001,221.053999 577.592001,221.957999 Z M581.584,225.83 L581.584,222.181999 C581.584,220.949999 582.584001,220.013999 583.584001,220.013999 C584.584001,220.013999 585.296001,220.597999 585.296001,221.965999 L585.296001,225.83 L586.504001,225.83 L586.504001,221.709999 C586.504001,219.845999 585.144001,219.069999 583.880001,219.069999 C582.696001,219.069999 581.704,219.917999 581.584,220.469999 L581.584,219.261999 L580.392,219.261999 L580.392,225.83 L581.584,225.83 Z M592.168001,226.022 C593.976001,226.022 595.336001,224.678 595.336001,222.549999 C595.336001,220.421999 593.976001,219.069999 592.168001,219.069999 C590.688001,219.069999 589.672,220.037999 589.584,220.549999 L589.584,214.821998 L588.384,214.821998 L588.384,225.83 L589.56,225.83 L589.56,224.51 C589.704,225.038 590.744001,226.022 592.168001,226.022 Z M591.936001,225.014 C590.640001,225.014 589.584,224.046 589.584,222.549999 C589.584,221.061999 590.640001,220.077999 591.936001,220.077999 C593.112001,220.077999 594.152001,221.029999 594.152001,222.549999 C594.152001,224.07 593.112001,225.014 591.936001,225.014 Z M597.88,225.83 L597.88,222.149999 C597.88,221.341999 598.528,220.093999 599.608001,220.093999 C600.152001,220.093999 600.544001,220.285999 600.688001,220.421999 L601.184001,219.429999 C601.000001,219.277999 600.520001,219.069999 599.904001,219.069999 C598.792,219.069999 598.064,219.837999 597.88,220.285999 L597.88,219.261999 L596.704,219.261999 L596.704,225.83 L597.88,225.83 Z M605.064001,226.022 C606.584001,226.022 607.376001,225.518 607.944001,224.694 L607.296001,223.942 C607.048001,224.374 606.392001,225.069999 605.136001,225.069999 C603.616,225.069999 602.864,223.926 602.848,222.669999 L608.104001,222.669999 C608.112001,222.597999 608.128001,222.437999 608.128001,222.341999 C608.128001,220.349999 606.888001,219.069999 604.984001,219.069999 C602.888,219.069999 601.672,220.549999 601.672,222.469999 C601.672,224.534 602.952,226.022 605.064001,226.022 Z M606.936001,221.957999 L602.896,221.957999 C602.96,221.005999 603.488,219.965999 604.992001,219.965999 C606.432001,219.965999 606.912001,221.053999 606.936001,221.957999 Z M610.928,225.83 L610.928,222.181999 C610.928,220.949999 611.928001,220.013999 612.928001,220.013999 C613.928001,220.013999 614.640001,220.597999 614.640001,221.965999 L614.640001,225.83 L615.848001,225.83 L615.848001,221.709999 C615.848001,219.845999 614.488001,219.069999 613.224001,219.069999 C612.040001,219.069999 611.048,219.917999 610.928,220.469999 L610.928,219.261999 L609.736,219.261999 L609.736,225.83 L610.928,225.83 Z M618.968,225.83 L618.968,222.181999 C618.968,220.949999 619.968001,220.013999 620.968001,220.013999 C621.968001,220.013999 622.680001,220.597999 622.680001,221.965999 L622.680001,225.83 L623.888001,225.83 L623.888001,221.709999 C623.888001,219.845999 622.528001,219.069999 621.264001,219.069999 C620.080001,219.069999 619.088,219.917999 618.968,220.469999 L618.968,219.261999 L617.776,219.261999 L617.776,225.83 L618.968,225.83 Z M628.720001,226.022 C630.240001,226.022 631.032001,225.518 631.600001,224.694 L630.952001,223.942 C630.704001,224.374 630.048001,225.069999 628.792001,225.069999 C627.272,225.069999 626.52,223.926 626.504,222.669999 L631.760001,222.669999 C631.768001,222.597999 631.784001,222.437999 631.784001,222.341999 C631.784001,220.349999 630.544001,219.069999 628.640001,219.069999 C626.544,219.069999 625.328,220.549999 625.328,222.469999 C625.328,224.534 626.608,226.022 628.720001,226.022 Z M630.592001,221.957999 L626.552,221.957999 C626.616,221.005999 627.144,219.965999 628.648001,219.965999 C630.088001,219.965999 630.568001,221.053999 630.592001,221.957999 Z M634.568,225.83 L634.568,222.149999 C634.568,221.341999 635.216,220.093999 636.296001,220.093999 C636.840001,220.093999 637.232001,220.285999 637.376001,220.421999 L637.872001,219.429999 C637.688001,219.277999 637.208001,219.069999 636.592001,219.069999 C635.48,219.069999 634.752,219.837999 634.568,220.285999 L634.568,219.261999 L633.392,219.261999 L633.392,225.83 L634.568,225.83 Z M645.560001,226.022 C647.312001,226.022 648.592001,225.118 649.440001,224.294 L650.856001,225.83 L652.368002,225.83 L650.280001,223.614 C650.672001,223.246 651.280002,222.381999 651.464002,222.005999 L650.672001,221.333999 C650.264001,222.045999 649.784001,222.645999 649.536001,222.91 L647.128001,220.277999 C647.648001,220.045999 649.568001,219.213999 649.568001,217.413999 C649.568001,216.077998 648.584001,215.077998 646.912001,215.077998 C645.272001,215.077998 644.128,216.101998 644.128,217.397999 C644.128,218.573999 645.144001,219.717999 645.512001,219.997999 C644.872,220.189999 642.424,221.045999 642.424,223.23 C642.424,224.918 643.744,226.022 645.560001,226.022 Z M646.504001,219.589999 C646.424001,219.509999 645.272001,218.333999 645.272001,217.413999 C645.272001,216.741999 645.848001,216.037998 646.896001,216.037998 C647.840001,216.037998 648.496001,216.637998 648.496001,217.413999 C648.496001,218.813999 647.000001,219.453999 646.504001,219.589999 Z M645.704001,224.934 C644.632,224.934 643.688,224.334 643.688,223.15 C643.688,221.557999 645.656001,220.877999 646.128001,220.733999 L648.720001,223.526 C648.160001,224.134 646.960001,224.934 645.704001,224.934 Z M657.936,225.83 L658.888,223.206 L663.456001,223.206 L664.392001,225.83 L665.640002,225.83 L661.784001,215.269998 L660.552001,215.269998 L656.68,225.83 L657.936,225.83 Z M663.088001,222.133999 L659.256,222.133999 L661.160001,216.717999 L661.184001,216.717999 L663.088001,222.133999 Z M668.04,225.83 L668.04,214.821998 L666.84,214.821998 L666.84,225.83 L668.04,225.83 Z M671.144,216.837999 C671.6,216.837999 671.968,216.469998 671.968,216.021998 C671.968,215.565998 671.6,215.189998 671.144,215.189998 C670.68,215.189998 670.312,215.565998 670.312,216.021998 C670.312,216.469998 670.68,216.837999 671.144,216.837999 Z M669.784,229.350001 C671.2,229.350001 671.696,228.326 671.696,226.766 L671.696,219.261999 L670.504,219.261999 L670.504,226.438 C670.504,227.566 670.352,228.302 669.584,228.302 C669.208,228.302 669.048,228.206 668.92,228.094 L668.448,229.006001 C668.648,229.158001 669.112,229.350001 669.784,229.350001 Z M676.664001,226.022 C678.144001,226.022 679.056001,224.926 679.168001,224.51 L679.168001,225.83 L680.336001,225.83 L680.336001,219.261999 L679.160001,219.261999 L679.160001,220.549999 C679.048001,220.069999 678.128001,219.069999 676.664001,219.069999 C674.856,219.069999 673.392,220.421999 673.392,222.549999 C673.392,224.678 674.856,226.022 676.664001,226.022 Z M676.888001,225.014 C675.704,225.014 674.568,224.07 674.568,222.549999 C674.568,221.029999 675.704,220.077999 676.888001,220.077999 C678.184001,220.077999 679.136001,221.061999 679.136001,222.549999 C679.136001,224.046 678.184001,225.014 676.888001,225.014 Z M687.424001,225.83 L687.424001,224.902 L683.52,224.902 L687.576001,219.261999 L682,219.261999 L682,220.189999 L685.616001,220.189999 L681.56,225.83 L687.424001,225.83 Z M694.168,225.83 L694.168,221.597999 L695.824001,221.597999 C697.792001,221.597999 699.336001,220.565999 699.336001,218.373999 C699.336001,216.173998 697.792001,215.269998 695.824001,215.269998 L693,215.269998 L693,225.83 L694.168,225.83 Z M695.512001,220.597999 L694.168,220.597999 L694.168,216.269998 L695.512001,216.269998 C696.936001,216.269998 698.104001,216.757999 698.104001,218.389999 C698.104001,220.021999 696.936001,220.597999 695.512001,220.597999 Z M702.24,225.83 L702.24,222.149999 C702.24,221.341999 702.888,220.093999 703.968001,220.093999 C704.512001,220.093999 704.904001,220.285999 705.048001,220.421999 L705.544001,219.429999 C705.360001,219.277999 704.880001,219.069999 704.264001,219.069999 C703.152,219.069999 702.424,219.837999 702.24,220.285999 L702.24,219.261999 L701.064,219.261999 L701.064,225.83 L702.24,225.83 Z M707.272,216.837999 C707.728,216.837999 708.112,216.469998 708.112,216.021998 C708.112,215.557998 707.72,215.189998 707.272,215.189998 C706.824,215.189998 706.448,215.565998 706.448,216.021998 C706.448,216.469998 706.816,216.837999 707.272,216.837999 Z M707.848,225.83 L707.848,219.261999 L706.664,219.261999 L706.664,225.83 L707.848,225.83 Z M711.344,225.83 L711.344,222.277999 C711.344,220.661999 712.192,220.021999 713.056001,220.021999 C713.968001,220.021999 714.528001,220.757999 714.528001,222.277999 L714.528001,225.83 L715.640001,225.83 L715.640001,222.277999 C715.640001,220.701999 716.528001,220.021999 717.384001,220.021999 C718.480002,220.021999 718.832002,220.757999 718.832002,222.277999 L718.832002,225.83 L720.008002,225.83 L720.008002,222.013999 C720.008002,220.005999 719.184002,219.069999 717.728001,219.069999 C716.536001,219.069999 715.640001,219.901999 715.416001,220.613999 C715.256001,219.989999 714.680001,219.069999 713.480001,219.069999 C712.344001,219.069999 711.504,219.789999 711.344,220.277999 L711.344,219.261999 L710.16,219.261999 L710.16,225.83 L711.344,225.83 Z M725.000001,226.022 C727.008001,226.022 728.416001,224.518 728.416001,222.565999 C728.416001,220.613999 727.008001,219.069999 725.000001,219.069999 C723,219.069999 721.56,220.613999 721.56,222.565999 C721.56,224.518 723,226.022 725.000001,226.022 Z M725.000001,224.982 C723.632,224.982 722.72,223.942 722.72,222.557999 C722.72,221.181999 723.632,220.109999 725.000001,220.109999 C726.376001,220.109999 727.272001,221.181999 727.272001,222.557999 C727.272001,223.942 726.376001,224.982 725.000001,224.982 Z M735.160001,225.83 L735.160001,224.902 L731.256,224.902 L735.312001,219.261999 L729.736,219.261999 L729.736,220.189999 L733.352001,220.189999 L729.296,225.83 L735.160001,225.83 Z M737.424,216.837999 C737.88,216.837999 738.264,216.469998 738.264,216.021998 C738.264,215.557998 737.872,215.189998 737.424,215.189998 C736.976,215.189998 736.6,215.565998 736.6,216.021998 C736.6,216.469998 736.968,216.837999 737.424,216.837999 Z M738,225.83 L738,219.261999 L736.816,219.261999 L736.816,225.83 L738,225.83 Z M743.184001,226.022 C744.368001,226.022 745.232001,225.518 745.384001,225.39 L744.784001,224.51 C744.656001,224.63 744.112001,225.014 743.232001,225.014 C742.152,225.014 741.008,224.11 741.008,222.541999 C741.008,220.981999 742.152,220.077999 743.232001,220.077999 C744.120001,220.077999 744.616001,220.533999 744.752001,220.653999 L745.352001,219.781999 C745.168001,219.613999 744.352001,219.069999 743.184001,219.069999 C741.472,219.069999 739.856,220.277999 739.856,222.541999 C739.856,224.806 741.472,226.022 743.184001,226.022 Z M753.240001,226.022 C754.064001,226.022 754.600001,225.686 754.696001,225.59 L754.200001,224.71 C754.160001,224.758 753.920001,224.974 753.504001,224.974 C753.032001,224.974 752.712,224.638 752.712,223.814 L752.712,220.301999 L754.448001,220.301999 L754.448001,219.261999 L752.712,219.261999 L752.712,216.565998 L751.528,216.565998 L751.528,219.261999 L750.208,219.261999 L750.208,220.301999 L751.528,220.301999 L751.528,224.134 C751.528,225.446 752.272,226.022 753.240001,226.022 Z M757.232,225.83 L757.232,222.181999 C757.232,220.949999 758.248001,220.013999 759.248001,220.013999 C760.248001,220.013999 760.944001,220.597999 760.944001,221.965999 L760.944001,225.83 L762.144001,225.83 L762.144001,221.709999 C762.144001,219.845999 760.792001,219.069999 759.528001,219.069999 C758.336001,219.069999 757.344,219.917999 757.232,220.469999 L757.232,214.821998 L756.016,214.821998 L756.016,225.83 L757.232,225.83 Z M767.048001,226.022 C768.568001,226.022 769.360001,225.518 769.928001,224.694 L769.280001,223.942 C769.032001,224.374 768.376001,225.069999 767.120001,225.069999 C765.6,225.069999 764.848,223.926 764.832,222.669999 L770.088001,222.669999 C770.096001,222.597999 770.112001,222.437999 770.112001,222.341999 C770.112001,220.349999 768.872001,219.069999 766.968001,219.069999 C764.872,219.069999 763.656,220.549999 763.656,222.469999 C763.656,224.534 764.936,226.022 767.048001,226.022 Z M768.920001,221.957999 L764.88,221.957999 C764.944,221.005999 765.472,219.965999 766.976001,219.965999 C768.416001,219.965999 768.896001,221.053999 768.920001,221.957999 Z M777.120001,225.83 L777.120001,224.758 L772.904,224.758 L772.904,215.269998 L771.736,215.269998 L771.736,225.83 L777.120001,225.83 Z M779.712,216.837999 C780.168,216.837999 780.552,216.469998 780.552,216.021998 C780.552,215.557998 780.16,215.189998 779.712,215.189998 C779.264,215.189998 778.888,215.565998 778.888,216.021998 C778.888,216.469998 779.256,216.837999 779.712,216.837999 Z M780.288,225.83 L780.288,219.261999 L779.104,219.261999 L779.104,225.83 L780.288,225.83 Z M784.448,225.83 L784.448,220.293999 L786.360001,220.293999 L786.360001,219.261999 L784.448,219.261999 L784.448,217.517999 C784.448,215.957998 785.048001,215.669998 785.608001,215.669998 C786.120001,215.669998 786.408001,215.917998 786.464001,215.973998 L786.952001,215.053998 C786.864001,214.973998 786.400001,214.629998 785.520001,214.629998 C784.424,214.629998 783.272,215.357998 783.272,217.373999 L783.272,219.261999 L781.872,219.261999 L781.872,220.293999 L783.272,220.293999 L783.272,225.83 L784.448,225.83 Z M790.136001,226.022 C790.960001,226.022 791.496001,225.686 791.592001,225.59 L791.096001,224.71 C791.056001,224.758 790.816001,224.974 790.400001,224.974 C789.928001,224.974 789.608,224.638 789.608,223.814 L789.608,220.301999 L791.344001,220.301999 L791.344001,219.261999 L789.608,219.261999 L789.608,216.565998 L788.424,216.565998 L788.424,219.261999 L787.104,219.261999 L787.104,220.301999 L788.424,220.301999 L788.424,224.134 C788.424,225.446 789.168,226.022 790.136001,226.022 Z M794.088,225.83 L794.088,216.509998 L799.720001,225.83 L801.400002,225.83 L801.400002,215.269998 L800.240001,215.269998 L800.240001,224.582 L794.6,215.269998 L792.92,215.269998 L792.92,225.83 L794.088,225.83 Z M806.504001,226.022 C808.024001,226.022 808.816001,225.518 809.384001,224.694 L808.736001,223.942 C808.488001,224.374 807.832001,225.069999 806.576001,225.069999 C805.056,225.069999 804.304,223.926 804.288,222.669999 L809.544001,222.669999 C809.552001,222.597999 809.568001,222.437999 809.568001,222.341999 C809.568001,220.349999 808.328001,219.069999 806.424001,219.069999 C804.328,219.069999 803.112,220.549999 803.112,222.469999 C803.112,224.534 804.392,226.022 806.504001,226.022 Z M808.376001,221.957999 L804.336,221.957999 C804.4,221.005999 804.928,219.965999 806.432001,219.965999 C807.872001,219.965999 808.352001,221.053999 808.376001,221.957999 Z M813.08,226.022 C814.472001,226.022 815.832001,225.446 815.832001,223.966 C815.832001,222.709999 814.856001,222.293999 813.752001,222.013999 C812.808,221.781999 812.192,221.469999 812.192,220.877999 C812.192,220.277999 812.824,219.949999 813.616001,219.949999 C814.312001,219.949999 814.904001,220.261999 815.136001,220.453999 L815.640001,219.677999 C815.344001,219.445999 814.496001,219.069999 813.520001,219.069999 C812.176,219.069999 811.024,219.749999 811.024,220.845999 C811.024,222.021999 812.04,222.525999 813.08,222.773999 C813.904001,222.974 814.624001,223.222 814.624001,223.966 C814.624001,224.638 813.960001,225.086 813.032,225.086 C812.208,225.086 811.528,224.702 811.256,224.43 L810.736,225.302 C811.056,225.574 811.912,226.022 813.08,226.022 Z M819.976001,226.022 C820.800001,226.022 821.336001,225.686 821.432001,225.59 L820.936001,224.71 C820.896001,224.758 820.656001,224.974 820.240001,224.974 C819.768001,224.974 819.448,224.638 819.448,223.814 L819.448,220.301999 L821.184001,220.301999 L821.184001,219.261999 L819.448,219.261999 L819.448,216.565998 L818.264,216.565998 L818.264,219.261999 L816.944,219.261999 L816.944,220.301999 L818.264,220.301999 L818.264,224.134 C818.264,225.446 819.008,226.022 819.976001,226.022 Z M496.584001,254.852 C499.544001,254.852 501.784002,252.444 501.784002,249.515999 L501.784002,248.955999 L496.400001,248.955999 L496.400001,249.923999 L500.464002,249.923999 C500.288002,252.012 498.720001,253.724 496.584001,253.724 C494.248001,253.724 492.576,251.732 492.576,249.371999 C492.576,247.011999 494.248001,245.027998 496.584001,245.027998 C497.880001,245.027998 498.976001,245.635999 499.680001,246.595999 L500.592002,245.875999 C499.664001,244.675998 498.224001,243.907998 496.584001,243.907998 C493.616,243.907998 491.36,246.387999 491.36,249.371999 C491.36,252.364 493.56,254.852 496.584001,254.852 Z M507.128001,254.852 C508.936001,254.852 510.296001,253.508 510.296001,251.379999 C510.296001,249.251999 508.936001,247.899999 507.128001,247.899999 C505.648001,247.899999 504.632,248.867999 504.544,249.379999 L504.544,243.651998 L503.344,243.651998 L503.344,254.66 L504.52,254.66 L504.52,253.34 C504.664,253.868 505.704001,254.852 507.128001,254.852 Z M506.896001,253.844 C505.600001,253.844 504.544,252.876 504.544,251.379999 C504.544,249.891999 505.600001,248.907999 506.896001,248.907999 C508.072001,248.907999 509.112001,249.859999 509.112001,251.379999 C509.112001,252.9 508.072001,253.844 506.896001,253.844 Z M512.864,254.66 L512.864,250.147999 L514.792001,250.147999 L517.272001,254.66 L518.600001,254.66 L515.976001,250.059999 C516.920001,250.019999 518.344001,249.075999 518.344001,247.131999 C518.344001,245.179998 516.952001,244.099998 515.272001,244.099998 L511.696,244.099998 L511.696,254.66 L512.864,254.66 Z M514.864,249.251999 L512.864,249.251999 L512.864,245.099998 L514.872001,245.099998 C516.200001,245.099998 517.144001,245.707999 517.144001,247.155999 C517.144001,248.603999 516.200001,249.251999 514.864,249.251999 Z M493.072,283.49 L493.072,278.729999 L497.016001,278.729999 L497.016001,277.657999 L493.072,277.657999 L493.072,274.001998 L497.296001,274.001998 L497.296001,272.929998 L491.912,272.929998 L491.912,283.49 L493.072,283.49 Z M500.272,283.49 L500.272,279.809999 C500.272,279.001999 500.92,277.753999 502.000001,277.753999 C502.544001,277.753999 502.936001,277.945999 503.080001,278.081999 L503.576001,277.089999 C503.392001,276.937999 502.912001,276.729999 502.296001,276.729999 C501.184,276.729999 500.456,277.497999 500.272,277.945999 L500.272,276.921999 L499.096,276.921999 L499.096,283.49 L500.272,283.49 Z M507.336001,283.682 C508.816001,283.682 509.728001,282.586 509.840001,282.17 L509.840001,283.49 L511.008001,283.49 L511.008001,276.921999 L509.832001,276.921999 L509.832001,278.209999 C509.720001,277.729999 508.800001,276.729999 507.336001,276.729999 C505.528,276.729999 504.064,278.081999 504.064,280.209999 C504.064,282.338 505.528,283.682 507.336001,283.682 Z M507.560001,282.674 C506.376,282.674 505.24,281.73 505.24,280.209999 C505.24,278.689999 506.376,277.737999 507.560001,277.737999 C508.856001,277.737999 509.808001,278.721999 509.808001,280.209999 C509.808001,281.706 508.856001,282.674 507.560001,282.674 Z M514.152,283.49 L514.152,279.841999 C514.152,278.609999 515.152001,277.673999 516.152001,277.673999 C517.152001,277.673999 517.864001,278.257999 517.864001,279.625999 L517.864001,283.49 L519.072001,283.49 L519.072001,279.369999 C519.072001,277.505999 517.712001,276.729999 516.448001,276.729999 C515.264001,276.729999 514.272,277.577999 514.152,278.129999 L514.152,276.921999 L512.96,276.921999 L512.96,283.49 L514.152,283.49 Z M521.944,283.49 L521.944,280.53 L525.096001,283.49 L526.584001,283.49 L522.928,280.049999 L526.376001,276.921999 L524.904001,276.921999 L521.944,279.585999 L521.944,272.481998 L520.76,272.481998 L520.76,283.49 L521.944,283.49 Z M528.872,283.49 L528.872,272.481998 L527.672,272.481998 L527.672,283.49 L528.872,283.49 Z M531.736,274.497999 C532.192,274.497999 532.576,274.129998 532.576,273.681998 C532.576,273.217998 532.184,272.849998 531.736,272.849998 C531.288,272.849998 530.912,273.225998 530.912,273.681998 C530.912,274.129998 531.28,274.497999 531.736,274.497999 Z M532.312,283.49 L532.312,276.921999 L531.128,276.921999 L531.128,283.49 L532.312,283.49 Z M535.752,283.49 L535.752,279.841999 C535.752,278.609999 536.752001,277.673999 537.752001,277.673999 C538.752001,277.673999 539.464001,278.257999 539.464001,279.625999 L539.464001,283.49 L540.672001,283.49 L540.672001,279.369999 C540.672001,277.505999 539.312001,276.729999 538.048001,276.729999 C536.864001,276.729999 535.872,277.577999 535.752,278.129999 L535.752,276.921999 L534.56,276.921999 L534.56,283.49 L535.752,283.49 Z M544.504,283.682 C545.896001,283.682 547.256001,283.106 547.256001,281.626 C547.256001,280.369999 546.280001,279.953999 545.176001,279.673999 C544.232,279.441999 543.616,279.129999 543.616,278.537999 C543.616,277.937999 544.248,277.609999 545.040001,277.609999 C545.736001,277.609999 546.328001,277.921999 546.560001,278.113999 L547.064001,277.337999 C546.768001,277.105999 545.920001,276.729999 544.944001,276.729999 C543.6,276.729999 542.448,277.409999 542.448,278.505999 C542.448,279.681999 543.464,280.185999 544.504,280.433999 C545.328001,280.634 546.048001,280.882 546.048001,281.626 C546.048001,282.298 545.384001,282.746 544.456,282.746 C543.632,282.746 542.952,282.362 542.68,282.09 L542.16,282.962 C542.48,283.234 543.336,283.682 544.504,283.682 Z M551.400001,283.682 C552.224001,283.682 552.760001,283.346 552.856001,283.25 L552.360001,282.37 C552.320001,282.418 552.080001,282.634 551.664001,282.634 C551.192001,282.634 550.872,282.298 550.872,281.474 L550.872,277.961999 L552.608001,277.961999 L552.608001,276.921999 L550.872,276.921999 L550.872,274.225998 L549.688,274.225998 L549.688,276.921999 L548.368,276.921999 L548.368,277.961999 L549.688,277.961999 L549.688,281.794 C549.688,283.106 550.432,283.682 551.400001,283.682 Z M555.328,283.49 L555.328,279.809999 C555.328,279.001999 555.976,277.753999 557.056001,277.753999 C557.600001,277.753999 557.992001,277.945999 558.136001,278.081999 L558.632001,277.089999 C558.448001,276.937999 557.968001,276.729999 557.352001,276.729999 C556.24,276.729999 555.512,277.497999 555.328,277.945999 L555.328,276.921999 L554.152,276.921999 L554.152,283.49 L555.328,283.49 Z M561.048,283.682 C561.608,283.682 562.056001,283.234 562.056001,282.682 C562.056001,282.114 561.608,281.674 561.048,281.674 C560.496,281.674 560.048,282.114 560.048,282.682 C560.048,283.234 560.496,283.682 561.048,283.682 Z M575.056001,283.49 L575.056001,282.426 L570.152,282.426 C570.656,282.026 575.144001,278.617999 575.144001,275.921999 C575.144001,273.985998 574.072001,272.737998 571.888001,272.737998 C569.16,272.737998 568.136,275.017999 568.088,275.217999 L569.128,275.673999 C569.16,275.569999 570.064,273.785998 571.888001,273.785998 C573.208001,273.785998 573.944001,274.345999 573.944001,275.913999 C573.944001,278.161999 569.368,281.65 568.296,282.514 L568.296,283.49 L575.056001,283.49 Z M580.224001,283.682 C582.472001,283.682 583.768001,282.146 583.760038,279.961999 C583.744001,277.769999 582.360001,276.705999 580.760001,276.705999 C579.448001,276.705999 578.76,277.393999 578.688,277.537999 L579.216,273.993998 L583.320001,273.993998 L583.320001,272.929998 L578.184,272.929998 L577.296,278.673999 L578.344,279.025999 C578.568,278.473999 579.288,277.713999 580.472001,277.713999 C581.728001,277.713999 582.560001,278.537999 582.576001,280.009999 C582.592001,281.602 581.680001,282.642 580.192001,282.642 C578.704,282.642 578.112,281.626 577.984,281.282 L576.952,281.81 C577.144,282.322 578.048,283.682 580.224001,283.682 Z M495.496001,312.512 C497.456001,312.512 499.408001,310.856 499.408001,307.047999 C499.408001,303.271999 497.456001,301.567998 495.496001,301.567998 C493.552,301.567998 491.568,303.271999 491.568,307.047999 C491.568,310.856 493.552,312.512 495.496001,312.512 Z M495.496001,311.44 C494.024,311.44 492.768,309.992 492.768,307.047999 C492.768,304.127999 494.024,302.639998 495.496001,302.639998 C496.968001,302.639998 498.216001,304.119999 498.216001,307.047999 C498.216001,309.992 496.968001,311.44 495.496001,311.44 Z M503.720001,312.32 L503.720001,301.759998 L503,301.759998 L500.68,303.119998 L500.68,304.271999 L502.536,303.207999 L502.536,312.32 L503.720001,312.32 Z M509.584001,312.512 C511.544001,312.512 513.496001,310.856 513.496001,307.047999 C513.496001,303.271999 511.544001,301.567998 509.584001,301.567998 C507.64,301.567998 505.656,303.271999 505.656,307.047999 C505.656,310.856 507.64,312.512 509.584001,312.512 Z M509.584001,311.44 C508.112,311.44 506.856,309.992 506.856,307.047999 C506.856,304.127999 508.112,302.639998 509.584001,302.639998 C511.056001,302.639998 512.304001,304.119999 512.304001,307.047999 C512.304001,309.992 511.056001,311.44 509.584001,311.44 Z M518.576001,312.512 C520.576001,312.512 522.240001,311.016 522.240001,308.967999 C522.240001,306.911999 520.672001,305.471999 518.864001,305.471999 C517.976001,305.471999 517.344,305.775999 517.088,306.055999 L520.608001,301.759998 L519.192001,301.759998 L516.272,305.423999 C515.544,306.327999 514.936,307.319999 514.936,308.839999 C514.936,311.032 516.52,312.512 518.576001,312.512 Z M518.600001,311.504 C517.208,311.504 516.08,310.368 516.08,308.975999 C516.08,307.591999 517.208,306.463999 518.600001,306.463999 C519.992001,306.463999 521.112001,307.591999 521.112001,308.975999 C521.112001,310.368 519.992001,311.504 518.600001,311.504 Z M526.832001,312.32 L529.760001,308.655999 C530.480001,307.751999 531.096001,306.759999 531.096001,305.239999 C531.096001,303.047998 529.512001,301.567998 527.456001,301.567998 C525.448,301.567998 523.784,303.063998 523.784,305.111999 C523.784,307.167999 525.352,308.607999 527.160001,308.607999 C528.048001,308.607999 528.688001,308.303999 528.936001,308.023999 L525.416,312.32 L526.832001,312.32 Z M527.424001,307.615999 C526.04,307.615999 524.912,306.487999 524.912,305.103999 C524.912,303.711999 526.04,302.575998 527.424001,302.575998 C528.816001,302.575998 529.952001,303.711999 529.952001,305.103999 C529.952001,306.487999 528.816001,307.615999 527.424001,307.615999 Z M539.056001,312.32 C542.440001,312.32 543.960001,310.12 543.960001,307.031999 C543.960001,303.959999 542.424001,301.759998 539.056001,301.759998 L536.696,301.759998 L536.696,312.32 L539.056001,312.32 Z M538.960001,311.24 L537.856,311.24 L537.856,302.839998 L538.960001,302.839998 C541.592001,302.839998 542.744001,304.607999 542.728001,307.047999 C542.720001,309.488 541.576001,311.24 538.960001,311.24 Z M546.912,312.32 L546.912,308.639999 C546.912,307.831999 547.56,306.583999 548.640001,306.583999 C549.184001,306.583999 549.576001,306.775999 549.720001,306.911999 L550.216001,305.919999 C550.032001,305.767999 549.552001,305.559999 548.936001,305.559999 C547.824,305.559999 547.096,306.327999 546.912,306.775999 L546.912,305.751999 L545.736,305.751999 L545.736,312.32 L546.912,312.32 Z M554.096001,312.512 C555.616001,312.512 556.408001,312.008 556.976001,311.184 L556.328001,310.432 C556.080001,310.864 555.424001,311.559999 554.168001,311.559999 C552.648,311.559999 551.896,310.416 551.88,309.159999 L557.136001,309.159999 C557.144001,309.087999 557.160001,308.927999 557.160001,308.831999 C557.160001,306.839999 555.920001,305.559999 554.016001,305.559999 C551.92,305.559999 550.704,307.039999 550.704,308.959999 C550.704,311.024 551.984,312.512 554.096001,312.512 Z M555.968001,308.447999 L551.928,308.447999 C551.992,307.495999 552.52,306.455999 554.024001,306.455999 C555.464001,306.455999 555.944001,307.543999 555.968001,308.447999 Z M560.672,312.512 C562.064001,312.512 563.424001,311.936 563.424001,310.456 C563.424001,309.199999 562.448001,308.783999 561.344001,308.503999 C560.4,308.271999 559.784,307.959999 559.784,307.367999 C559.784,306.767999 560.416,306.439999 561.208001,306.439999 C561.904001,306.439999 562.496001,306.751999 562.728001,306.943999 L563.232001,306.167999 C562.936001,305.935999 562.088001,305.559999 561.112001,305.559999 C559.768,305.559999 558.616,306.239999 558.616,307.335999 C558.616,308.511999 559.632,309.015999 560.672,309.263999 C561.496001,309.464 562.216001,309.712 562.216001,310.456 C562.216001,311.128 561.552001,311.576 560.624,311.576 C559.8,311.576 559.12,311.192 558.848,310.92 L558.328,311.792 C558.648,312.064 559.504,312.512 560.672,312.512 Z M568.008001,312.512 C569.432001,312.512 570.472001,311.528 570.616001,311 L570.616001,312.32 L571.800001,312.32 L571.800001,301.311998 L570.592001,301.311998 L570.592001,307.039999 C570.504001,306.527999 569.488001,305.559999 568.008001,305.559999 C566.2,305.559999 564.84,306.911999 564.84,309.039999 C564.84,311.168 566.2,312.512 568.008001,312.512 Z M568.240001,311.504 C567.064,311.504 566.032,310.56 566.032,309.039999 C566.032,307.519999 567.064,306.567999 568.240001,306.567999 C569.536001,306.567999 570.592001,307.551999 570.592001,309.039999 C570.592001,310.536 569.536001,311.504 568.240001,311.504 Z M576.296001,312.512 C577.816001,312.512 578.608001,312.008 579.176001,311.184 L578.528001,310.432 C578.280001,310.864 577.624001,311.559999 576.368001,311.559999 C574.848,311.559999 574.096,310.416 574.08,309.159999 L579.336001,309.159999 C579.344001,309.087999 579.360001,308.927999 579.360001,308.831999 C579.360001,306.839999 578.120001,305.559999 576.216001,305.559999 C574.12,305.559999 572.904,307.039999 572.904,308.959999 C572.904,311.024 574.184,312.512 576.296001,312.512 Z M578.168001,308.447999 L574.128,308.447999 C574.192,307.495999 574.72,306.455999 576.224001,306.455999 C577.664001,306.455999 578.144001,307.543999 578.168001,308.447999 Z M582.16,312.32 L582.16,308.671999 C582.16,307.439999 583.160001,306.503999 584.160001,306.503999 C585.160001,306.503999 585.872001,307.087999 585.872001,308.455999 L585.872001,312.32 L587.080001,312.32 L587.080001,308.199999 C587.080001,306.335999 585.720001,305.559999 584.456001,305.559999 C583.272001,305.559999 582.28,306.407999 582.16,306.959999 L582.16,305.751999 L580.968,305.751999 L580.968,312.32 L582.16,312.32 Z M494.240001,341.15 C497.624001,341.15 499.144001,338.95 499.144001,335.861999 C499.144001,332.789999 497.608001,330.589998 494.240001,330.589998 L491.88,330.589998 L491.88,341.15 L494.240001,341.15 Z M494.144001,340.07 L493.04,340.07 L493.04,331.669998 L494.144001,331.669998 C496.776001,331.669998 497.928001,333.437999 497.912001,335.877999 C497.904001,338.318 496.760001,340.07 494.144001,340.07 Z M503.824001,341.342 C505.344001,341.342 506.136001,340.838 506.704001,340.014 L506.056001,339.262 C505.808001,339.694 505.152001,340.389999 503.896001,340.389999 C502.376,340.389999 501.624,339.246 501.608,337.989999 L506.864001,337.989999 C506.872001,337.917999 506.888001,337.757999 506.888001,337.661999 C506.888001,335.669999 505.648001,334.389999 503.744001,334.389999 C501.648,334.389999 500.432,335.869999 500.432,337.789999 C500.432,339.854 501.712,341.342 503.824001,341.342 Z M505.696001,337.277999 L501.656,337.277999 C501.72,336.325999 502.248,335.285999 503.752001,335.285999 C505.192001,335.285999 505.672001,336.373999 505.696001,337.277999 Z M511.488001,341.342 C513.464001,341.342 514.576001,340.006 514.576001,338.126 L514.576001,334.581999 L513.400001,334.581999 L513.400001,337.941999 C513.400001,339.39 512.784001,340.302 511.488001,340.302 C510.2,340.302 509.584,339.39 509.584,337.941999 L509.584,334.581999 L508.408,334.581999 L508.408,338.126 C508.408,340.006 509.52,341.342 511.488001,341.342 Z M519.016001,341.342 C519.840001,341.342 520.376001,341.006 520.472001,340.91 L519.976001,340.03 C519.936001,340.078 519.696001,340.294 519.280001,340.294 C518.808001,340.294 518.488,339.958 518.488,339.134 L518.488,335.621999 L520.224001,335.621999 L520.224001,334.581999 L518.488,334.581999 L518.488,331.885998 L517.304,331.885998 L517.304,334.581999 L515.984,334.581999 L515.984,335.621999 L517.304,335.621999 L517.304,339.454 C517.304,340.766 518.048,341.342 519.016001,341.342 Z M523.672,341.342 C525.064001,341.342 526.424001,340.766 526.424001,339.286 C526.424001,338.029999 525.448001,337.613999 524.344001,337.333999 C523.4,337.101999 522.784,336.789999 522.784,336.197999 C522.784,335.597999 523.416,335.269999 524.208001,335.269999 C524.904001,335.269999 525.496001,335.581999 525.728001,335.773999 L526.232001,334.997999 C525.936001,334.765999 525.088001,334.389999 524.112001,334.389999 C522.768,334.389999 521.616,335.069999 521.616,336.165999 C521.616,337.341999 522.632,337.845999 523.672,338.093999 C524.496001,338.294 525.216001,338.542 525.216001,339.286 C525.216001,339.958 524.552001,340.406 523.624,340.406 C522.8,340.406 522.12,340.022 521.848,339.75 L521.328,340.622 C521.648,340.894 522.504,341.342 523.672,341.342 Z M531.056001,341.342 C532.240001,341.342 533.104001,340.838 533.256001,340.71 L532.656001,339.83 C532.528001,339.95 531.984001,340.334 531.104001,340.334 C530.024,340.334 528.88,339.43 528.88,337.861999 C528.88,336.301999 530.024,335.397999 531.104001,335.397999 C531.992001,335.397999 532.488001,335.853999 532.624001,335.973999 L533.224001,335.101999 C533.040001,334.933999 532.224001,334.389999 531.056001,334.389999 C529.344,334.389999 527.728,335.597999 527.728,337.861999 C527.728,340.126 529.344,341.342 531.056001,341.342 Z M535.96,341.15 L535.96,337.501999 C535.96,336.269999 536.976001,335.333999 537.976001,335.333999 C538.976001,335.333999 539.672001,335.917999 539.672001,337.285999 L539.672001,341.15 L540.872001,341.15 L540.872001,337.029999 C540.872001,335.165999 539.520001,334.389999 538.256001,334.389999 C537.064001,334.389999 536.072,335.237999 535.96,335.789999 L535.96,330.141998 L534.744,330.141998 L534.744,341.15 L535.96,341.15 Z M544.104,341.15 L544.104,330.141998 L542.904,330.141998 L542.904,341.15 L544.104,341.15 Z M549.000001,341.342 C550.480001,341.342 551.392001,340.246 551.504001,339.83 L551.504001,341.15 L552.672001,341.15 L552.672001,334.581999 L551.496001,334.581999 L551.496001,335.869999 C551.384001,335.389999 550.464001,334.389999 549.000001,334.389999 C547.192,334.389999 545.728,335.741999 545.728,337.869999 C545.728,339.998 547.192,341.342 549.000001,341.342 Z M549.224001,340.334 C548.04,340.334 546.904,339.39 546.904,337.869999 C546.904,336.349999 548.04,335.397999 549.224001,335.397999 C550.520001,335.397999 551.472001,336.381999 551.472001,337.869999 C551.472001,339.366 550.520001,340.334 549.224001,340.334 Z M555.816,341.15 L555.816,337.501999 C555.816,336.269999 556.816001,335.333999 557.816001,335.333999 C558.816001,335.333999 559.528001,335.917999 559.528001,337.285999 L559.528001,341.15 L560.736001,341.15 L560.736001,337.029999 C560.736001,335.165999 559.376001,334.389999 558.112001,334.389999 C556.928001,334.389999 555.936,335.237999 555.816,335.789999 L555.816,334.581999 L554.624,334.581999 L554.624,341.15 L555.816,341.15 Z M565.552001,341.342 C566.976001,341.342 568.016001,340.358 568.160001,339.83 L568.160001,341.15 L569.344001,341.15 L569.344001,330.141998 L568.136001,330.141998 L568.136001,335.869999 C568.048001,335.357999 567.032001,334.389999 565.552001,334.389999 C563.744,334.389999 562.384,335.741999 562.384,337.869999 C562.384,339.998 563.744,341.342 565.552001,341.342 Z M565.784001,340.334 C564.608,340.334 563.576,339.39 563.576,337.869999 C563.576,336.349999 564.608,335.397999 565.784001,335.397999 C567.080001,335.397999 568.136001,336.381999 568.136001,337.869999 C568.136001,339.366 567.080001,340.334 565.784001,340.334 Z" id="MarcusAschenbrenner&amp;AljazPrimozictheLiftNestGbRFranklinstr.2501069DresdenDeutschland"></path>
        </g>
    </g>
</svg>